<?xml version="1.0" standalone="no"?>
<!DOCTYPE svg PUBLIC "-//W3C//DTD SVG 20010904//EN"
 "http://www.w3.org/TR/2001/REC-SVG-20010904/DTD/svg10.dtd">
<svg version="1.0" xmlns="http://www.w3.org/2000/svg"
 width="1773.000000pt" height="1773.000000pt" viewBox="0 0 1773.000000 1773.000000"
 preserveAspectRatio="xMidYMid meet">
<metadata>
Created by potrace 1.11, written by Peter Selinger 2001-2013
</metadata>
<g transform="translate(0.000000,1773.000000) scale(0.100000,-0.100000)"
fill="#000000" stroke="none">
<path d="M8518 17725 c-2 -1 -68 -6 -148 -9 -80 -4 -158 -9 -175 -11 -16 -2
-64 -6 -105 -9 -41 -3 -97 -8 -125 -11 -117 -13 -321 -37 -337 -40 -9 -2 -38
-6 -65 -10 -46 -7 -257 -41 -305 -50 -13 -3 -45 -9 -73 -15 -27 -5 -64 -12
-81 -15 -16 -2 -91 -18 -165 -35 -73 -17 -141 -33 -149 -35 -8 -2 -53 -13
-100 -25 -47 -11 -110 -27 -140 -35 -223 -56 -639 -194 -940 -312 -121 -47
-140 -55 -233 -97 -32 -14 -60 -26 -62 -26 -17 0 -497 -232 -620 -300 -27 -15
-77 -42 -110 -60 -49 -26 -354 -206 -429 -253 -171 -106 -712 -486 -736 -516
-3 -4 -34 -29 -69 -56 -65 -49 -296 -241 -361 -300 -19 -18 -62 -56 -95 -86
-70 -62 -506 -498 -580 -579 -407 -445 -802 -983 -1110 -1510 -54 -94 -88
-154 -173 -310 -309 -569 -592 -1305 -761 -1975 -35 -141 -101 -436 -115 -519
-3 -16 -10 -52 -15 -80 -6 -28 -12 -64 -15 -81 -2 -16 -9 -59 -15 -95 -6 -36
-13 -83 -16 -105 -3 -22 -7 -53 -10 -70 -2 -16 -7 -52 -10 -80 -4 -27 -8 -59
-10 -71 -2 -11 -6 -52 -10 -90 -4 -38 -8 -79 -10 -91 -2 -12 -6 -61 -10 -110
-4 -48 -8 -101 -10 -118 -27 -234 -27 -1037 0 -1345 2 -25 7 -79 10 -120 4
-41 8 -88 10 -105 2 -16 7 -57 10 -90 3 -33 8 -71 10 -85 2 -14 6 -50 10 -81
3 -31 7 -65 9 -75 2 -11 7 -39 10 -64 3 -25 8 -56 11 -70 2 -13 7 -42 10 -65
10 -67 35 -203 61 -335 14 -69 28 -136 30 -150 12 -64 89 -367 134 -523 115
-404 295 -897 441 -1205 21 -45 39 -85 39 -87 0 -7 194 -395 229 -458 15 -29
45 -83 66 -122 159 -293 432 -712 660 -1015 55 -73 276 -352 285 -360 3 -3 48
-54 100 -115 95 -111 127 -147 261 -289 170 -180 377 -381 585 -566 230 -206
781 -630 942 -725 9 -6 49 -31 87 -56 376 -247 925 -543 1290 -696 33 -14 76
-32 95 -41 19 -9 37 -17 40 -18 5 -1 11 -3 100 -39 302 -124 759 -274 1100
-361 8 -2 33 -8 55 -14 107 -27 478 -106 585 -125 72 -12 156 -26 185 -30 77
-12 246 -35 295 -40 30 -4 66 -8 80 -10 53 -7 118 -14 195 -21 44 -3 96 -8
115 -9 292 -28 1110 -28 1390 0 19 2 71 6 115 10 102 8 160 14 210 20 22 3 57
8 78 10 20 3 54 7 75 10 57 7 244 35 268 39 12 3 39 7 60 11 246 38 657 131
929 209 162 47 423 130 460 146 11 5 31 12 45 15 70 18 533 203 720 287 226
102 684 340 818 425 29 18 54 33 56 33 8 0 283 173 401 253 203 136 509 362
650 478 65 54 231 194 235 199 3 3 41 37 85 75 105 92 219 201 379 361 257
256 380 394 695 779 41 51 252 337 291 395 24 36 46 67 50 70 12 11 230 351
307 480 124 210 151 258 283 515 53 105 118 235 143 290 25 55 56 125 70 155
14 30 37 84 51 120 15 36 31 74 36 85 76 168 296 806 335 972 3 10 23 88 45
173 22 85 42 164 44 175 2 11 11 50 20 86 8 37 17 78 20 90 2 13 9 44 15 69 5
25 12 56 14 70 30 160 37 199 41 225 12 75 26 163 31 200 3 22 10 65 15 95 5
30 12 84 15 120 4 36 9 79 11 95 3 17 7 48 9 70 7 81 18 201 21 230 19 198 27
983 11 1226 -9 152 -23 321 -32 389 -2 19 -7 60 -10 90 -6 59 -24 199 -30 240
-2 14 -7 45 -10 70 -3 25 -8 52 -10 60 -2 8 -6 35 -9 60 -3 25 -8 56 -11 70
-3 14 -8 41 -11 60 -5 29 -21 116 -50 260 -3 14 -11 53 -19 88 -8 34 -17 76
-20 94 -3 17 -8 34 -10 38 -2 3 -6 17 -8 31 -14 74 -149 565 -167 604 -5 11
-25 72 -46 135 -136 424 -372 968 -605 1395 -133 245 -200 358 -316 538 -35
54 -63 102 -63 106 0 4 -9 16 -20 26 -11 10 -20 24 -20 31 0 7 -3 14 -8 16 -4
2 -36 46 -72 98 -140 207 -365 502 -539 705 -47 55 -88 102 -91 105 -3 3 -39
43 -80 90 -233 264 -627 645 -905 874 -33 28 -62 53 -65 56 -25 32 -433 335
-675 502 -145 100 -477 304 -650 398 -33 18 -75 42 -94 52 -50 29 -395 201
-481 241 -255 118 -573 246 -810 326 -36 12 -74 26 -85 31 -24 10 -239 77
-385 119 -369 106 -864 210 -1210 256 -25 3 -56 8 -70 10 -14 2 -54 7 -90 10
-36 4 -72 8 -80 10 -8 2 -51 7 -95 10 -44 3 -91 8 -105 10 -14 2 -70 7 -125
10 -55 4 -125 9 -155 12 -67 5 -857 12 -862 8z"/>
</g>
</svg>
