<?xml version="1.0" standalone="no"?>
<!DOCTYPE svg PUBLIC "-//W3C//DTD SVG 20010904//EN"
 "http://www.w3.org/TR/2001/REC-SVG-20010904/DTD/svg10.dtd">
<svg version="1.0" xmlns="http://www.w3.org/2000/svg"
 width="800.000000pt" height="800.000000pt" viewBox="0 0 800.000000 800.000000"
 preserveAspectRatio="xMidYMid meet">
<metadata>
Created by potrace 1.11, written by Peter Selinger 2001-2013
</metadata>
<g transform="translate(0.000000,800.000000) scale(0.100000,-0.100000)"
fill="#000000" stroke="none">
<path d="M1414 7200 c6 -40 47 -210 139 -570 36 -140 82 -334 102 -430 20 -96
69 -305 110 -465 77 -306 115 -476 115 -520 0 -25 -1 -26 -17 -9 -10 9 -25 33
-34 53 -9 20 -40 72 -70 116 -30 44 -72 121 -94 170 -21 50 -68 139 -103 198
-35 60 -82 152 -104 205 -44 106 -409 842 -435 876 -21 29 -17 18 77 -194 127
-288 200 -446 261 -565 142 -275 173 -341 198 -413 12 -35 69 -156 127 -269
l106 -206 -16 -34 c-20 -43 -20 -76 0 -118 18 -39 45 -59 91 -69 18 -4 32 -11
32 -14 -2 -16 14 -52 23 -52 5 0 6 -4 3 -10 -3 -5 -15 -10 -26 -10 -35 0 -533
-257 -895 -463 -43 -24 -70 -33 -88 -30 -37 7 -79 -22 -70 -49 6 -21 5 -21
-115 -15 -112 6 -122 5 -131 -13 -15 -28 -12 -96 4 -113 19 -18 112 -30 168
-22 l43 7 39 -119 c21 -65 55 -161 76 -214 21 -53 46 -131 55 -173 9 -42 24
-83 32 -91 8 -9 12 -23 8 -35 -4 -12 3 -36 19 -62 13 -24 41 -99 61 -168 20
-69 51 -150 69 -180 18 -30 47 -91 64 -135 98 -255 207 -481 284 -590 27 -38
87 -126 133 -195 121 -181 191 -260 293 -329 48 -32 127 -95 176 -140 58 -53
116 -94 165 -119 42 -21 125 -67 186 -102 107 -62 134 -75 385 -181 168 -70
424 -155 540 -179 155 -31 321 -44 570 -44 491 1 830 59 1350 233 129 44 280
97 335 119 109 44 478 212 590 269 94 47 270 164 377 250 107 86 335 291 342
308 2 7 18 15 35 18 16 4 45 19 62 35 47 42 46 90 -4 140 -40 39 -43 40 -183
32 -82 -5 -120 15 -269 141 -127 108 -403 317 -645 489 -80 57 -147 104 -149
106 -2 2 6 23 18 47 28 57 27 81 -4 106 l-26 20 49 68 c26 37 118 174 203 303
85 129 245 368 355 530 110 162 261 392 334 510 118 189 208 326 618 935 114
170 269 415 279 441 24 66 -96 -104 -204 -286 -103 -176 -188 -301 -370 -547
-46 -62 -156 -229 -244 -370 -186 -298 -226 -354 -124 -173 70 123 156 265
258 425 217 339 422 683 413 692 -2 2 -28 -33 -58 -78 -160 -249 -475 -756
-568 -914 -132 -224 -270 -451 -348 -570 -319 -492 -629 -954 -640 -954 -7 -1
-11 3 -8 8 4 5 1 11 -5 13 -6 2 18 55 56 123 37 66 89 160 117 208 27 49 111
197 187 330 303 530 454 811 668 1240 123 246 253 500 289 565 37 64 80 142
97 172 17 30 40 71 52 90 50 80 205 412 205 439 0 2 -10 -4 -21 -15 -29 -26
-54 -66 -139 -229 -40 -77 -84 -157 -97 -177 -12 -21 -23 -39 -23 -41 0 -3
-39 -74 -86 -158 -84 -149 -193 -357 -504 -959 -81 -157 -178 -337 -215 -400
-110 -188 -186 -324 -298 -530 -58 -107 -143 -259 -190 -337 -46 -78 -98 -177
-116 -220 -40 -99 -77 -146 -130 -161 -50 -15 -77 -49 -85 -107 -7 -42 -12
-48 -89 -103 -144 -101 -314 -208 -507 -317 -47 -26 -88 -50 -92 -52 -5 -2 -8
-2 -8 1 0 10 175 123 350 226 233 137 294 180 278 196 -12 12 -429 -191 -667
-325 -88 -50 -244 -142 -346 -205 l-185 -114 -82 52 c-93 58 -219 155 -290
223 -58 55 -168 208 -233 323 -26 47 -71 121 -98 165 -57 91 -117 212 -117
236 0 9 -10 32 -23 50 -56 82 -96 209 -142 445 -14 71 -28 136 -30 144 -4 12
9 19 52 30 l58 15 -1 38 c-1 21 -4 40 -6 43 -3 2 -34 9 -69 15 -35 7 -72 19
-82 28 -18 15 -20 14 -39 -12 -18 -25 -25 -27 -85 -27 -51 0 -69 4 -79 18 -7
9 -16 17 -21 17 -23 2 -337 174 -329 182 2 3 13 0 23 -6 11 -5 59 -23 107 -40
48 -17 130 -53 182 -81 52 -29 100 -50 106 -48 17 6 -200 111 -312 151 -343
123 -770 323 -770 360 0 6 17 28 37 49 50 51 50 87 0 162 -46 69 -98 222 -137
398 -16 74 -43 177 -59 230 -16 52 -48 178 -70 279 -73 330 -282 1124 -308
1169 -14 25 -14 25 -9 -10z m5776 -990 c-17 -33 -33 -60 -35 -60 -3 0 8 27 25
60 17 33 33 60 35 60 3 0 -8 -27 -25 -60z m-417 -775 c-3 -9 -8 -14 -10 -11
-3 3 -2 9 2 15 9 16 15 13 8 -4z m-23 -45 c-6 -11 -13 -20 -16 -20 -2 0 0 9 6
20 6 11 13 20 16 20 2 0 0 -9 -6 -20z m-4838 -282 c4 -10 10 -10 31 -1 23 11
27 9 41 -12 21 -32 20 -41 -4 -65 -41 -41 -130 -14 -130 39 0 37 52 69 62 39z
m4608 -195 c-99 -188 -151 -283 -156 -283 -2 0 17 42 42 93 63 125 174 327
180 327 3 0 -27 -62 -66 -137z m-4651 -86 c-2 -2 -94 -82 -204 -178 -236 -206
-299 -254 -342 -264 -18 -3 -41 -17 -52 -31 -16 -20 -28 -24 -70 -24 -47 0
-50 2 -40 18 6 10 46 40 88 66 94 60 533 359 581 396 19 15 37 26 39 24 2 -2
2 -5 0 -7z m-31 -89 c-35 -46 -103 -144 -153 -216 -79 -116 -93 -132 -115
-130 -21 3 -27 -3 -35 -29 l-9 -33 -84 0 -83 0 18 31 c10 17 48 57 84 88 86
73 262 228 357 314 41 37 76 66 79 64 2 -3 -25 -42 -59 -89z m167 -38 c63
-145 95 -243 95 -292 l0 -47 -45 -7 c-25 -3 -47 -5 -48 -3 -2 2 -13 25 -25 50
-21 44 -22 59 -20 210 2 90 0 175 -5 189 -9 31 -2 17 48 -100z m150 -81 c107
-182 146 -238 168 -242 12 -2 -14 -5 -58 -5 -79 -1 -80 0 -107 32 -16 20 -52
101 -86 197 -84 232 -84 233 -20 161 29 -33 75 -97 103 -143z m85 11 c121
-123 168 -177 167 -193 -1 -12 2 -32 6 -44 7 -18 4 -22 -15 -25 -17 -2 -26 4
-35 25 -7 16 -27 34 -45 42 -26 10 -49 38 -102 125 -38 61 -91 140 -117 176
-27 35 -43 64 -37 64 6 0 86 -77 178 -170z m-495 142 c-6 -5 -136 -92 -290
-195 -235 -157 -286 -187 -317 -187 -21 0 -46 -8 -59 -19 l-24 -20 25 -9 c23
-9 22 -10 -20 -16 -135 -18 -209 -3 -123 24 21 7 133 67 248 133 289 166 608
330 560 289z m149 -14 c-20 -67 -151 -346 -171 -365 -13 -12 -23 -29 -23 -38
0 -11 -12 -15 -51 -15 -51 0 -51 0 -44 27 3 15 19 43 34 62 15 20 54 74 86
121 82 118 165 230 171 230 3 0 2 -10 -2 -22z m53 -168 c-2 -66 -9 -125 -16
-138 -7 -13 -11 -42 -9 -65 l3 -42 -78 -3 c-74 -3 -77 -2 -78 20 -3 55 10 90
112 307 l53 114 9 -39 c4 -21 6 -91 4 -154z m561 -83 c53 -37 112 -82 129
-100 l33 -32 -63 1 c-120 2 -124 3 -132 27 -4 12 -7 27 -6 33 1 6 -16 24 -36
40 -49 36 -236 218 -275 267 -25 32 -5 20 111 -65 78 -57 186 -134 239 -171z
m-43 129 c105 -51 240 -121 300 -155 174 -100 184 -116 66 -109 -67 4 -88 10
-147 42 -71 39 -403 272 -439 308 l-20 20 25 -7 c14 -4 111 -49 215 -99z
m3744 -258 c-33 -63 -101 -178 -106 -178 -3 0 6 19 20 43 13 23 39 68 57 100
30 54 54 83 29 35z m-4234 -6 c-3 -3 -11 0 -18 7 -9 10 -8 11 6 5 10 -3 15 -9
12 -12z m-835 -6 c0 -2 -7 -7 -16 -10 -8 -3 -12 -2 -9 4 6 10 25 14 25 6z
m1553 -20 c28 -11 40 -11 43 -3 3 9 72 11 256 9 246 -3 302 -10 303 -37 0 -9
-249 -20 -621 -27 -73 -2 -130 -6 -128 -9 7 -13 -313 -22 -881 -24 -517 -3
-822 -13 -933 -31 -29 -4 -34 -2 -46 28 -8 18 -13 34 -11 36 2 2 77 5 167 7
89 2 280 8 423 14 143 5 346 10 450 11 105 0 242 5 305 11 116 11 393 25 550
27 50 1 101 -5 123 -12z m-1356 -12 c-3 -3 -12 -4 -19 -1 -8 3 -5 6 6 6 11 1
17 -2 13 -5z m1792 -83 c11 -7 7 -14 -20 -31 -40 -25 -99 -22 -131 7 -20 18
-20 18 23 24 70 10 113 9 128 0z m-639 -11 c0 -27 -69 -38 -117 -18 l-28 12
45 6 c71 11 100 11 100 0z m210 -5 c0 -40 -96 -43 -142 -5 l-23 19 83 1 c67 0
82 -3 82 -15z m210 -5 c-6 -11 -22 -23 -36 -26 -30 -8 -109 13 -125 32 -10 12
4 14 80 14 88 0 91 -1 81 -20z m-620 1 c0 -31 -71 -43 -125 -20 l-30 13 40 6
c61 11 115 11 115 1z m-404 -14 c5 -4 2 -12 -6 -18 -34 -21 -66 -22 -121 -2
l-57 21 -25 -26 c-25 -25 -28 -25 -79 -13 -29 6 -64 21 -78 32 l-25 20 192 -3
c105 -2 195 -7 199 -11z m174 5 c0 -35 -75 -43 -111 -12 l-24 19 68 1 c37 0
67 -4 67 -8z m-692 -22 c-28 -44 -119 -52 -176 -14 l-27 19 35 6 c19 4 68 7
108 8 69 1 72 0 60 -19z m150 -16 c90 -39 145 -42 180 -11 15 13 20 14 42 2
38 -21 122 -19 151 4 22 17 28 17 49 5 42 -23 107 -18 136 11 l24 24 36 -24
c51 -35 94 -41 139 -19 20 9 39 23 42 30 4 11 13 9 44 -6 51 -26 106 -26 135
1 l22 20 43 -22 c59 -30 116 -30 139 -1 l18 22 44 -20 c56 -25 114 -25 156 0
33 20 33 20 58 1 14 -11 38 -23 55 -26 l29 -7 -64 -53 c-36 -29 -79 -59 -96
-66 -16 -8 -30 -17 -30 -22 0 -11 49 3 102 29 60 30 62 30 43 -6 -33 -64 -7
-69 30 -6 14 24 32 50 40 56 13 11 15 5 15 -38 0 -28 -7 -80 -15 -117 -11 -44
-12 -71 -6 -83 8 -15 11 -14 20 10 28 75 44 161 45 250 1 100 10 128 19 61 9
-67 23 -107 48 -135 23 -26 53 -120 88 -280 12 -53 28 -93 53 -130 39 -57 58
-98 58 -128 0 -17 9 -35 68 -126 12 -19 22 -41 22 -48 0 -7 15 -33 33 -57 18
-24 69 -104 113 -178 70 -120 135 -202 221 -281 90 -84 147 -133 221 -190 77
-59 82 -65 65 -78 -10 -7 -121 -76 -248 -152 -126 -75 -253 -153 -281 -172
l-52 -35 -212 -13 -213 -14 -14 -35 c-17 -41 -13 -123 9 -168 12 -25 19 -28
71 -31 31 -2 57 -7 57 -11 0 -16 -136 -139 -177 -159 -71 -37 -213 -74 -283
-74 -65 -1 -187 26 -290 63 -140 51 -251 97 -315 132 -38 21 -98 51 -132 67
-35 16 -73 38 -85 50 -12 11 -28 18 -35 16 -7 -3 -13 0 -13 6 0 17 -30 47 -43
44 -7 -2 -9 -1 -5 1 4 3 -3 19 -17 37 -13 18 -39 59 -56 92 -67 126 -82 149
-149 224 -37 43 -74 89 -81 101 -6 13 -23 34 -36 48 -35 37 -78 128 -125 266
-38 112 -77 203 -99 229 -20 24 -59 87 -59 96 0 5 -8 13 -17 19 -10 5 -17 12
-15 16 2 3 -6 25 -17 48 -11 23 -24 71 -30 107 -10 72 -60 197 -146 370 -63
128 -95 217 -95 270 0 20 -6 44 -13 55 -7 11 -18 34 -25 50 -8 19 73 -56 225
-211 214 -217 297 -293 308 -283 2 2 -27 36 -63 74 -257 271 -374 404 -366
417 3 4 10 6 15 2 5 -3 7 -10 3 -15 -5 -9 83 -55 99 -51 4 1 7 -3 7 -10 0 -6
3 -9 6 -5 3 3 48 -20 100 -50 52 -31 97 -53 100 -50 5 5 -153 114 -278 191
-82 50 -95 62 -52 46 43 -17 102 -12 124 10 19 19 20 19 72 -5 29 -14 64 -25
76 -25 35 0 90 29 115 61 12 15 24 28 27 28 2 1 42 -15 88 -35z m-388 6 c-6
-12 -22 -25 -34 -30 -25 -9 -94 3 -130 23 -20 11 -19 12 14 18 19 3 63 7 98 8
60 1 62 0 52 -19z m2000 6 c0 -2 -7 -7 -16 -10 -8 -3 -12 -2 -9 4 6 10 25 14
25 6z m-2190 -59 l34 -42 -44 40 c-25 22 -47 41 -49 43 -2 1 2 2 10 1 8 0 30
-19 49 -42z m112 -129 c22 -27 38 -48 35 -48 -2 0 -31 30 -63 68 -32 37 -48
58 -35 47 13 -11 41 -41 63 -67z m58 -463 c0 -5 -5 -3 -10 5 -5 8 -10 20 -10
25 0 6 5 3 10 -5 5 -8 10 -19 10 -25z m4624 -184 c8 -12 -12 -73 -26 -83 -7
-4 -39 -8 -71 -8 -58 0 -58 0 -55 27 4 36 59 73 109 73 21 0 40 -4 43 -9z
m-250 -163 c-4 -7 -51 -65 -104 -128 -92 -111 -501 -612 -569 -697 -29 -36
-36 -40 -59 -33 -48 13 -132 52 -132 60 0 5 71 75 157 157 86 81 231 220 322
309 92 88 202 189 246 223 44 35 93 76 109 92 30 31 42 37 30 17z m275 -50 c6
-26 11 -60 11 -75 0 -16 6 -37 14 -48 7 -11 39 -122 70 -246 30 -125 65 -255
75 -290 11 -35 18 -65 16 -67 -2 -2 -39 -6 -82 -9 l-79 -6 -13 85 c-8 54 -10
118 -6 174 6 79 -2 218 -30 494 -7 64 7 57 24 -12z m-209 46 c0 -3 -16 -44
-36 -92 -58 -142 -151 -313 -299 -549 -155 -247 -134 -229 -275 -239 -57 -5
-80 -2 -95 9 -19 15 -19 15 6 53 15 22 59 77 99 123 40 46 115 139 168 205
182 231 207 261 266 331 109 128 166 183 166 159z m147 -74 c-3 -26 -2 -51 3
-56 17 -18 31 -166 37 -410 l6 -252 -49 -6 c-130 -16 -266 -27 -271 -22 -9 9
17 105 107 381 49 149 96 307 106 352 12 57 22 83 33 86 24 5 34 -21 28 -73z
m-107 -31 c-11 -52 -51 -195 -90 -319 -38 -124 -80 -265 -93 -315 l-24 -90
-136 -16 c-76 -8 -137 -13 -137 -12 0 11 42 82 115 198 71 112 195 327 339
588 21 38 40 67 42 64 3 -2 -4 -47 -16 -98z m586 -119 c416 -315 591 -455 579
-463 -8 -4 -54 -10 -103 -13 l-90 -7 -48 39 c-26 21 -148 140 -269 264 -190
193 -249 257 -354 384 -19 23 75 -45 285 -204z m-263 147 c59 -76 112 -134
331 -357 248 -254 261 -269 251 -279 -6 -5 -61 -11 -123 -12 l-114 -4 -170
295 c-227 394 -241 420 -231 419 4 0 30 -28 56 -62z m-703 9 c0 -2 -55 -37
-122 -77 -68 -40 -143 -88 -167 -108 -43 -35 -116 -87 -333 -237 -57 -39 -137
-90 -178 -114 l-75 -42 -32 18 c-18 9 -33 20 -33 24 0 15 544 333 810 473 132
70 130 69 130 63z m894 -461 l126 -210 -72 -13 c-100 -19 -139 -9 -152 38 -5
19 -33 120 -63 223 -53 189 -93 352 -93 384 0 10 29 -34 64 -97 35 -63 121
-209 190 -325z m-874 352 c-19 -19 -75 -71 -125 -117 -128 -119 -252 -237
-391 -373 l-122 -119 -43 20 c-98 44 -106 30 123 213 113 90 243 191 288 223
75 54 288 186 300 186 2 0 -11 -15 -30 -33z m-394 -216 c-12 -20 -395 -311
-409 -311 -8 0 -25 8 -38 19 l-23 18 55 35 c207 132 263 167 334 205 87 46 89
47 81 34z m-586 -281 c19 -11 30 -19 23 -20 -6 0 -99 -62 -205 -138 -106 -77
-203 -144 -216 -151 -21 -11 -207 -20 -217 -10 -7 7 547 339 565 339 8 -1 31
-9 50 -20z m140 -75 c0 -4 -40 -43 -148 -143 -71 -66 -92 -74 -217 -80 l-110
-5 30 24 c16 13 106 74 199 136 l170 112 38 -20 c21 -11 38 -21 38 -24z m2408
29 c19 -6 22 -11 17 -35 -5 -21 -3 -29 7 -29 20 0 58 38 58 57 0 13 9 15 56
10 85 -9 103 -33 64 -87 -28 -39 -58 -46 -255 -65 -93 -8 -235 -24 -315 -35
-80 -11 -225 -26 -323 -35 -98 -8 -244 -25 -324 -36 -81 -11 -157 -19 -169
-16 -13 2 -21 1 -19 -3 7 -12 -62 -18 -485 -45 -264 -17 -747 -71 -1090 -121
-172 -25 -245 -30 -602 -38 l-178 -4 0 28 c0 15 -7 46 -14 68 -8 23 -11 44 -7
47 33 20 312 35 281 15 -8 -5 -42 -10 -75 -10 -62 0 -85 -11 -85 -41 0 -20 41
-33 52 -16 5 8 8 4 8 -10 0 -13 2 -23 4 -23 2 0 13 -3 23 -7 17 -7 17 -6 1 11
-10 9 -18 22 -18 29 0 6 6 3 13 -8 14 -19 41 -12 34 8 -5 15 86 74 133 87 19
6 62 10 95 10 l60 -1 -28 -17 c-31 -19 -44 -49 -28 -65 9 -9 14 -8 21 3 5 8 7
17 4 21 -2 4 0 10 5 14 6 3 8 -3 6 -14 -4 -22 16 -34 43 -24 9 4 41 28 70 55
52 46 56 48 115 48 34 0 80 3 102 6 l40 7 -35 -25 c-44 -30 -47 -61 -5 -63 16
0 37 7 47 17 10 10 18 13 18 7 0 -8 5 -8 15 1 8 7 15 9 15 4 0 -4 5 -3 12 4 8
8 8 15 -1 26 -9 11 -9 16 1 22 12 8 229 33 237 28 2 -2 -4 -10 -13 -19 -22
-22 -20 -45 4 -45 11 0 20 -7 20 -15 0 -9 6 -12 18 -8 26 9 42 33 42 64 0 25
3 27 75 38 42 6 92 11 112 11 34 0 35 -1 20 -18 -22 -24 -21 -42 2 -42 10 0
24 -7 31 -15 22 -26 50 -1 50 45 0 22 2 40 4 40 12 0 244 31 266 35 l25 5 -22
-19 c-28 -24 -29 -42 -2 -67 21 -19 48 -12 57 16 3 8 0 10 -8 5 -8 -5 -11 -4
-6 3 4 6 13 9 21 5 17 -6 19 10 5 37 -9 17 -6 20 22 24 99 16 240 27 246 21 4
-4 1 -10 -7 -13 -23 -8 -52 -42 -45 -53 3 -6 17 -8 29 -5 14 3 27 1 31 -6 4
-7 3 -8 -4 -4 -15 9 -34 -2 -27 -15 4 -5 19 -2 36 6 26 14 29 20 27 58 l-3 42
105 12 c163 17 183 17 175 -6 -7 -24 11 -37 31 -20 10 9 18 9 25 2 8 -8 7 -11
-2 -10 -15 2 -19 -4 -19 -28 0 -22 28 -18 61 9 l28 24 -20 27 c-12 14 -20 28
-17 30 7 7 175 8 187 1 6 -4 11 -2 11 3 0 6 10 11 23 11 20 -1 20 -2 5 -11
-13 -7 -18 -23 -18 -59 0 -29 -5 -50 -11 -50 -5 0 -7 -5 -3 -12 6 -9 9 -9 12
0 2 7 9 12 16 12 7 0 27 15 45 34 27 28 33 40 28 63 l-6 29 77 12 c105 16 116
15 138 -10 15 -18 16 -20 2 -9 -17 12 -17 11 -12 -20 8 -39 21 -59 40 -59 17
0 34 32 34 64 0 28 -15 43 -23 24 -3 -8 -6 -6 -6 5 -1 9 -9 17 -18 18 -47 3
62 18 137 19 113 2 112 2 104 -12 -4 -6 1 -17 10 -23 14 -11 15 -13 1 -19 -8
-3 -15 -10 -15 -15 0 -18 32 -20 57 -4 21 14 24 22 20 50 l-6 33 47 1 c26 1
61 5 77 9 41 10 47 11 73 4z m-815 -24 c3 -11 1 -18 -4 -14 -5 3 -9 12 -9 20
0 20 7 17 13 -6z m587 -10 c0 -5 -4 -10 -10 -10 -5 0 -10 5 -10 10 0 6 5 10
10 10 6 0 10 -4 10 -10z m-2067 -64 c-3 -5 -2 -6 3 -3 6 3 16 2 24 -3 11 -7 6
-19 -26 -57 -46 -53 -54 -56 -209 -69 l-90 -7 50 44 c27 24 75 67 106 95 l56
52 46 -21 c25 -12 43 -26 40 -31z m1533 5 c0 -11 -3 -18 -7 -15 -4 2 -9 -3
-13 -11 -3 -8 -11 -15 -18 -15 -9 0 -10 3 -2 8 6 4 14 17 18 30 9 27 22 29 22
3z m-1364 -93 c-9 -8 -172 -26 -172 -18 0 3 15 22 33 42 l33 36 56 -26 c31
-15 54 -30 50 -34z m-2977 14 c-3 -3 -11 0 -18 7 -9 10 -8 11 6 5 10 -3 15 -9
12 -12z m26 -25 c-10 -9 -11 -8 -5 6 3 10 9 15 12 12 3 -3 0 -11 -7 -18z
m5093 8 c0 -5 -28 -25 -63 -42 -70 -37 -133 -43 -180 -18 -26 13 -32 12 -67
-5 -48 -25 -140 -27 -172 -4 -29 20 -19 34 24 34 20 0 88 9 152 20 162 27 169
28 242 26 36 0 65 -5 64 -11z m-5064 -45 c6 -11 8 -20 6 -20 -3 0 -10 9 -16
20 -6 11 -8 20 -6 20 3 0 10 -9 16 -20z m3304 2 c3 -5 -1 -9 -9 -9 -8 0 -12 4
-9 9 3 4 7 8 9 8 2 0 6 -4 9 -8z m1226 -27 c0 -59 -86 -96 -178 -77 -55 12
-102 37 -109 59 -3 7 30 13 89 18 51 4 111 11 133 15 62 12 65 12 65 -15z
m-385 -44 c-34 -67 -118 -91 -198 -57 -31 13 -74 52 -66 60 4 4 181 21 252 25
27 1 27 1 12 -28z m-1834 -24 c-10 -9 -11 -8 -5 6 3 10 9 15 12 12 3 -3 0 -11
-7 -18z m1557 -8 c2 -14 -4 -31 -13 -39 -25 -21 -103 -31 -147 -19 -38 10 -85
45 -74 56 6 6 193 32 216 29 8 0 16 -13 18 -27z m-268 -7 c0 -12 -40 -33 -51
-27 -5 4 -8 1 -7 -6 4 -19 -71 -41 -120 -36 -40 4 -92 37 -92 58 0 5 51 10
113 12 61 1 122 4 135 5 12 1 22 -1 22 -6z m-300 -26 c0 -23 -47 -54 -101 -65
-58 -13 -113 -2 -150 28 l-24 19 46 7 c41 6 167 20 212 24 9 0 17 -5 17 -13z
m-1676 -12 c3 -8 2 -12 -4 -9 -6 3 -10 10 -10 16 0 14 7 11 14 -7z m1361 -24
c-24 -27 -111 -43 -164 -31 -24 5 -45 11 -47 14 -3 2 44 10 103 16 59 7 110
14 112 17 14 14 11 1 -4 -16z m-1558 -52 c-3 -8 -6 -5 -6 6 -1 11 2 17 5 13 3
-3 4 -12 1 -19z m1213 8 c0 -39 -97 -81 -171 -74 -45 5 -99 36 -99 58 0 8 139
26 218 29 39 1 52 -3 52 -13z m-305 -35 c-3 -11 -26 -29 -51 -41 -49 -24 -96
-22 -146 8 -25 15 -29 15 -40 1 -30 -37 -62 -49 -129 -49 -69 0 -133 16 -123
31 3 5 -1 6 -9 3 -8 -3 -18 -1 -22 5 -4 7 3 11 17 12 13 0 131 13 263 28 132
15 242 26 243 25 2 -1 1 -12 -3 -23z m-2004 -88 c13 -16 12 -17 -3 -4 -10 7
-18 15 -18 17 0 8 8 3 21 -13z m154 -93 c3 -6 -1 -7 -9 -4 -18 7 -21 14 -7 14
6 0 13 -4 16 -10z m372 -136 c-3 -3 -12 -4 -19 -1 -8 3 -5 6 6 6 11 1 17 -2
13 -5z"/>
<path d="M2808 4303 c7 -3 16 -2 19 1 4 3 -2 6 -13 5 -11 0 -14 -3 -6 -6z"/>
<path d="M2510 4181 c0 -11 -12 -52 -26 -93 -36 -103 -37 -108 -28 -108 14 1
74 127 74 157 1 25 4 22 31 -27 31 -58 31 -47 0 34 -11 29 -21 43 -24 35 -4
-10 -6 -9 -6 4 -1 23 -21 22 -21 -2z"/>
<path d="M1459 4141 c20 -53 96 -161 114 -161 1 0 35 -32 76 -71 119 -115 103
-75 -39 96 -41 49 -81 96 -88 103 -7 8 -24 29 -38 48 -37 48 -47 42 -25 -15z
m45 -47 c3 -8 2 -12 -4 -9 -6 3 -10 10 -10 16 0 14 7 11 14 -7z m117 -141 c13
-16 12 -17 -3 -4 -17 13 -22 21 -14 21 2 0 10 -8 17 -17z"/>
<path d="M1919 4158 c-1 -13 -3 -45 -4 -71 -1 -26 0 -46 2 -43 10 9 19 127 11
132 -4 3 -9 -5 -9 -18z"/>
<path d="M2315 4152 c-35 -33 -65 -69 -49 -59 7 4 18 -1 25 -10 12 -15 12 -16
-3 -10 -11 4 -18 2 -18 -5 0 -6 -7 -20 -17 -30 -15 -17 -15 -17 13 -3 52 25
94 85 94 131 0 20 -11 17 -45 -14z m3 -36 c-10 -7 -14 -17 -10 -21 4 -5 1 -5
-7 0 -12 7 -11 10 4 22 24 17 36 17 13 -1z"/>
<path d="M2592 4130 c12 -16 23 -30 24 -30 2 0 -2 14 -7 30 -6 17 -17 30 -25
30 -11 0 -9 -8 8 -30z"/>
<path d="M2016 4093 c18 -111 65 -243 84 -243 4 0 7 13 7 30 0 16 -4 27 -9 24
-4 -3 -5 1 -2 9 3 8 -2 41 -11 72 -13 43 -20 54 -27 44 -8 -11 -9 -10 -4 4 6
20 -21 97 -36 97 -5 0 -6 -16 -2 -37z"/>
<path d="M6288 2303 c7 -3 16 -2 19 1 4 3 -2 6 -13 5 -11 0 -14 -3 -6 -6z"/>
<path d="M4730 2140 c-13 -8 -12 -10 3 -10 9 0 17 5 17 10 0 12 -1 12 -20 0z"/>
<path d="M3837 2049 c7 -7 15 -10 18 -7 3 3 -2 9 -12 12 -14 6 -15 5 -6 -5z"/>
<path d="M960 6931 c0 -5 9 -19 20 -32 l19 -24 -12 33 c-10 30 -27 44 -27 23z"/>
<path d="M7573 6278 c-18 -35 -42 -78 -53 -95 -12 -18 -18 -33 -13 -33 16 0
107 163 101 181 -2 5 -18 -18 -35 -53z"/>
</g>
</svg>
