<?xml version="1.0" standalone="no"?>
<!DOCTYPE svg PUBLIC "-//W3C//DTD SVG 1.1//EN" "http://www.w3.org/Graphics/SVG/1.1/DTD/svg11.dtd" >
<svg>
<metadata>
Created by FontForge 20090622 at Sat Feb 24 18:35:37 2018
 By deploy user
Copyright &#194;&#169; 2017 by Ani Petrova. All rights reserved.
</metadata>
<defs>
<font id="Vocal-Light" horiz-adv-x="0" >
  <font-face 
    font-family="Vocal Light"
    font-weight="300"
    font-stretch="normal"
    units-per-em="1000"
    panose-1="0 0 4 0 0 0 0 0 0 0"
    ascent="780"
    descent="-220"
    x-height="529"
    cap-height="734"
    bbox="-931 -280 1426 1153"
    underline-thickness="50"
    underline-position="-50"
    unicode-range="U+0020-U+277E"
  />
<missing-glyph horiz-adv-x="434" 
 />
    <glyph glyph-name="f_f" unicode="ff" horiz-adv-x="920" 
d="M231 675q-23 -30 -23 -93v-53h204l3 -6l-7 -48h-200v-106q0 -286 4 -362l-2 -7h-65l-2 7q4 76 4 362v106h-88v54h88v47q0 94 39 139t122 45q49 0 117 -17q0 -3 9 -52l-5 -7q-61 21 -120 21q-55 0 -78 -30zM686 675q-23 -30 -23 -93v-53h204l3 -6l-7 -48h-200v-106
q0 -286 4 -362l-2 -7h-65l-2 7q4 76 4 362v106h-88v54h88v47q0 94 39 139t122 45q49 0 117 -17q0 -3 9 -52l-5 -7q-61 21 -120 21q-55 0 -78 -30z" />
    <glyph glyph-name="f_f_i" unicode="ffi" horiz-adv-x="1169" 
d="M231 675q-23 -30 -23 -93v-53h204l3 -6l-7 -48h-200v-106q0 -286 4 -362l-2 -7h-65l-2 7q4 76 4 362v106h-88v54h88v47q0 94 39 139t122 45q49 0 117 -17q0 -3 9 -52l-5 -7q-61 21 -120 21q-55 0 -78 -30zM686 675q-23 -30 -23 -93v-53h204l3 -6l-7 -48h-200v-106
q0 -286 4 -362l-2 -7h-65l-2 7q4 76 4 362v106h-88v54h88v47q0 94 39 139t122 45q49 0 117 -17q0 -3 9 -52l-5 -7q-61 21 -120 21q-55 0 -78 -30zM1013.5 624.5q-12.5 12.5 -12.5 34.5t12.5 35t31.5 13q18 0 30.5 -13t12.5 -35t-12.5 -34.5t-30.5 -12.5q-19 0 -31.5 12.5z
M1010 7q4 100 4 257q0 158 -4 258l2 7h65l2 -7q-4 -67 -4 -258q0 -190 4 -257l-2 -7h-65z" />
    <glyph glyph-name="f_f_l" unicode="ffl" horiz-adv-x="1167" 
d="M231 675q-23 -30 -23 -93v-53h204l3 -6l-7 -48h-200v-106q0 -286 4 -362l-2 -7h-65l-2 7q4 76 4 362v106h-88v54h88v47q0 94 39 139t122 45q49 0 117 -17q0 -3 9 -52l-5 -7q-61 21 -120 21q-55 0 -78 -30zM686 675q-23 -30 -23 -93v-53h204l3 -6l-7 -48h-200v-106
q0 -286 4 -362l-2 -7h-65l-2 7q4 76 4 362v106h-88v54h88v47q0 94 39 139t122 45q49 0 117 -17q0 -3 9 -52l-5 -7q-61 21 -120 21q-55 0 -78 -30zM1009 7q5 70 5 232q0 85 -1 133q0 91 -1 131q0 192 -3 234l2 7h65l2 -7q-3 -42 -3 -234q-1 -40 -1 -131v-119q0 -187 4 -246
l-2 -7h-65z" />
    <glyph glyph-name=".notdef" horiz-adv-x="434" 
 />
    <glyph glyph-name="space" unicode=" " horiz-adv-x="317" 
 />
    <glyph glyph-name="A" unicode="A" horiz-adv-x="666" 
d="M650 7l-2 -7h-65l-69 182h-362l-69 -182h-65l-2 7l283 722l5 5h62l5 -5zM491 240l-116 305q-19 51 -32 89l-8 23h-2q-9 -28 -42 -112l-116 -305h316z" />
    <glyph glyph-name="Aacute" unicode="&#xc1;" horiz-adv-x="666" 
d="M650 7l-2 -7h-65l-69 182h-362l-69 -182h-65l-2 7l283 722l5 5h62l5 -5zM491 240l-116 305q-19 51 -32 89l-8 23h-2q-9 -28 -42 -112l-116 -305h316zM271 815q39 64 69 121h69l1 -7q-44 -65 -78 -121h-60z" />
    <glyph glyph-name="Abreve" unicode="&#x102;" horiz-adv-x="666" 
d="M650 7l-2 -7h-65l-69 182h-362l-69 -182h-65l-2 7l283 722l5 5h62l5 -5zM491 240l-116 305q-19 51 -32 89l-8 23h-2q-9 -28 -42 -112l-116 -305h316zM228 840.5q-38 32.5 -38 88.5l2 7h52l3 -7q-1 -34 23.5 -55t64.5 -21t64.5 21t23.5 55l3 7h52l2 -7q0 -56 -38 -88.5
t-107 -32.5t-107 32.5z" />
    <glyph glyph-name="Acircumflex" unicode="&#xc2;" horiz-adv-x="666" 
d="M650 7l-2 -7h-65l-69 182h-362l-69 -182h-65l-2 7l283 722l5 5h62l5 -5zM491 240l-116 305q-19 51 -32 89l-8 23h-2q-9 -28 -42 -112l-116 -305h316zM487 815l-2 -7h-67l-83 87l-83 -87h-67l-1 7q65 64 117 121h69q42 -48 117 -121z" />
    <glyph glyph-name="Adieresis" unicode="&#xc4;" horiz-adv-x="666" 
d="M650 7l-2 -7h-65l-69 182h-362l-69 -182h-65l-2 7l283 722l5 5h62l5 -5zM491 240l-116 305q-19 51 -32 89l-8 23h-2q-9 -28 -42 -112l-116 -305h316zM198.5 833.5q-12.5 12.5 -12.5 35.5q0 22 12.5 34.5t31.5 12.5t31.5 -12.5t12.5 -34.5q0 -23 -12.5 -35.5t-31.5 -12.5
t-31.5 12.5zM408.5 833.5q-12.5 12.5 -12.5 35.5q0 22 12.5 34.5t31.5 12.5t31.5 -12.5t12.5 -34.5q0 -23 -12.5 -35.5t-31.5 -12.5t-31.5 12.5z" />
    <glyph glyph-name="Agrave" unicode="&#xc0;" horiz-adv-x="666" 
d="M650 7l-2 -7h-65l-69 182h-362l-69 -182h-65l-2 7l283 722l5 5h62l5 -5zM491 240l-116 305q-19 51 -32 89l-8 23h-2q-9 -28 -42 -112l-116 -305h316zM326 808q-31 52 -77 121l1 7h69q21 -41 69 -121l-1 -7h-61z" />
    <glyph glyph-name="Amacron" unicode="&#x100;" horiz-adv-x="666" 
d="M650 7l-2 -7h-65l-69 182h-362l-69 -182h-65l-2 7l283 722l5 5h62l5 -5zM491 240l-116 305q-19 51 -32 89l-8 23h-2q-9 -28 -42 -112l-116 -305h316zM198 836v41h270l3 -6v-42h-271z" />
    <glyph glyph-name="Aogonek" unicode="&#x104;" horiz-adv-x="666" 
d="M650 7l-2 -7h-65l-69 182h-362l-69 -182h-65l-2 7l283 722l5 5h62l5 -5zM491 240l-116 305q-19 51 -32 89l-8 23h-2q-9 -28 -42 -112l-116 -305h316zM644 -202q-44 -18 -91 -18q-42 0 -64.5 18.5t-22.5 52.5q0 74 122 149h59q-62 -39 -91.5 -71.5t-29.5 -61.5
q0 -38 47 -38q17 0 38 5t36 12l3 -3z" />
    <glyph glyph-name="Aring" unicode="&#xc5;" horiz-adv-x="666" 
d="M650 7l-2 -7h-65l-69 182h-362l-69 -182h-65l-2 7l283 722l5 5h62l5 -5zM491 240l-116 305q-19 51 -32 89l-8 23h-2q-9 -28 -42 -112l-116 -305h316zM233 821q-36 22 -36 58t37 59t101 23q65 0 101 -22t36 -58t-37.5 -59t-100.5 -23q-65 0 -101 22zM396 847.5
q23 11.5 23 32.5t-23.5 32.5t-61.5 11.5t-61.5 -11.5t-23.5 -32.5t23.5 -32.5t61.5 -11.5q39 0 62 11.5z" />
    <glyph glyph-name="Aringacute" unicode="&#x1fa;" horiz-adv-x="666" 
d="M650 7l-2 -7h-65l-69 182h-362l-69 -182h-65l-2 7l283 722l5 5h62l5 -5zM491 240l-116 305q-19 51 -32 89l-8 23h-2q-9 -28 -42 -112l-116 -305h316zM233 821q-36 22 -36 58t37 59t101 23q65 0 101 -22t36 -58t-37.5 -59t-100.5 -23q-65 0 -101 22zM396 847.5
q23 11.5 23 32.5t-23.5 32.5t-61.5 11.5t-61.5 -11.5t-23.5 -32.5t23.5 -32.5t61.5 -11.5q39 0 62 11.5zM271 1032q39 64 69 121h69l1 -7q-44 -65 -78 -121h-60z" />
    <glyph glyph-name="Atilde" unicode="&#xc3;" horiz-adv-x="666" 
d="M650 7l-2 -7h-65l-69 182h-362l-69 -182h-65l-2 7l283 722l5 5h62l5 -5zM491 240l-116 305q-19 51 -32 89l-8 23h-2q-9 -28 -42 -112l-116 -305h316zM187 854q0 35 18.5 54.5t54.5 19.5q25 0 42.5 -9t40.5 -27q17 -14 29.5 -21t26.5 -7q17 0 25.5 10.5t8.5 27.5
q0 19 -8 32l3 7h47q11 -30 11 -53q0 -34 -19 -54t-54 -20q-25 0 -43.5 9.5t-40.5 27.5q-17 14 -29.5 20.5t-25.5 6.5q-17 0 -26 -10.5t-9 -27.5q0 -19 8 -32l-3 -7h-47q-10 27 -10 53z" />
    <glyph glyph-name="AE" unicode="&#xc6;" horiz-adv-x="975" 
d="M10 7l437 722l6 5h456l8 -52l-4 -7h-358l-2 -273h325v-59h-325v-101q0 -91 2 -183h370l3 -7l-7 -52h-434l-2 7q3 53 3 175h-301l-110 -182h-65zM489 240v340v51q0 33 1 50h-2l-48 -80l-220 -361h269z" />
    <glyph glyph-name="AEacute" unicode="&#x1fc;" horiz-adv-x="975" 
d="M10 7l437 722l6 5h456l8 -52l-4 -7h-358l-2 -273h325v-59h-325v-101q0 -91 2 -183h370l3 -7l-7 -52h-434l-2 7q3 53 3 175h-301l-110 -182h-65zM489 240v340v51q0 33 1 50h-2l-48 -80l-220 -361h269zM611 815q39 64 69 121h69l1 -7q-44 -65 -78 -121h-60z" />
    <glyph glyph-name="B" unicode="B" horiz-adv-x="651" 
d="M104 7q4 98 4 275v85v93q-2 214 -4 267l2 7h245q109 0 165.5 -44.5t56.5 -133.5q0 -68 -35 -112.5t-93 -57.5v-2q72 -12 115 -57.5t43 -117.5q0 -101 -63.5 -155t-181.5 -54h-252zM330 407q90 0 133.5 36t43.5 109q0 63 -40 93t-119 30h-174q-1 -74 -1 -268h157zM354 59
q184 0 184 149q0 71 -47.5 107t-140.5 36h-178v-92q0 -94 2 -200h180z" />
    <glyph glyph-name="C" unicode="C" horiz-adv-x="644" 
d="M156 85.5q-87 101.5 -87 282.5q0 119 39.5 205t114 131.5t176.5 45.5q95 0 175 -24q6 -36 8 -54l-4 -7q-78 26 -178 26q-128 0 -196.5 -83.5t-68.5 -240.5t69 -240.5t201 -83.5q104 0 183 26l4 -7q-7 -43 -8 -54q-80 -24 -182 -24q-159 0 -246 101.5z" />
    <glyph glyph-name="Cacute" unicode="&#x106;" horiz-adv-x="644" 
d="M156 85.5q-87 101.5 -87 282.5q0 119 39.5 205t114 131.5t176.5 45.5q95 0 175 -24q6 -36 8 -54l-4 -7q-78 26 -178 26q-128 0 -196.5 -83.5t-68.5 -240.5t69 -240.5t201 -83.5q104 0 183 26l4 -7q-7 -43 -8 -54q-80 -24 -182 -24q-159 0 -246 101.5zM321 831
q39 64 69 121h69l1 -7q-44 -65 -78 -121h-60z" />
    <glyph glyph-name="Ccaron" unicode="&#x10c;" horiz-adv-x="644" 
d="M156 85.5q-87 101.5 -87 282.5q0 119 39.5 205t114 131.5t176.5 45.5q95 0 175 -24q6 -36 8 -54l-4 -7q-78 26 -178 26q-128 0 -196.5 -83.5t-68.5 -240.5t69 -240.5t201 -83.5q104 0 183 26l4 -7q-7 -43 -8 -54q-80 -24 -182 -24q-159 0 -246 101.5zM351 824
q-52 57 -117 121l1 7h67l83 -87l83 87h67l2 -7q-75 -73 -117 -121h-69z" />
    <glyph glyph-name="Ccedilla" unicode="&#xc7;" horiz-adv-x="644" 
d="M156 85.5q-87 101.5 -87 282.5q0 119 39.5 205t114 131.5t176.5 45.5q95 0 175 -24q6 -36 8 -54l-4 -7q-78 26 -178 26q-128 0 -196.5 -83.5t-68.5 -240.5t69 -240.5t201 -83.5q104 0 183 26l4 -7q-7 -43 -8 -54q-80 -24 -182 -24q-159 0 -246 101.5zM348 -223
q-27 5 -43 11l-5 43l3 4q17 -8 41 -13t46 -5q30 0 46 9.5t16 28.5q0 23 -26 32t-89 8l-3 4l55 91h39l-39 -65q119 -1 119 -76q0 -36 -29 -56.5t-80 -20.5q-24 0 -51 5z" />
    <glyph glyph-name="Ccircumflex" unicode="&#x108;" horiz-adv-x="644" 
d="M156 85.5q-87 101.5 -87 282.5q0 119 39.5 205t114 131.5t176.5 45.5q95 0 175 -24q6 -36 8 -54l-4 -7q-78 26 -178 26q-128 0 -196.5 -83.5t-68.5 -240.5t69 -240.5t201 -83.5q104 0 183 26l4 -7q-7 -43 -8 -54q-80 -24 -182 -24q-159 0 -246 101.5zM537 831l-2 -7h-67
l-83 87l-83 -87h-67l-1 7q65 64 117 121h69q42 -48 117 -121z" />
    <glyph glyph-name="Cdotaccent" unicode="&#x10a;" horiz-adv-x="644" 
d="M156 85.5q-87 101.5 -87 282.5q0 119 39.5 205t114 131.5t176.5 45.5q95 0 175 -24q6 -36 8 -54l-4 -7q-78 26 -178 26q-128 0 -196.5 -83.5t-68.5 -240.5t69 -240.5t201 -83.5q104 0 183 26l4 -7q-7 -43 -8 -54q-80 -24 -182 -24q-159 0 -246 101.5zM353.5 847.5
q-12.5 12.5 -12.5 35.5q0 22 12.5 34.5t31.5 12.5t31.5 -12.5t12.5 -34.5q0 -23 -12.5 -35.5t-31.5 -12.5t-31.5 12.5z" />
    <glyph glyph-name="D" unicode="D" horiz-adv-x="763" 
d="M605.5 640.5q87.5 -93.5 87.5 -273.5t-89 -273.5t-266 -93.5h-232l-2 7q4 94 4 272v88v93q-2 214 -4 267l2 7h244q168 0 255.5 -93.5zM555.5 135q72.5 76 72.5 232q0 308 -282 308h-171q-1 -42 -1 -165q-1 -43 -1 -143q-1 -47 -1 -131q0 -111 3 -177h157q151 0 223.5 76z
" />
    <glyph glyph-name="Eth" unicode="&#xd0;" horiz-adv-x="763" 
d="M605.5 640.5q87.5 -93.5 87.5 -273.5t-89 -273.5t-266 -93.5h-232l-2 7q4 92 4 262v85h-104l-3 8v39h107v84q-2 192 -4 242l2 7h244q168 0 255.5 -93.5zM555.5 135q72.5 76 72.5 232q0 308 -282 308h-171q-1 -38 -1 -148q-1 -38 -1 -126h222l2 -7v-40h-224l-1 -129
q0 -103 3 -166h157q151 0 223.5 76z" />
    <glyph glyph-name="Dcaron" unicode="&#x10e;" horiz-adv-x="763" 
d="M605.5 640.5q87.5 -93.5 87.5 -273.5t-89 -273.5t-266 -93.5h-232l-2 7q4 94 4 272v88v93q-2 214 -4 267l2 7h244q168 0 255.5 -93.5zM555.5 135q72.5 76 72.5 232q0 308 -282 308h-171q-1 -42 -1 -165q-1 -43 -1 -143q-1 -47 -1 -131q0 -111 3 -177h157q151 0 223.5 76z
M298 808q-52 57 -117 121l1 7h67l83 -87l83 87h67l2 -7q-75 -73 -117 -121h-69z" />
    <glyph glyph-name="Dcroat" unicode="&#x110;" horiz-adv-x="763" 
d="M605.5 640.5q87.5 -93.5 87.5 -273.5t-89 -273.5t-266 -93.5h-232l-2 7q4 92 4 262v85h-104l-3 8v39h107v84q-2 192 -4 242l2 7h244q168 0 255.5 -93.5zM555.5 135q72.5 76 72.5 232q0 308 -282 308h-171q-1 -38 -1 -148q-1 -38 -1 -126h222l2 -7v-40h-224l-1 -129
q0 -103 3 -166h157q151 0 223.5 76z" />
    <glyph glyph-name="E" unicode="E" horiz-adv-x="591" 
d="M544 52l-8 -52h-430l-2 7q4 94 4 272v88v93q-2 214 -4 267l2 7h419l7 -52l-3 -7h-354q-1 -38 -1 -147q-1 -38 -1 -126h320v-59h-320l-1 -124q0 -98 3 -160h365z" />
    <glyph glyph-name="Eacute" unicode="&#xc9;" horiz-adv-x="591" 
d="M544 52l-8 -52h-430l-2 7q4 94 4 272v88v93q-2 214 -4 267l2 7h419l7 -52l-3 -7h-354q-1 -38 -1 -147q-1 -38 -1 -126h320v-59h-320l-1 -124q0 -98 3 -160h365zM249 815q39 64 69 121h69l1 -7q-44 -65 -78 -121h-60z" />
    <glyph glyph-name="Ecaron" unicode="&#x11a;" horiz-adv-x="591" 
d="M544 52l-8 -52h-430l-2 7q4 94 4 272v88v93q-2 214 -4 267l2 7h419l7 -52l-3 -7h-354q-1 -38 -1 -147q-1 -38 -1 -126h320v-59h-320l-1 -124q0 -98 3 -160h365zM279 808q-52 57 -117 121l1 7h67l83 -87l83 87h67l2 -7q-75 -73 -117 -121h-69z" />
    <glyph glyph-name="Ecircumflex" unicode="&#xca;" horiz-adv-x="591" 
d="M544 52l-8 -52h-430l-2 7q4 94 4 272v88v93q-2 214 -4 267l2 7h419l7 -52l-3 -7h-354q-1 -38 -1 -147q-1 -38 -1 -126h320v-59h-320l-1 -124q0 -98 3 -160h365zM465 815l-2 -7h-67l-83 87l-83 -87h-67l-1 7q65 64 117 121h69q42 -48 117 -121z" />
    <glyph glyph-name="Edieresis" unicode="&#xcb;" horiz-adv-x="591" 
d="M544 52l-8 -52h-430l-2 7q4 94 4 272v88v93q-2 214 -4 267l2 7h419l7 -52l-3 -7h-354q-1 -38 -1 -147q-1 -38 -1 -126h320v-59h-320l-1 -124q0 -98 3 -160h365zM176.5 833.5q-12.5 12.5 -12.5 35.5q0 22 12.5 34.5t31.5 12.5t31.5 -12.5t12.5 -34.5q0 -23 -12.5 -35.5
t-31.5 -12.5t-31.5 12.5zM386.5 833.5q-12.5 12.5 -12.5 35.5q0 22 12.5 34.5t31.5 12.5t31.5 -12.5t12.5 -34.5q0 -23 -12.5 -35.5t-31.5 -12.5t-31.5 12.5z" />
    <glyph glyph-name="Edotaccent" unicode="&#x116;" horiz-adv-x="591" 
d="M544 52l-8 -52h-430l-2 7q4 94 4 272v88v93q-2 214 -4 267l2 7h419l7 -52l-3 -7h-354q-1 -38 -1 -147q-1 -38 -1 -126h320v-59h-320l-1 -124q0 -98 3 -160h365zM281.5 831.5q-12.5 12.5 -12.5 35.5q0 22 12.5 34.5t31.5 12.5t31.5 -12.5t12.5 -34.5q0 -23 -12.5 -35.5
t-31.5 -12.5t-31.5 12.5z" />
    <glyph glyph-name="Egrave" unicode="&#xc8;" horiz-adv-x="591" 
d="M544 52l-8 -52h-430l-2 7q4 94 4 272v88v93q-2 214 -4 267l2 7h419l7 -52l-3 -7h-354q-1 -38 -1 -147q-1 -38 -1 -126h320v-59h-320l-1 -124q0 -98 3 -160h365zM304 808q-31 52 -77 121l1 7h69q21 -41 69 -121l-1 -7h-61z" />
    <glyph glyph-name="Emacron" unicode="&#x112;" horiz-adv-x="591" 
d="M544 52l-8 -52h-430l-2 7q4 94 4 272v88v93q-2 214 -4 267l2 7h419l7 -52l-3 -7h-354q-1 -38 -1 -147q-1 -38 -1 -126h320v-59h-320l-1 -124q0 -98 3 -160h365zM176 836v41h270l3 -6v-42h-271z" />
    <glyph glyph-name="Eogonek" unicode="&#x118;" horiz-adv-x="591" 
d="M544 52l-8 -52h-430l-2 7q4 94 4 272v88v93q-2 214 -4 267l2 7h419l7 -52l-3 -7h-354q-1 -38 -1 -147q-1 -38 -1 -126h320v-59h-320l-1 -124q0 -98 3 -160h365zM521 -202q-44 -18 -91 -18q-42 0 -64.5 18.5t-22.5 52.5q0 74 122 149h59q-62 -39 -91.5 -71.5t-29.5 -61.5
q0 -38 47 -38q17 0 38 5t36 12l3 -3z" />
    <glyph glyph-name="F" unicode="F" horiz-adv-x="560" 
d="M175 675q-1 -40 -1 -156q-1 -41 -1 -135h304v-59h-304q-1 -41 -1 -114q0 -141 5 -204l-2 -7h-69l-2 7q4 94 4 272v88v93q-2 214 -4 267l2 7h402l7 -52l-3 -7h-337z" />
    <glyph glyph-name="G" unicode="G" horiz-adv-x="741" 
d="M159.5 83.5q-90.5 99.5 -90.5 283.5t91.5 283.5t263.5 99.5q48 0 101 -7t92 -19q1 -11 8 -54l-4 -7q-38 13 -90 20.5t-100 7.5q-296 0 -296 -324q0 -162 73 -243t222 -81q39 0 84 5.5t79 14.5q2 90 2 133q0 45 -2 133h-185l-4 7q6 32 8 52h236l4 -6q-1 -59 -1 -178
t1 -178l-4 -7q-48 -17 -108.5 -26t-120.5 -9q-169 0 -259.5 99.5z" />
    <glyph glyph-name="Gbreve" unicode="&#x11e;" horiz-adv-x="741" 
d="M159.5 83.5q-90.5 99.5 -90.5 283.5t91.5 283.5t263.5 99.5q48 0 101 -7t92 -19q1 -11 8 -54l-4 -7q-38 13 -90 20.5t-100 7.5q-296 0 -296 -324q0 -162 73 -243t222 -81q39 0 84 5.5t79 14.5q2 90 2 133q0 45 -2 133h-185l-4 7q6 32 8 52h236l4 -6q-1 -59 -1 -178
t1 -178l-4 -7q-48 -17 -108.5 -26t-120.5 -9q-169 0 -259.5 99.5zM301 856.5q-38 32.5 -38 88.5l2 7h52l3 -7q-1 -34 23.5 -55t64.5 -21t64.5 21t23.5 55l3 7h52l2 -7q0 -56 -38 -88.5t-107 -32.5t-107 32.5z" />
    <glyph glyph-name="Gcommaaccent" unicode="&#x122;" horiz-adv-x="741" 
d="M159.5 83.5q-90.5 99.5 -90.5 283.5t91.5 283.5t263.5 99.5q48 0 101 -7t92 -19q1 -11 8 -54l-4 -7q-38 13 -90 20.5t-100 7.5q-296 0 -296 -324q0 -162 73 -243t222 -81q39 0 84 5.5t79 14.5q2 90 2 133q0 45 -2 133h-185l-4 7q6 32 8 52h236l4 -6q-1 -59 -1 -178
t1 -178l-4 -7q-48 -17 -108.5 -26t-120.5 -9q-169 0 -259.5 99.5zM385 -274q28 46 31 94q-18 1 -29 12t-11 32q0 19 12 33t34 14q23 0 35.5 -14t12.5 -40q0 -38 -9.5 -70t-29.5 -67h-42z" />
    <glyph glyph-name="Gdotaccent" unicode="&#x120;" horiz-adv-x="741" 
d="M159.5 83.5q-90.5 99.5 -90.5 283.5t91.5 283.5t263.5 99.5q48 0 101 -7t92 -19q1 -11 8 -54l-4 -7q-38 13 -90 20.5t-100 7.5q-296 0 -296 -324q0 -162 73 -243t222 -81q39 0 84 5.5t79 14.5q2 90 2 133q0 45 -2 133h-185l-4 7q6 32 8 52h236l4 -6q-1 -59 -1 -178
t1 -178l-4 -7q-48 -17 -108.5 -26t-120.5 -9q-169 0 -259.5 99.5zM376.5 847.5q-12.5 12.5 -12.5 35.5q0 22 12.5 34.5t31.5 12.5t31.5 -12.5t12.5 -34.5q0 -23 -12.5 -35.5t-31.5 -12.5t-31.5 12.5z" />
    <glyph glyph-name="H" unicode="H" horiz-adv-x="778" 
d="M670 281q0 -196 5 -274l-3 -7h-68l-3 7q5 75 5 256v79h-433q-1 -43 -1 -121q0 -147 5 -214l-2 -7h-69l-2 7q4 94 4 272v88v93q-2 214 -4 267l2 7h69l2 -7q-3 -39 -3 -211q-1 -36 -1 -116h433q-1 53 -1 143q0 24 -1 90t-3 94l3 7h68l3 -7q-2 -31 -3 -103.5t-1 -98.5
q0 -100 -1 -158v-86z" />
    <glyph glyph-name="Hbar" unicode="&#x126;" horiz-adv-x="778" 
d="M670 367v-86q0 -196 5 -274l-3 -7h-68l-3 7q5 75 5 256v79h-433q-1 -43 -1 -121q0 -147 5 -214l-2 -7h-69l-2 7q4 94 4 272v88l-1 187h-76l-2 7v38h78l-3 128l2 7h69l2 -7q-3 -40 -3 -128h430q0 88 -3 128l3 7h68l3 -7q-3 -40 -3 -128h75l3 -7v-38h-79q0 -117 -1 -187z
M174 554l-1 -154h433q-1 57 -1 154h-431z" />
    <glyph glyph-name="I" unicode="I" horiz-adv-x="281" 
d="M104 7q4 94 4 272v88v93q-2 214 -4 267l2 7h69l2 -7q-3 -42 -3 -232q-1 -39 -1 -128q-1 -47 -1 -130q0 -160 5 -230l-2 -7h-69z" />
    <glyph glyph-name="IJ" unicode="&#x132;" horiz-adv-x="562" 
d="M104 7q4 94 4 272v88v93q-2 214 -4 267l2 7h69l2 -7q-3 -42 -3 -232q-1 -39 -1 -128q-1 -47 -1 -130q0 -160 5 -230l-2 -7h-69zM347 -103q22 34 32 83t10 124v263q0 284 -4 360l2 7h69l2 -7q-4 -57 -4 -360v-265q0 -73 -8 -124t-28 -87h-69z" />
    <glyph glyph-name="Iacute" unicode="&#xcd;" horiz-adv-x="281" 
d="M104 7q4 94 4 272v88v93q-2 214 -4 267l2 7h69l2 -7q-3 -42 -3 -232q-1 -39 -1 -128q-1 -47 -1 -130q0 -160 5 -230l-2 -7h-69zM77 815q39 64 69 121h69l1 -7q-44 -65 -78 -121h-60z" />
    <glyph glyph-name="Ibreve" unicode="&#x12c;" horiz-adv-x="281" 
d="M104 7q4 94 4 272v88v93q-2 214 -4 267l2 7h69l2 -7q-3 -42 -3 -232q-1 -39 -1 -128q-1 -47 -1 -130q0 -160 5 -230l-2 -7h-69zM34 840.5q-38 32.5 -38 88.5l2 7h52l3 -7q-1 -34 23.5 -55t64.5 -21t64.5 21t23.5 55l3 7h52l2 -7q0 -56 -38 -88.5t-107 -32.5t-107 32.5z
" />
    <glyph glyph-name="Icircumflex" unicode="&#xce;" horiz-adv-x="281" 
d="M104 7q4 94 4 272v88v93q-2 214 -4 267l2 7h69l2 -7q-3 -42 -3 -232q-1 -39 -1 -128q-1 -47 -1 -130q0 -160 5 -230l-2 -7h-69zM293 815l-2 -7h-67l-83 87l-83 -87h-67l-1 7q65 64 117 121h69q42 -48 117 -121z" />
    <glyph glyph-name="Idieresis" unicode="&#xcf;" horiz-adv-x="281" 
d="M104 7q4 94 4 272v88v93q-2 214 -4 267l2 7h69l2 -7q-3 -42 -3 -232q-1 -39 -1 -128q-1 -47 -1 -130q0 -160 5 -230l-2 -7h-69zM4.5 833.5q-12.5 12.5 -12.5 35.5q0 22 12.5 34.5t31.5 12.5t31.5 -12.5t12.5 -34.5q0 -23 -12.5 -35.5t-31.5 -12.5t-31.5 12.5z
M214.5 833.5q-12.5 12.5 -12.5 35.5q0 22 12.5 34.5t31.5 12.5t31.5 -12.5t12.5 -34.5q0 -23 -12.5 -35.5t-31.5 -12.5t-31.5 12.5z" />
    <glyph glyph-name="Idotaccent" unicode="&#x130;" horiz-adv-x="281" 
d="M104 7q4 94 4 272v88v93q-2 214 -4 267l2 7h69l2 -7q-3 -42 -3 -232q-1 -39 -1 -128q-1 -47 -1 -130q0 -160 5 -230l-2 -7h-69zM109.5 831.5q-12.5 12.5 -12.5 35.5q0 22 12.5 34.5t31.5 12.5t31.5 -12.5t12.5 -34.5q0 -23 -12.5 -35.5t-31.5 -12.5t-31.5 12.5z" />
    <glyph glyph-name="Igrave" unicode="&#xcc;" horiz-adv-x="281" 
d="M104 7q4 94 4 272v88v93q-2 214 -4 267l2 7h69l2 -7q-3 -42 -3 -232q-1 -39 -1 -128q-1 -47 -1 -130q0 -160 5 -230l-2 -7h-69zM132 808q-31 52 -77 121l1 7h69q21 -41 69 -121l-1 -7h-61z" />
    <glyph glyph-name="Imacron" unicode="&#x12a;" horiz-adv-x="281" 
d="M104 7q4 94 4 272v88v93q-2 214 -4 267l2 7h69l2 -7q-3 -42 -3 -232q-1 -39 -1 -128q-1 -47 -1 -130q0 -160 5 -230l-2 -7h-69zM4 836v41h270l3 -6v-42h-271z" />
    <glyph glyph-name="Iogonek" unicode="&#x12e;" horiz-adv-x="281" 
d="M104 7q4 94 4 272v88v93q-2 214 -4 267l2 7h69l2 -7q-3 -42 -3 -232q-1 -39 -1 -128q-1 -47 -1 -130q0 -160 5 -230l-2 -7h-69zM172 -202q-44 -18 -91 -18q-42 0 -64.5 18.5t-22.5 52.5q0 74 122 149h59q-62 -39 -91.5 -71.5t-29.5 -61.5q0 -38 47 -38q17 0 38 5t36 12
l3 -3z" />
    <glyph glyph-name="Itilde" unicode="&#x128;" horiz-adv-x="281" 
d="M104 7q4 94 4 272v88v93q-2 214 -4 267l2 7h69l2 -7q-3 -42 -3 -232q-1 -39 -1 -128q-1 -47 -1 -130q0 -160 5 -230l-2 -7h-69zM-7 854q0 35 18.5 54.5t54.5 19.5q25 0 42.5 -9t40.5 -27q17 -14 29.5 -21t26.5 -7q17 0 25.5 10.5t8.5 27.5q0 19 -8 32l3 7h47
q11 -30 11 -53q0 -34 -19 -54t-54 -20q-25 0 -43.5 9.5t-40.5 27.5q-17 14 -29.5 20.5t-25.5 6.5q-17 0 -26 -10.5t-9 -27.5q0 -19 8 -32l-3 -7h-47q-10 27 -10 53z" />
    <glyph glyph-name="J" unicode="J" horiz-adv-x="281" 
d="M66 -103q22 34 32 83t10 124v263q0 284 -4 360l2 7h69l2 -7q-4 -57 -4 -360v-265q0 -73 -8 -124t-28 -87h-69z" />
    <glyph glyph-name="K" unicode="K" horiz-adv-x="668" 
d="M104 7q4 94 4 272v88v93q-2 214 -4 267l2 7h69l2 -7q-3 -39 -3 -208q-1 -35 -1 -114h117l261 329h76l3 -7l-279 -344l294 -376l-2 -7h-78l-274 347h-118q-1 -50 -1 -133q0 -147 5 -207l-2 -7h-69z" />
    <glyph glyph-name="Kcommaaccent" unicode="&#x136;" horiz-adv-x="668" 
d="M104 7q4 94 4 272v88v93q-2 214 -4 267l2 7h69l2 -7q-3 -39 -3 -208q-1 -35 -1 -114h117l261 329h76l3 -7l-279 -344l294 -376l-2 -7h-78l-274 347h-118q-1 -50 -1 -133q0 -147 5 -207l-2 -7h-69zM311 -259q28 46 31 94q-18 1 -29 12t-11 32q0 19 12 33t34 14
q23 0 35.5 -14t12.5 -40q0 -38 -9.5 -70t-29.5 -67h-42z" />
    <glyph glyph-name="L" unicode="L" horiz-adv-x="563" 
d="M543 52l-8 -52h-429l-2 7q4 94 4 272v88v93q-2 214 -4 267l2 7h69l2 -7q-3 -42 -3 -232q-1 -39 -1 -128q-1 -47 -1 -131q0 -111 3 -177h364z" />
    <glyph glyph-name="Lacute" unicode="&#x139;" horiz-adv-x="563" 
d="M543 52l-8 -52h-429l-2 7q4 94 4 272v88v93q-2 214 -4 267l2 7h69l2 -7q-3 -42 -3 -232q-1 -39 -1 -128q-1 -47 -1 -131q0 -111 3 -177h364zM80 815q39 64 69 121h69l1 -7q-44 -65 -78 -121h-60z" />
    <glyph glyph-name="Lcaron" unicode="&#x13d;" horiz-adv-x="563" 
d="M330 536l-2 7q17 115 26 207h55l3 -7q-26 -138 -37 -207h-45zM543 52l-8 -52h-429l-2 7q4 94 4 272v88v93q-2 214 -4 267l2 7h69l2 -7q-3 -42 -3 -232q-1 -39 -1 -128q-1 -47 -1 -131q0 -111 3 -177h364z" />
    <glyph glyph-name="Lcommaaccent" unicode="&#x13b;" horiz-adv-x="563" 
d="M543 52l-8 -52h-429l-2 7q4 94 4 272v88v93q-2 214 -4 267l2 7h69l2 -7q-3 -42 -3 -232q-1 -39 -1 -128q-1 -47 -1 -131q0 -111 3 -177h364zM295 -259q28 46 31 94q-18 1 -29 12t-11 32q0 19 12 33t34 14q23 0 35.5 -14t12.5 -40q0 -38 -9.5 -70t-29.5 -67h-42z" />
    <glyph glyph-name="Ldot" unicode="&#x13f;" horiz-adv-x="563" 
d="M543 52l-8 -52h-429l-2 7q4 94 4 272v88v93q-2 214 -4 267l2 7h69l2 -7q-3 -42 -3 -232q-1 -39 -1 -128q-1 -47 -1 -131q0 -111 3 -177h364zM401.5 350q-13.5 13 -13.5 36q0 22 13.5 35t31.5 13q19 0 32 -13t13 -35q0 -23 -13 -36t-32 -13q-18 0 -31.5 13z" />
    <glyph glyph-name="Lslash" unicode="&#x141;" horiz-adv-x="563" 
d="M543 52l-8 -52h-429l-2 7q4 88 4 255v82l-106 -50l-5 5v45l111 52v85q-2 195 -4 246l2 7h69l2 -7q-3 -37 -3 -194q-1 -33 -1 -106l216 101l4 -5v-45l-220 -104v-7q-1 -47 -1 -131q0 -111 3 -177h364z" />
    <glyph glyph-name="M" unicode="M" horiz-adv-x="906" 
d="M104 7q4 94 4 272v88v93q-2 214 -4 267l2 7h98l184 -336q11 -19 24 -44.5l19 -37.5q8 -14 22 -42h2l24 47l19 36.5l22 41.5l182 335h98l3 -7q-2 -31 -3 -103.5t-1 -98.5q0 -100 -1 -158v-86q0 -196 5 -274l-3 -7h-68l-3 7q5 78 5 275v85v50l1 149q1 34 1 91h-2
q-14 -28 -46 -84q-7 -14 -23 -42l-187 -339h-48l-191 342l-44 82l-22 41h-3q0 -27 1 -42q2 -132 2 -248q-1 -47 -1 -130q0 -160 5 -230l-2 -7h-69z" />
    <glyph glyph-name="N" unicode="N" horiz-adv-x="785" 
d="M104 7q4 94 4 271v89v93q-2 215 -4 267l2 7h99l326 -524l13 -21l68 -113h3q-2 100 -2 192l-1 99q0 89 -1 128q0 190 -3 232l2 7h69l2 -7q-2 -54 -4 -267v-93v-89q0 -177 4 -271l-2 -7h-96l-333 532l-76 126h-2l1 -291q-1 -47 -1 -131q0 -159 5 -229l-2 -7h-69z" />
    <glyph glyph-name="Nacute" unicode="&#x143;" horiz-adv-x="785" 
d="M104 7q4 94 4 271v89v93q-2 215 -4 267l2 7h99l326 -524l13 -21l68 -113h3q-2 100 -2 192l-1 99q0 89 -1 128q0 190 -3 232l2 7h69l2 -7q-2 -54 -4 -267v-93v-89q0 -177 4 -271l-2 -7h-96l-333 532l-76 126h-2l1 -291q-1 -47 -1 -131q0 -159 5 -229l-2 -7h-69zM329 815
q39 64 69 121h69l1 -7q-44 -65 -78 -121h-60z" />
    <glyph glyph-name="Ncaron" unicode="&#x147;" horiz-adv-x="785" 
d="M104 7q4 94 4 271v89v93q-2 215 -4 267l2 7h99l326 -524l13 -21l68 -113h3q-2 100 -2 192l-1 99q0 89 -1 128q0 190 -3 232l2 7h69l2 -7q-2 -54 -4 -267v-93v-89q0 -177 4 -271l-2 -7h-96l-333 532l-76 126h-2l1 -291q-1 -47 -1 -131q0 -159 5 -229l-2 -7h-69zM359 808
q-52 57 -117 121l1 7h67l83 -87l83 87h67l2 -7q-75 -73 -117 -121h-69z" />
    <glyph glyph-name="Ncommaaccent" unicode="&#x145;" horiz-adv-x="785" 
d="M104 7q4 94 4 271v89v93q-2 215 -4 267l2 7h99l326 -524l13 -21l68 -113h3q-2 100 -2 192l-1 99q0 89 -1 128q0 190 -3 232l2 7h69l2 -7q-2 -54 -4 -267v-93v-89q0 -177 4 -271l-2 -7h-96l-333 532l-76 126h-2l1 -291q-1 -47 -1 -131q0 -159 5 -229l-2 -7h-69zM357 -259
q28 46 31 94q-18 1 -29 12t-11 32q0 19 12 33t34 14q23 0 35.5 -14t12.5 -40q0 -38 -9.5 -70t-29.5 -67h-42z" />
    <glyph glyph-name="Eng" unicode="&#x14a;" horiz-adv-x="785" 
d="M582 -194q31 75 31 194h-30l-316 503l-93 155h-2l1 -291q-1 -47 -1 -131q0 -159 5 -229l-2 -7h-69l-2 7q4 94 4 271v89v93q-2 215 -4 267l2 7h99l318 -509l45 -74l44 -75h3q-2 55 -2 190q-1 33 -1 101q0 89 -1 128q0 190 -3 232l2 7h69l2 -7q-2 -54 -4 -267v-93v-369
q-2 -136 -32 -198h-61z" />
    <glyph glyph-name="Ntilde" unicode="&#xd1;" horiz-adv-x="785" 
d="M104 7q4 94 4 271v89v93q-2 215 -4 267l2 7h99l326 -524l13 -21l68 -113h3q-2 100 -2 192l-1 99q0 89 -1 128q0 190 -3 232l2 7h69l2 -7q-2 -54 -4 -267v-93v-89q0 -177 4 -271l-2 -7h-96l-333 532l-76 126h-2l1 -291q-1 -47 -1 -131q0 -159 5 -229l-2 -7h-69zM245 854
q0 35 18.5 54.5t54.5 19.5q25 0 42.5 -9t40.5 -27q17 -14 29.5 -21t26.5 -7q17 0 25.5 10.5t8.5 27.5q0 19 -8 32l3 7h47q11 -30 11 -53q0 -34 -19 -54t-54 -20q-25 0 -43.5 9.5t-40.5 27.5q-17 14 -29.5 20.5t-25.5 6.5q-17 0 -26 -10.5t-9 -27.5q0 -19 8 -32l-3 -7h-47
q-10 27 -10 53z" />
    <glyph glyph-name="O" unicode="O" horiz-adv-x="777" 
d="M216.5 31q-71.5 47 -109.5 133.5t-38 202.5t38 202.5t109.5 133.5t171.5 47t171.5 -47t109.5 -133.5t38 -202.5q0 -115 -39 -201.5t-111 -134t-169 -47.5q-100 0 -171.5 47zM574.5 129q65.5 85 65.5 238t-65.5 238t-186.5 85t-186.5 -85t-65.5 -238t65.5 -238t186.5 -85
t186.5 85z" />
    <glyph glyph-name="Oacute" unicode="&#xd3;" horiz-adv-x="777" 
d="M216.5 31q-71.5 47 -109.5 133.5t-38 202.5t38 202.5t109.5 133.5t171.5 47t171.5 -47t109.5 -133.5t38 -202.5q0 -115 -39 -201.5t-111 -134t-169 -47.5q-100 0 -171.5 47zM574.5 129q65.5 85 65.5 238t-65.5 238t-186.5 85t-186.5 -85t-65.5 -238t65.5 -238t186.5 -85
t186.5 85zM324 831q39 64 69 121h69l1 -7q-44 -65 -78 -121h-60z" />
    <glyph glyph-name="Obreve" unicode="&#x14e;" horiz-adv-x="777" 
d="M216.5 31q-71.5 47 -109.5 133.5t-38 202.5t38 202.5t109.5 133.5t171.5 47t171.5 -47t109.5 -133.5t38 -202.5q0 -115 -39 -201.5t-111 -134t-169 -47.5q-100 0 -171.5 47zM574.5 129q65.5 85 65.5 238t-65.5 238t-186.5 85t-186.5 -85t-65.5 -238t65.5 -238t186.5 -85
t186.5 85zM281 856.5q-38 32.5 -38 88.5l2 7h52l3 -7q-1 -34 23.5 -55t64.5 -21t64.5 21t23.5 55l3 7h52l2 -7q0 -56 -38 -88.5t-107 -32.5t-107 32.5z" />
    <glyph glyph-name="Ocircumflex" unicode="&#xd4;" horiz-adv-x="777" 
d="M216.5 31q-71.5 47 -109.5 133.5t-38 202.5t38 202.5t109.5 133.5t171.5 47t171.5 -47t109.5 -133.5t38 -202.5q0 -115 -39 -201.5t-111 -134t-169 -47.5q-100 0 -171.5 47zM574.5 129q65.5 85 65.5 238t-65.5 238t-186.5 85t-186.5 -85t-65.5 -238t65.5 -238t186.5 -85
t186.5 85zM540 831l-2 -7h-67l-83 87l-83 -87h-67l-1 7q65 64 117 121h69q42 -48 117 -121z" />
    <glyph glyph-name="Odieresis" unicode="&#xd6;" horiz-adv-x="777" 
d="M216.5 31q-71.5 47 -109.5 133.5t-38 202.5t38 202.5t109.5 133.5t171.5 47t171.5 -47t109.5 -133.5t38 -202.5q0 -115 -39 -201.5t-111 -134t-169 -47.5q-100 0 -171.5 47zM574.5 129q65.5 85 65.5 238t-65.5 238t-186.5 85t-186.5 -85t-65.5 -238t65.5 -238t186.5 -85
t186.5 85zM251.5 849.5q-12.5 12.5 -12.5 35.5q0 22 12.5 34.5t31.5 12.5t31.5 -12.5t12.5 -34.5q0 -23 -12.5 -35.5t-31.5 -12.5t-31.5 12.5zM461.5 849.5q-12.5 12.5 -12.5 35.5q0 22 12.5 34.5t31.5 12.5t31.5 -12.5t12.5 -34.5q0 -23 -12.5 -35.5t-31.5 -12.5
t-31.5 12.5z" />
    <glyph glyph-name="Ograve" unicode="&#xd2;" horiz-adv-x="777" 
d="M216.5 31q-71.5 47 -109.5 133.5t-38 202.5t38 202.5t109.5 133.5t171.5 47t171.5 -47t109.5 -133.5t38 -202.5q0 -115 -39 -201.5t-111 -134t-169 -47.5q-100 0 -171.5 47zM574.5 129q65.5 85 65.5 238t-65.5 238t-186.5 85t-186.5 -85t-65.5 -238t65.5 -238t186.5 -85
t186.5 85zM379 824q-31 52 -77 121l1 7h69q21 -41 69 -121l-1 -7h-61z" />
    <glyph glyph-name="Ohungarumlaut" unicode="&#x150;" horiz-adv-x="777" 
d="M216.5 31q-71.5 47 -109.5 133.5t-38 202.5t38 202.5t109.5 133.5t171.5 47t171.5 -47t109.5 -133.5t38 -202.5q0 -115 -39 -201.5t-111 -134t-169 -47.5q-100 0 -171.5 47zM574.5 129q65.5 85 65.5 238t-65.5 238t-186.5 85t-186.5 -85t-65.5 -238t65.5 -238t186.5 -85
t186.5 85zM238 831q22 47 53 121h67l1 -7q-35 -64 -63 -121h-57zM416 831q22 47 53 121h67l1 -7q-38 -68 -62 -121h-58z" />
    <glyph glyph-name="Omacron" unicode="&#x14c;" horiz-adv-x="777" 
d="M216.5 31q-71.5 47 -109.5 133.5t-38 202.5t38 202.5t109.5 133.5t171.5 47t171.5 -47t109.5 -133.5t38 -202.5q0 -115 -39 -201.5t-111 -134t-169 -47.5q-100 0 -171.5 47zM574.5 129q65.5 85 65.5 238t-65.5 238t-186.5 85t-186.5 -85t-65.5 -238t65.5 -238t186.5 -85
t186.5 85zM251 852v41h270l3 -6v-42h-271z" />
    <glyph glyph-name="Oslash" unicode="&#xd8;" horiz-adv-x="777" 
d="M216.5 31q-71.5 47 -109.5 133.5t-38 202.5t38 202.5t109.5 133.5t171.5 47t171.5 -47t109.5 -133.5t38 -202.5q0 -115 -39 -201.5t-111 -134t-169 -47.5q-100 0 -171.5 47zM574.5 129q65.5 85 65.5 238t-65.5 238t-186.5 85t-186.5 -85t-65.5 -238t65.5 -238t186.5 -85
t186.5 85zM65 12l609 740l37 -31l-610 -740z" />
    <glyph glyph-name="Oslashacute" unicode="&#x1fe;" horiz-adv-x="777" 
d="M216.5 31q-71.5 47 -109.5 133.5t-38 202.5t38 202.5t109.5 133.5t171.5 47t171.5 -47t109.5 -133.5t38 -202.5q0 -115 -39 -201.5t-111 -134t-169 -47.5q-100 0 -171.5 47zM574.5 129q65.5 85 65.5 238t-65.5 238t-186.5 85t-186.5 -85t-65.5 -238t65.5 -238t186.5 -85
t186.5 85zM65 12l609 740l37 -31l-610 -740zM324 831q39 64 69 121h69l1 -7q-44 -65 -78 -121h-60z" />
    <glyph glyph-name="Otilde" unicode="&#xd5;" horiz-adv-x="777" 
d="M216.5 31q-71.5 47 -109.5 133.5t-38 202.5t38 202.5t109.5 133.5t171.5 47t171.5 -47t109.5 -133.5t38 -202.5q0 -115 -39 -201.5t-111 -134t-169 -47.5q-100 0 -171.5 47zM574.5 129q65.5 85 65.5 238t-65.5 238t-186.5 85t-186.5 -85t-65.5 -238t65.5 -238t186.5 -85
t186.5 85zM240 870q0 35 18.5 54.5t54.5 19.5q25 0 42.5 -9t40.5 -27q17 -14 29.5 -21t26.5 -7q17 0 25.5 10.5t8.5 27.5q0 19 -8 32l3 7h47q11 -30 11 -53q0 -34 -19 -54t-54 -20q-25 0 -43.5 9.5t-40.5 27.5q-17 14 -29.5 20.5t-25.5 6.5q-17 0 -26 -10.5t-9 -27.5
q0 -19 8 -32l-3 -7h-47q-10 27 -10 53z" />
    <glyph glyph-name="OE" unicode="&#x152;" horiz-adv-x="1047" 
d="M220 30.5q-74 46.5 -112.5 133t-38.5 203.5t38.5 203.5t112.5 133t177 46.5q77 0 166 -16h418l8 -52l-4 -7h-358q-2 -162 -2 -273h324v-59h-324v-109q0 -130 1 -175h370l4 -7l-8 -52h-429q-89 -16 -166 -16q-103 0 -177 46.5zM558 59q2 146 2 308t-2 308q-84 16 -161 16
q-126 0 -194 -85t-68 -239t68 -239t194 -85q77 0 161 16z" />
    <glyph glyph-name="P" unicode="P" horiz-adv-x="630" 
d="M584 503q0 -115 -65.5 -175t-185.5 -60h-161q0 -184 5 -261l-2 -7h-69l-2 7q4 94 4 271v89v93q-2 214 -4 267l2 7h227q251 0 251 -231zM470.5 369q48.5 42 48.5 133q0 90 -47.5 131.5t-142.5 41.5h-154q-1 -42 -1 -165q-1 -43 -1 -143v-40h155q94 0 142.5 42z" />
    <glyph glyph-name="Thorn" unicode="&#xde;" horiz-adv-x="630" 
d="M584 379q0 -115 -65.5 -175t-185.5 -60h-160q0 -79 4 -137l-2 -7h-69l-2 7q4 94 4 271v89v93q-2 214 -4 267l2 7h69l2 -7q-3 -39 -3 -117h159q251 0 251 -231zM470.5 245q48.5 42 48.5 133q0 90 -47.5 131.5t-142.5 41.5h-155q-1 -53 -1 -184q-1 -61 -1 -164h156
q94 0 142.5 42z" />
    <glyph glyph-name="Q" unicode="Q" horiz-adv-x="780" 
d="M580 -32.5q-68 16.5 -191 16.5q-100 0 -172 47t-110 133.5t-38 202.5t38 202.5t109.5 133.5t171.5 47q99 0 171 -47t110 -133.5t38 -202.5q0 -128 -48 -221.5t-142 -121.5l1 -2q73 1 125.5 -10.5t95.5 -38.5l3 -8l-29 -59q-65 45 -133 61.5zM575 128q66 85 66 239
q0 153 -66 238.5t-187 85.5t-187 -85.5t-66 -238.5t66 -238.5t187 -85.5t187 85z" />
    <glyph glyph-name="R" unicode="R" horiz-adv-x="635" 
d="M104 7q4 94 4 271v89v93q-2 214 -4 267l2 7h231q244 0 244 -211q0 -86 -47 -140t-132 -68v-3q12 -15 39 -57l171 -248l-2 -7h-72l-208 307h-158q0 -215 5 -300l-2 -7h-69zM324 365q92 0 142 39t50 118q0 78 -46 115.5t-138 37.5h-157q-2 -68 -2 -310h151z" />
    <glyph glyph-name="Racute" unicode="&#x154;" horiz-adv-x="635" 
d="M104 7q4 94 4 271v89v93q-2 214 -4 267l2 7h231q244 0 244 -211q0 -86 -47 -140t-132 -68v-3q12 -15 39 -57l171 -248l-2 -7h-72l-208 307h-158q0 -215 5 -300l-2 -7h-69zM324 365q92 0 142 39t50 118q0 78 -46 115.5t-138 37.5h-157q-2 -68 -2 -310h151zM237 815
q39 64 69 121h69l1 -7q-44 -65 -78 -121h-60z" />
    <glyph glyph-name="Rcaron" unicode="&#x158;" horiz-adv-x="635" 
d="M104 7q4 94 4 271v89v93q-2 214 -4 267l2 7h231q244 0 244 -211q0 -86 -47 -140t-132 -68v-3q12 -15 39 -57l171 -248l-2 -7h-72l-208 307h-158q0 -215 5 -300l-2 -7h-69zM324 365q92 0 142 39t50 118q0 78 -46 115.5t-138 37.5h-157q-2 -68 -2 -310h151zM267 808
q-52 57 -117 121l1 7h67l83 -87l83 87h67l2 -7q-75 -73 -117 -121h-69z" />
    <glyph glyph-name="Rcommaaccent" unicode="&#x156;" horiz-adv-x="635" 
d="M104 7q4 94 4 271v89v93q-2 214 -4 267l2 7h231q244 0 244 -211q0 -86 -47 -140t-132 -68v-3q12 -15 39 -57l171 -248l-2 -7h-72l-208 307h-158q0 -215 5 -300l-2 -7h-69zM324 365q92 0 142 39t50 118q0 78 -46 115.5t-138 37.5h-157q-2 -68 -2 -310h151zM285 -259
q28 46 31 94q-18 1 -29 12t-11 32q0 19 12 33t34 14q23 0 35.5 -14t12.5 -40q0 -38 -9.5 -70t-29.5 -67h-42z" />
    <glyph glyph-name="S" unicode="S" horiz-adv-x="610" 
d="M88 18l-4.5 23t-4.5 30l4 9q108 -37 207 -37q92 0 137.5 32t45.5 98q0 63 -39.5 99t-136.5 67q-118 37 -170 87.5t-52 128.5q0 96 62.5 145.5t183.5 49.5q46 0 88 -6.5t96 -21.5q2 -21 8 -53l-4 -9q-92 31 -187 31q-91 0 -135.5 -31t-44.5 -94q0 -61 43.5 -101t142.5 -70
q113 -35 163.5 -86t50.5 -131q0 -94 -64.5 -144t-185.5 -50q-99 0 -204 34z" />
    <glyph glyph-name="Sacute" unicode="&#x15a;" horiz-adv-x="610" 
d="M88 18l-4.5 23t-4.5 30l4 9q108 -37 207 -37q92 0 137.5 32t45.5 98q0 63 -39.5 99t-136.5 67q-118 37 -170 87.5t-52 128.5q0 96 62.5 145.5t183.5 49.5q46 0 88 -6.5t96 -21.5q2 -21 8 -53l-4 -9q-92 31 -187 31q-91 0 -135.5 -31t-44.5 -94q0 -61 43.5 -101t142.5 -70
q113 -35 163.5 -86t50.5 -131q0 -94 -64.5 -144t-185.5 -50q-99 0 -204 34zM237 831q39 64 69 121h69l1 -7q-44 -65 -78 -121h-60z" />
    <glyph glyph-name="Scaron" unicode="&#x160;" horiz-adv-x="610" 
d="M88 18l-4.5 23t-4.5 30l4 9q108 -37 207 -37q92 0 137.5 32t45.5 98q0 63 -39.5 99t-136.5 67q-118 37 -170 87.5t-52 128.5q0 96 62.5 145.5t183.5 49.5q46 0 88 -6.5t96 -21.5q2 -21 8 -53l-4 -9q-92 31 -187 31q-91 0 -135.5 -31t-44.5 -94q0 -61 43.5 -101t142.5 -70
q113 -35 163.5 -86t50.5 -131q0 -94 -64.5 -144t-185.5 -50q-99 0 -204 34zM267 824q-52 57 -117 121l1 7h67l83 -87l83 87h67l2 -7q-75 -73 -117 -121h-69z" />
    <glyph glyph-name="Scedilla" unicode="&#x15e;" horiz-adv-x="610" 
d="M88 18l-4.5 23t-4.5 30l4 9q108 -37 207 -37q92 0 137.5 32t45.5 98q0 63 -39.5 99t-136.5 67q-118 37 -170 87.5t-52 128.5q0 96 62.5 145.5t183.5 49.5q46 0 88 -6.5t96 -21.5q2 -21 8 -53l-4 -9q-92 31 -187 31q-91 0 -135.5 -31t-44.5 -94q0 -61 43.5 -101t142.5 -70
q113 -35 163.5 -86t50.5 -131q0 -94 -64.5 -144t-185.5 -50q-99 0 -204 34zM252 -215q-27 5 -43 11l-5 43l3 4q17 -8 41 -13t46 -5q30 0 46 9.5t16 28.5q0 23 -26 32t-89 8l-3 4l55 91h39l-39 -65q119 -1 119 -76q0 -36 -29 -56.5t-80 -20.5q-24 0 -51 5z" />
    <glyph glyph-name="Scommaaccent" unicode="&#x218;" horiz-adv-x="610" 
d="M88 18l-4.5 23t-4.5 30l4 9q108 -37 207 -37q92 0 137.5 32t45.5 98q0 63 -39.5 99t-136.5 67q-118 37 -170 87.5t-52 128.5q0 96 62.5 145.5t183.5 49.5q46 0 88 -6.5t96 -21.5q2 -21 8 -53l-4 -9q-92 31 -187 31q-91 0 -135.5 -31t-44.5 -94q0 -61 43.5 -101t142.5 -70
q113 -35 163.5 -86t50.5 -131q0 -94 -64.5 -144t-185.5 -50q-99 0 -204 34zM267 -274q28 46 31 94q-18 1 -29 12t-11 32q0 19 12 33t34 14q23 0 35.5 -14t12.5 -40q0 -38 -9.5 -70t-29.5 -67h-42z" />
    <glyph glyph-name="uni1E9E" unicode="&#x1e9e;" horiz-adv-x="762" 
d="M632.5 365q61.5 -55 61.5 -154q0 -68 -28.5 -119.5t-81 -79.5t-122.5 -28q-53 0 -95 7t-92 23l-9 53l4 8q54 -18 94.5 -25t90.5 -7q80 0 125 44.5t45 123.5q0 77 -48.5 115t-148.5 38h-81l-3 7v39l184 265h-354q-2 -94 -2 -206q-1 -31 -1 -102v-90q0 -198 5 -270l-3 -7
h-67l-2 7q4 86 4 268v92v88q0 35 -1 136t-3 136l2 7h508v-46l-191 -268h31q117 0 178.5 -55z" />
    <glyph glyph-name="T" unicode="T" horiz-adv-x="611" 
d="M587 682l-3 -7h-244q-2 -74 -2 -308q-1 -47 -1 -130q0 -160 5 -230l-2 -7h-69l-2 7q4 94 4 272v88l-1 154q0 112 -1 154h-244l-4 7v52h564v-52z" />
    <glyph glyph-name="Tbar" unicode="&#x166;" horiz-adv-x="611" 
d="M587 734v-52l-3 -7h-244q-2 -61 -2 -240h151l3 -7v-40h-154v-21q-1 -47 -1 -130q0 -160 5 -230l-2 -7h-69l-2 7q4 94 4 272v88v21h-180l-2 7v40h182l-2 240h-244l-4 7v52h564z" />
    <glyph glyph-name="Tcaron" unicode="&#x164;" horiz-adv-x="611" 
d="M587 682l-3 -7h-244q-2 -74 -2 -308q-1 -47 -1 -130q0 -160 5 -230l-2 -7h-69l-2 7q4 94 4 272v88l-1 154q0 112 -1 154h-244l-4 7v52h564v-52zM272 808q-52 57 -117 121l1 7h67l83 -87l83 87h67l2 -7q-75 -73 -117 -121h-69z" />
    <glyph glyph-name="uni0162" unicode="&#x162;" horiz-adv-x="611" 
d="M587 734v-52l-3 -7h-244q-2 -74 -2 -308q-1 -47 -1 -130q0 -160 5 -230l-2 -7h-7l-40 -68q60 -1 89 -19.5t29 -55.5t-29 -57t-80 -20q-25 0 -52 4.5t-41 11.5l-6 43l3 3q18 -8 42 -12.5t46 -4.5q29 0 45 9.5t16 27.5q0 23 -26 32t-89 8l-3 5l57 93h-23l-2 7q4 94 4 272
v88l-1 154q0 112 -1 154h-244l-4 7v52h564z" />
    <glyph glyph-name="uni021A" unicode="&#x21a;" horiz-adv-x="611" 
d="M587 682l-3 -7h-244q-2 -74 -2 -308q-1 -47 -1 -130q0 -160 5 -230l-2 -7h-69l-2 7q4 94 4 272v88l-1 154q0 112 -1 154h-244l-4 7v52h564v-52zM269 -259q28 46 31 94q-18 1 -29 12t-11 32q0 19 12 33t34 14q23 0 35.5 -14t12.5 -40q0 -38 -9.5 -70t-29.5 -67h-42z" />
    <glyph glyph-name="U" unicode="U" horiz-adv-x="776" 
d="M169.5 73q-66.5 89 -66.5 271q0 308 -4 383l2 7h69l2 -7q-4 -57 -4 -256v-124q0 -155 49.5 -229.5t170.5 -74.5t170.5 74t49.5 230v124q0 199 -4 256l2 7h69l2 -7q-4 -75 -4 -383q0 -182 -66.5 -271t-218.5 -89t-218.5 89z" />
    <glyph glyph-name="Uacute" unicode="&#xda;" horiz-adv-x="776" 
d="M169.5 73q-66.5 89 -66.5 271q0 308 -4 383l2 7h69l2 -7q-4 -57 -4 -256v-124q0 -155 49.5 -229.5t170.5 -74.5t170.5 74t49.5 230v124q0 199 -4 256l2 7h69l2 -7q-4 -75 -4 -383q0 -182 -66.5 -271t-218.5 -89t-218.5 89zM324 815q39 64 69 121h69l1 -7
q-44 -65 -78 -121h-60z" />
    <glyph glyph-name="Ubreve" unicode="&#x16c;" horiz-adv-x="776" 
d="M169.5 73q-66.5 89 -66.5 271q0 308 -4 383l2 7h69l2 -7q-4 -57 -4 -256v-124q0 -155 49.5 -229.5t170.5 -74.5t170.5 74t49.5 230v124q0 199 -4 256l2 7h69l2 -7q-4 -75 -4 -383q0 -182 -66.5 -271t-218.5 -89t-218.5 89zM281 840.5q-38 32.5 -38 88.5l2 7h52l3 -7
q-1 -34 23.5 -55t64.5 -21t64.5 21t23.5 55l3 7h52l2 -7q0 -56 -38 -88.5t-107 -32.5t-107 32.5z" />
    <glyph glyph-name="Ucircumflex" unicode="&#xdb;" horiz-adv-x="776" 
d="M169.5 73q-66.5 89 -66.5 271q0 308 -4 383l2 7h69l2 -7q-4 -57 -4 -256v-124q0 -155 49.5 -229.5t170.5 -74.5t170.5 74t49.5 230v124q0 199 -4 256l2 7h69l2 -7q-4 -75 -4 -383q0 -182 -66.5 -271t-218.5 -89t-218.5 89zM540 815l-2 -7h-67l-83 87l-83 -87h-67l-1 7
q65 64 117 121h69q42 -48 117 -121z" />
    <glyph glyph-name="Udieresis" unicode="&#xdc;" horiz-adv-x="776" 
d="M169.5 73q-66.5 89 -66.5 271q0 308 -4 383l2 7h69l2 -7q-4 -57 -4 -256v-124q0 -155 49.5 -229.5t170.5 -74.5t170.5 74t49.5 230v124q0 199 -4 256l2 7h69l2 -7q-4 -75 -4 -383q0 -182 -66.5 -271t-218.5 -89t-218.5 89zM251.5 833.5q-12.5 12.5 -12.5 35.5
q0 22 12.5 34.5t31.5 12.5t31.5 -12.5t12.5 -34.5q0 -23 -12.5 -35.5t-31.5 -12.5t-31.5 12.5zM461.5 833.5q-12.5 12.5 -12.5 35.5q0 22 12.5 34.5t31.5 12.5t31.5 -12.5t12.5 -34.5q0 -23 -12.5 -35.5t-31.5 -12.5t-31.5 12.5z" />
    <glyph glyph-name="Ugrave" unicode="&#xd9;" horiz-adv-x="776" 
d="M169.5 73q-66.5 89 -66.5 271q0 308 -4 383l2 7h69l2 -7q-4 -57 -4 -256v-124q0 -155 49.5 -229.5t170.5 -74.5t170.5 74t49.5 230v124q0 199 -4 256l2 7h69l2 -7q-4 -75 -4 -383q0 -182 -66.5 -271t-218.5 -89t-218.5 89zM379 808q-31 52 -77 121l1 7h69q21 -41 69 -121
l-1 -7h-61z" />
    <glyph glyph-name="Uhungarumlaut" unicode="&#x170;" horiz-adv-x="776" 
d="M169.5 73q-66.5 89 -66.5 271q0 308 -4 383l2 7h69l2 -7q-4 -57 -4 -256v-124q0 -155 49.5 -229.5t170.5 -74.5t170.5 74t49.5 230v124q0 199 -4 256l2 7h69l2 -7q-4 -75 -4 -383q0 -182 -66.5 -271t-218.5 -89t-218.5 89zM238 815q22 47 53 121h67l1 -7
q-35 -64 -63 -121h-57zM416 815q22 47 53 121h67l1 -7q-38 -68 -62 -121h-58z" />
    <glyph glyph-name="Umacron" unicode="&#x16a;" horiz-adv-x="776" 
d="M169.5 73q-66.5 89 -66.5 271q0 308 -4 383l2 7h69l2 -7q-4 -57 -4 -256v-124q0 -155 49.5 -229.5t170.5 -74.5t170.5 74t49.5 230v124q0 199 -4 256l2 7h69l2 -7q-4 -75 -4 -383q0 -182 -66.5 -271t-218.5 -89t-218.5 89zM251 836v41h270l3 -6v-42h-271z" />
    <glyph glyph-name="Uogonek" unicode="&#x172;" horiz-adv-x="776" 
d="M677 727q-4 -75 -4 -383q0 -112 -24 -188t-77 -118q-55 -52 -84 -92t-29 -79q0 -38 47 -38q18 0 39 5t36 12l3 -3l-6 -45q-20 -8 -45 -13t-46 -5q-43 0 -65.5 18.5t-22.5 52.5q0 67 71 141q-40 -8 -82 -8q-152 0 -218.5 89t-66.5 271q0 308 -4 383l2 7h69l2 -7
q-4 -57 -4 -256v-124q0 -155 49.5 -229.5t170.5 -74.5t170.5 74t49.5 230v124q0 199 -4 256l2 7h69z" />
    <glyph glyph-name="Uring" unicode="&#x16e;" horiz-adv-x="776" 
d="M169.5 73q-66.5 89 -66.5 271q0 308 -4 383l2 7h69l2 -7q-4 -57 -4 -256v-124q0 -155 49.5 -229.5t170.5 -74.5t170.5 74t49.5 230v124q0 199 -4 256l2 7h69l2 -7q-4 -75 -4 -383q0 -182 -66.5 -271t-218.5 -89t-218.5 89zM286 821q-36 22 -36 58t37 59t101 23
q65 0 101 -22t36 -58t-37.5 -59t-100.5 -23q-65 0 -101 22zM449 847.5q23 11.5 23 32.5t-23.5 32.5t-61.5 11.5t-61.5 -11.5t-23.5 -32.5t23.5 -32.5t61.5 -11.5q39 0 62 11.5z" />
    <glyph glyph-name="Utilde" unicode="&#x168;" horiz-adv-x="776" 
d="M169.5 73q-66.5 89 -66.5 271q0 308 -4 383l2 7h69l2 -7q-4 -57 -4 -256v-124q0 -155 49.5 -229.5t170.5 -74.5t170.5 74t49.5 230v124q0 199 -4 256l2 7h69l2 -7q-4 -75 -4 -383q0 -182 -66.5 -271t-218.5 -89t-218.5 89zM240 854q0 35 18.5 54.5t54.5 19.5
q25 0 42.5 -9t40.5 -27q17 -14 29.5 -21t26.5 -7q17 0 25.5 10.5t8.5 27.5q0 19 -8 32l3 7h47q11 -30 11 -53q0 -34 -19 -54t-54 -20q-25 0 -43.5 9.5t-40.5 27.5q-17 14 -29.5 20.5t-25.5 6.5q-17 0 -26 -10.5t-9 -27.5q0 -19 8 -32l-3 -7h-47q-10 27 -10 53z" />
    <glyph glyph-name="V" unicode="V" horiz-adv-x="667" 
d="M296 5l-280 722l2 7h67l206 -544q23 -62 40 -113h3q13 39 41 111l208 546h66l2 -7l-283 -722l-5 -5h-62z" />
    <glyph glyph-name="W" unicode="W" horiz-adv-x="1002" 
d="M230 5l-208 722l2 7h66l138 -503l41 -152h2l48 153l153 502h58l155 -501l47 -154h2l45 167l132 488h67l3 -7l-210 -722l-5 -5h-71l-150 486q-20 60 -43 137h-2l-46 -146l-150 -477h-69z" />
    <glyph glyph-name="Wacute" unicode="&#x1e82;" horiz-adv-x="1002" 
d="M230 5l-208 722l2 7h66l138 -503l41 -152h2l48 153l153 502h58l155 -501l47 -154h2l45 167l132 488h67l3 -7l-210 -722l-5 -5h-71l-150 486q-20 60 -43 137h-2l-46 -146l-150 -477h-69zM437 815q39 64 69 121h69l1 -7q-44 -65 -78 -121h-60z" />
    <glyph glyph-name="Wcircumflex" unicode="&#x174;" horiz-adv-x="1002" 
d="M230 5l-208 722l2 7h66l138 -503l41 -152h2l48 153l153 502h58l155 -501l47 -154h2l45 167l132 488h67l3 -7l-210 -722l-5 -5h-71l-150 486q-20 60 -43 137h-2l-46 -146l-150 -477h-69zM653 815l-2 -7h-67l-83 87l-83 -87h-67l-1 7q65 64 117 121h69q42 -48 117 -121z
" />
    <glyph glyph-name="Wdieresis" unicode="&#x1e84;" horiz-adv-x="1002" 
d="M230 5l-208 722l2 7h66l138 -503l41 -152h2l48 153l153 502h58l155 -501l47 -154h2l45 167l132 488h67l3 -7l-210 -722l-5 -5h-71l-150 486q-20 60 -43 137h-2l-46 -146l-150 -477h-69zM364.5 833.5q-12.5 12.5 -12.5 35.5q0 22 12.5 34.5t31.5 12.5t31.5 -12.5
t12.5 -34.5q0 -23 -12.5 -35.5t-31.5 -12.5t-31.5 12.5zM574.5 833.5q-12.5 12.5 -12.5 35.5q0 22 12.5 34.5t31.5 12.5t31.5 -12.5t12.5 -34.5q0 -23 -12.5 -35.5t-31.5 -12.5t-31.5 12.5z" />
    <glyph glyph-name="Wgrave" unicode="&#x1e80;" horiz-adv-x="1002" 
d="M230 5l-208 722l2 7h66l138 -503l41 -152h2l48 153l153 502h58l155 -501l47 -154h2l45 167l132 488h67l3 -7l-210 -722l-5 -5h-71l-150 486q-20 60 -43 137h-2l-46 -146l-150 -477h-69zM492 808q-31 52 -77 121l1 7h69q21 -41 69 -121l-1 -7h-61z" />
    <glyph glyph-name="X" unicode="X" horiz-adv-x="699" 
d="M20 8l287 370l-263 349l2 7h73l230 -311h2l230 311h71l3 -7l-264 -349l288 -371l-2 -7h-73l-255 333h-1l-253 -333h-73z" />
    <glyph glyph-name="Y" unicode="Y" horiz-adv-x="640" 
d="M283 7q4 49 4 195v94l-271 431l2 7h71l166 -270l25 -41q16 -28 40 -66h2l68 110l165 267h67l3 -8l-273 -431v-72q0 -136 4 -216l-2 -7h-69z" />
    <glyph glyph-name="Yacute" unicode="&#xdd;" horiz-adv-x="640" 
d="M283 7q4 49 4 195v94l-271 431l2 7h71l166 -270l25 -41q16 -28 40 -66h2l68 110l165 267h67l3 -8l-273 -431v-72q0 -136 4 -216l-2 -7h-69zM256 815q39 64 69 121h69l1 -7q-44 -65 -78 -121h-60z" />
    <glyph glyph-name="Ycircumflex" unicode="&#x176;" horiz-adv-x="640" 
d="M283 7q4 49 4 195v94l-271 431l2 7h71l166 -270l25 -41q16 -28 40 -66h2l68 110l165 267h67l3 -8l-273 -431v-72q0 -136 4 -216l-2 -7h-69zM472 815l-2 -7h-67l-83 87l-83 -87h-67l-1 7q65 64 117 121h69q42 -48 117 -121z" />
    <glyph glyph-name="Ydieresis" unicode="&#x178;" horiz-adv-x="640" 
d="M283 7q4 49 4 195v94l-271 431l2 7h71l166 -270l25 -41q16 -28 40 -66h2l68 110l165 267h67l3 -8l-273 -431v-72q0 -136 4 -216l-2 -7h-69zM183.5 833.5q-12.5 12.5 -12.5 35.5q0 22 12.5 34.5t31.5 12.5t31.5 -12.5t12.5 -34.5q0 -23 -12.5 -35.5t-31.5 -12.5
t-31.5 12.5zM393.5 833.5q-12.5 12.5 -12.5 35.5q0 22 12.5 34.5t31.5 12.5t31.5 -12.5t12.5 -34.5q0 -23 -12.5 -35.5t-31.5 -12.5t-31.5 12.5z" />
    <glyph glyph-name="Ygrave" unicode="&#x1ef2;" horiz-adv-x="640" 
d="M283 7q4 49 4 195v94l-271 431l2 7h71l166 -270l25 -41q16 -28 40 -66h2l68 110l165 267h67l3 -8l-273 -431v-72q0 -136 4 -216l-2 -7h-69zM311 808q-31 52 -77 121l1 7h69q21 -41 69 -121l-1 -7h-61z" />
    <glyph glyph-name="Z" unicode="Z" horiz-adv-x="642" 
d="M45 7v39l400 539l42 54l27 35l-1 1h-101h-343l-4 7l8 52h528v-46l-401 -541l-67 -87v-1h107h358l3 -7l-7 -52h-547z" />
    <glyph glyph-name="Zacute" unicode="&#x179;" horiz-adv-x="642" 
d="M45 7v39l400 539l42 54l27 35l-1 1h-101h-343l-4 7l8 52h528v-46l-401 -541l-67 -87v-1h107h358l3 -7l-7 -52h-547zM263 815q39 64 69 121h69l1 -7q-44 -65 -78 -121h-60z" />
    <glyph glyph-name="Zcaron" unicode="&#x17d;" horiz-adv-x="642" 
d="M45 7v39l400 539l42 54l27 35l-1 1h-101h-343l-4 7l8 52h528v-46l-401 -541l-67 -87v-1h107h358l3 -7l-7 -52h-547zM293 808q-52 57 -117 121l1 7h67l83 -87l83 87h67l2 -7q-75 -73 -117 -121h-69z" />
    <glyph glyph-name="Zdotaccent" unicode="&#x17b;" horiz-adv-x="642" 
d="M45 7v39l400 539l42 54l27 35l-1 1h-101h-343l-4 7l8 52h528v-46l-401 -541l-67 -87v-1h107h358l3 -7l-7 -52h-547zM295.5 831.5q-12.5 12.5 -12.5 35.5q0 22 12.5 34.5t31.5 12.5t31.5 -12.5t12.5 -34.5q0 -23 -12.5 -35.5t-31.5 -12.5t-31.5 12.5z" />
    <glyph glyph-name="a" unicode="a" horiz-adv-x="554" 
d="M464 7l-2 -7h-60l-3 6l1 83l-3 1q-30 -50 -80 -78t-113 -28q-71 0 -110 39.5t-39 112.5q0 177 214 177q44 0 130 -11v55q0 72 -31 102.5t-104 30.5q-72 0 -158 -26l-3 6l10 53q96 22 164 22q94 0 138.5 -42.5t44.5 -134.5v-96q0 -221 4 -265zM311 61q41 22 64.5 58
t23.5 77v56q-66 13 -130 13q-76 -2 -113.5 -32t-37.5 -93q0 -50 26 -75.5t77 -25.5q49 0 90 22z" />
    <glyph glyph-name="aacute" unicode="&#xe1;" horiz-adv-x="554" 
d="M464 7l-2 -7h-60l-3 6l1 83l-3 1q-30 -50 -80 -78t-113 -28q-71 0 -110 39.5t-39 112.5q0 177 214 177q44 0 130 -11v55q0 72 -31 102.5t-104 30.5q-72 0 -158 -26l-3 6l10 53q96 22 164 22q94 0 138.5 -42.5t44.5 -134.5v-96q0 -221 4 -265zM311 61q41 22 64.5 58
t23.5 77v56q-66 13 -130 13q-76 -2 -113.5 -32t-37.5 -93q0 -50 26 -75.5t77 -25.5q49 0 90 22zM206 626q42 71 75 133h68l1 -7q-35 -51 -84 -133h-59z" />
    <glyph glyph-name="abreve" unicode="&#x103;" horiz-adv-x="554" 
d="M464 7l-2 -7h-60l-3 6l1 83l-3 1q-30 -50 -80 -78t-113 -28q-71 0 -110 39.5t-39 112.5q0 177 214 177q44 0 130 -11v55q0 72 -31 102.5t-104 30.5q-72 0 -158 -26l-3 6l10 53q96 22 164 22q94 0 138.5 -42.5t44.5 -134.5v-96q0 -221 4 -265zM311 61q41 22 64.5 58
t23.5 77v56q-66 13 -130 13q-76 -2 -113.5 -32t-37.5 -93q0 -50 26 -75.5t77 -25.5q49 0 90 22zM163 654q-38 35 -38 98l2 7h52l3 -7q-1 -40 23 -64t65 -24t65 24t23 64l3 7h52l2 -7q0 -63 -38 -98t-107 -35t-107 35z" />
    <glyph glyph-name="acircumflex" unicode="&#xe2;" horiz-adv-x="554" 
d="M464 7l-2 -7h-60l-3 6l1 83l-3 1q-30 -50 -80 -78t-113 -28q-71 0 -110 39.5t-39 112.5q0 177 214 177q44 0 130 -11v55q0 72 -31 102.5t-104 30.5q-72 0 -158 -26l-3 6l10 53q96 22 164 22q94 0 138.5 -42.5t44.5 -134.5v-96q0 -221 4 -265zM311 61q41 22 64.5 58
t23.5 77v56q-66 13 -130 13q-76 -2 -113.5 -32t-37.5 -93q0 -50 26 -75.5t77 -25.5q49 0 90 22zM432 626l-2 -7h-67l-93 98l-93 -98h-67l-1 7l127 133h69z" />
    <glyph glyph-name="adieresis" unicode="&#xe4;" horiz-adv-x="554" 
d="M464 7l-2 -7h-60l-3 6l1 83l-3 1q-30 -50 -80 -78t-113 -28q-71 0 -110 39.5t-39 112.5q0 177 214 177q44 0 130 -11v55q0 72 -31 102.5t-104 30.5q-72 0 -158 -26l-3 6l10 53q96 22 164 22q94 0 138.5 -42.5t44.5 -134.5v-96q0 -221 4 -265zM311 61q41 22 64.5 58
t23.5 77v56q-66 13 -130 13q-76 -2 -113.5 -32t-37.5 -93q0 -50 26 -75.5t77 -25.5q49 0 90 22zM133.5 640.5q-12.5 12.5 -12.5 35.5q0 22 12.5 34.5t31.5 12.5t31.5 -12.5t12.5 -34.5q0 -23 -12.5 -35.5t-31.5 -12.5t-31.5 12.5zM343.5 640.5q-12.5 12.5 -12.5 35.5
q0 22 12.5 34.5t31.5 12.5t31.5 -12.5t12.5 -34.5q0 -23 -12.5 -35.5t-31.5 -12.5t-31.5 12.5z" />
    <glyph glyph-name="agrave" unicode="&#xe0;" horiz-adv-x="554" 
d="M464 7l-2 -7h-60l-3 6l1 83l-3 1q-30 -50 -80 -78t-113 -28q-71 0 -110 39.5t-39 112.5q0 177 214 177q44 0 130 -11v55q0 72 -31 102.5t-104 30.5q-72 0 -158 -26l-3 6l10 53q96 22 164 22q94 0 138.5 -42.5t44.5 -134.5v-96q0 -221 4 -265zM311 61q41 22 64.5 58
t23.5 77v56q-66 13 -130 13q-76 -2 -113.5 -32t-37.5 -93q0 -50 26 -75.5t77 -25.5q49 0 90 22zM179 752l1 7h68q23 -45 75 -133l-1 -7h-59q-37 62 -84 133z" />
    <glyph glyph-name="amacron" unicode="&#x101;" horiz-adv-x="554" 
d="M464 7l-2 -7h-60l-3 6l1 83l-3 1q-30 -50 -80 -78t-113 -28q-71 0 -110 39.5t-39 112.5q0 177 214 177q44 0 130 -11v55q0 72 -31 102.5t-104 30.5q-72 0 -158 -26l-3 6l10 53q96 22 164 22q94 0 138.5 -42.5t44.5 -134.5v-96q0 -221 4 -265zM311 61q41 22 64.5 58
t23.5 77v56q-66 13 -130 13q-76 -2 -113.5 -32t-37.5 -93q0 -50 26 -75.5t77 -25.5q49 0 90 22zM133 651v41h270l3 -7v-41h-271z" />
    <glyph glyph-name="aogonek" unicode="&#x105;" horiz-adv-x="554" 
d="M464 7l-2 -7h-60l-3 6l1 83l-3 1q-30 -50 -80 -78t-113 -28q-71 0 -110 39.5t-39 112.5q0 177 214 177q44 0 130 -11v55q0 72 -31 102.5t-104 30.5q-72 0 -158 -26l-3 6l10 53q96 22 164 22q94 0 138.5 -42.5t44.5 -134.5v-96q0 -221 4 -265zM311 61q41 22 64.5 58
t23.5 77v56q-66 13 -130 13q-76 -2 -113.5 -32t-37.5 -93q0 -50 26 -75.5t77 -25.5q49 0 90 22zM458 -202q-44 -18 -91 -18q-42 0 -64.5 18.5t-22.5 52.5q0 74 122 149h59q-62 -39 -91.5 -71.5t-29.5 -61.5q0 -38 47 -38q17 0 38 5t36 12l3 -3z" />
    <glyph glyph-name="aring" unicode="&#xe5;" horiz-adv-x="554" 
d="M464 7l-2 -7h-60l-3 6l1 83l-3 1q-30 -50 -80 -78t-113 -28q-71 0 -110 39.5t-39 112.5q0 177 214 177q44 0 130 -11v55q0 72 -31 102.5t-104 30.5q-72 0 -158 -26l-3 6l10 53q96 22 164 22q94 0 138.5 -42.5t44.5 -134.5v-96q0 -221 4 -265zM311 61q41 22 64.5 58
t23.5 77v56q-66 13 -130 13q-76 -2 -113.5 -32t-37.5 -93q0 -50 26 -75.5t77 -25.5q49 0 90 22zM168 641q-36 22 -36 58t37 59t101 23q65 0 101 -22t36 -58t-37.5 -59t-100.5 -23q-65 0 -101 22zM331 667.5q23 11.5 23 32.5t-23.5 32.5t-61.5 11.5t-61.5 -11.5t-23.5 -32.5
t23.5 -32.5t61.5 -11.5q39 0 62 11.5z" />
    <glyph glyph-name="aringacute" unicode="&#x1fb;" horiz-adv-x="554" 
d="M464 7l-2 -7h-60l-3 6l1 83l-3 1q-30 -50 -80 -78t-113 -28q-71 0 -110 39.5t-39 112.5q0 177 214 177q44 0 130 -11v55q0 72 -31 102.5t-104 30.5q-72 0 -158 -26l-3 6l10 53q96 22 164 22q94 0 138.5 -42.5t44.5 -134.5v-96q0 -221 4 -265zM311 61q41 22 64.5 58
t23.5 77v56q-66 13 -130 13q-76 -2 -113.5 -32t-37.5 -93q0 -50 26 -75.5t77 -25.5q49 0 90 22zM168 641q-36 22 -36 58t37 59t101 23q65 0 101 -22t36 -58t-37.5 -59t-100.5 -23q-65 0 -101 22zM331 667.5q23 11.5 23 32.5t-23.5 32.5t-61.5 11.5t-61.5 -11.5t-23.5 -32.5
t23.5 -32.5t61.5 -11.5q39 0 62 11.5zM206 862q42 71 75 133h68l1 -7q-35 -51 -84 -133h-59z" />
    <glyph glyph-name="atilde" unicode="&#xe3;" horiz-adv-x="554" 
d="M464 7l-2 -7h-60l-3 6l1 83l-3 1q-30 -50 -80 -78t-113 -28q-71 0 -110 39.5t-39 112.5q0 177 214 177q44 0 130 -11v55q0 72 -31 102.5t-104 30.5q-72 0 -158 -26l-3 6l10 53q96 22 164 22q94 0 138.5 -42.5t44.5 -134.5v-96q0 -221 4 -265zM311 61q41 22 64.5 58
t23.5 77v56q-66 13 -130 13q-76 -2 -113.5 -32t-37.5 -93q0 -50 26 -75.5t77 -25.5q49 0 90 22zM122 672q0 35 18.5 54.5t54.5 19.5q25 0 42.5 -9t40.5 -27q17 -14 29.5 -21t26.5 -7q17 0 25.5 10.5t8.5 27.5q0 19 -8 32l3 7h47q11 -30 11 -53q0 -34 -19 -54t-54 -20
q-25 0 -43.5 9.5t-40.5 27.5q-17 14 -29.5 20.5t-25.5 6.5q-17 0 -26 -10.5t-9 -27.5q0 -19 8 -32l-3 -7h-47q-10 27 -10 53z" />
    <glyph glyph-name="ae" unicode="&#xe6;" horiz-adv-x="901" 
d="M95 23q-40 39 -40 116q0 86 53.5 129.5t156.5 43.5q58 0 130 -11v54q0 73 -29.5 104t-100.5 31t-159 -26l-3 7l10 52q98 22 163 22q74 0 111.5 -28.5t51.5 -94.5h2q26 59 75 91t114 32q108 0 162.5 -75t50.5 -218l-3 -6l-384 -7q10 -200 191 -200q37 0 77 8t74 23l3 -6
l-7 -53q-79 -27 -158 -27q-165 0 -213 146h-1q-27 -70 -82.5 -108t-127.5 -38q-77 0 -117 39zM784 298q0 95 -41 143.5t-115 48.5q-77 0 -122 -52.5t-50 -148.5zM307.5 60.5q40.5 21.5 64.5 60t24 88.5v43q-70 12 -129 12q-76 -2 -112.5 -31.5t-36.5 -90.5q0 -51 26 -77
t76 -26q47 0 87.5 21.5z" />
    <glyph glyph-name="aeacute" unicode="&#x1fd;" horiz-adv-x="901" 
d="M95 23q-40 39 -40 116q0 86 53.5 129.5t156.5 43.5q58 0 130 -11v54q0 73 -29.5 104t-100.5 31t-159 -26l-3 7l10 52q98 22 163 22q74 0 111.5 -28.5t51.5 -94.5h2q26 59 75 91t114 32q108 0 162.5 -75t50.5 -218l-3 -6l-384 -7q10 -200 191 -200q37 0 77 8t74 23l3 -6
l-7 -53q-79 -27 -158 -27q-165 0 -213 146h-1q-27 -70 -82.5 -108t-127.5 -38q-77 0 -117 39zM784 298q0 95 -41 143.5t-115 48.5q-77 0 -122 -52.5t-50 -148.5zM307.5 60.5q40.5 21.5 64.5 60t24 88.5v43q-70 12 -129 12q-76 -2 -112.5 -31.5t-36.5 -90.5q0 -51 26 -77
t76 -26q47 0 87.5 21.5zM382 626q42 71 75 133h68l1 -7q-35 -51 -84 -133h-59z" />
    <glyph glyph-name="b" unicode="b" horiz-adv-x="613" 
d="M236 -10.5q-38 5.5 -94 16.5q-17 4 -51 10l-2 6q5 77 5 233q0 77 -1 117q0 91 -1 131q0 192 -3 234l2 7h65l2 -7q-3 -51 -3 -211l-1 -109l2 -1q28 60 80.5 94.5t122.5 34.5q97 0 147 -66t50 -195q0 -146 -60.5 -223t-181.5 -77q-40 0 -78 5.5zM447.5 99.5
q45.5 60.5 45.5 180.5q0 106 -37.5 157.5t-114.5 51.5q-55 0 -97.5 -26.5t-65.5 -74.5t-23 -110v-220q89 -19 153 -19q94 0 139.5 60.5z" />
    <glyph glyph-name="c" unicode="c" horiz-adv-x="507" 
d="M123.5 57q-65.5 73 -65.5 205q0 133 68.5 208t189.5 75q60 0 134 -20l9 -52l-4 -7q-75 24 -141 24q-95 0 -144.5 -57.5t-49.5 -167.5t51 -168t145 -58q66 0 144 24l3 -6q-2 -17 -4.5 -30.5t-4.5 -22.5q-73 -20 -145 -20q-120 0 -185.5 73z" />
    <glyph glyph-name="cacute" unicode="&#x107;" horiz-adv-x="507" 
d="M123.5 57q-65.5 73 -65.5 205q0 133 68.5 208t189.5 75q60 0 134 -20l9 -52l-4 -7q-75 24 -141 24q-95 0 -144.5 -57.5t-49.5 -167.5t51 -168t145 -58q66 0 144 24l3 -6q-2 -17 -4.5 -30.5t-4.5 -22.5q-73 -20 -145 -20q-120 0 -185.5 73zM236 626q42 71 75 133h68l1 -7
q-35 -51 -84 -133h-59z" />
    <glyph glyph-name="ccaron" unicode="&#x10d;" horiz-adv-x="507" 
d="M123.5 57q-65.5 73 -65.5 205q0 133 68.5 208t189.5 75q60 0 134 -20l9 -52l-4 -7q-75 24 -141 24q-95 0 -144.5 -57.5t-49.5 -167.5t51 -168t145 -58q66 0 144 24l3 -6q-2 -17 -4.5 -30.5t-4.5 -22.5q-73 -20 -145 -20q-120 0 -185.5 73zM139 752l1 7h67l93 -98l93 98
h67l2 -7l-127 -133h-69z" />
    <glyph glyph-name="ccedilla" unicode="&#xe7;" horiz-adv-x="507" 
d="M123.5 57q-65.5 73 -65.5 205q0 133 68.5 208t189.5 75q60 0 134 -20l9 -52l-4 -7q-75 24 -141 24q-95 0 -144.5 -57.5t-49.5 -167.5t51 -168t145 -58q66 0 144 24l3 -6q-2 -17 -4.5 -30.5t-4.5 -22.5q-73 -20 -145 -20q-120 0 -185.5 73zM262 -215q-27 5 -43 11l-5 43
l3 4q17 -8 41 -13t46 -5q30 0 46 9.5t16 28.5q0 23 -26 32t-89 8l-3 4l55 91h39l-39 -65q119 -1 119 -76q0 -36 -29 -56.5t-80 -20.5q-24 0 -51 5z" />
    <glyph glyph-name="ccircumflex" unicode="&#x109;" horiz-adv-x="507" 
d="M123.5 57q-65.5 73 -65.5 205q0 133 68.5 208t189.5 75q60 0 134 -20l9 -52l-4 -7q-75 24 -141 24q-95 0 -144.5 -57.5t-49.5 -167.5t51 -168t145 -58q66 0 144 24l3 -6q-2 -17 -4.5 -30.5t-4.5 -22.5q-73 -20 -145 -20q-120 0 -185.5 73zM462 626l-2 -7h-67l-93 98
l-93 -98h-67l-1 7l127 133h69z" />
    <glyph glyph-name="cdotaccent" unicode="&#x10b;" horiz-adv-x="507" 
d="M123.5 57q-65.5 73 -65.5 205q0 133 68.5 208t189.5 75q60 0 134 -20l9 -52l-4 -7q-75 24 -141 24q-95 0 -144.5 -57.5t-49.5 -167.5t51 -168t145 -58q66 0 144 24l3 -6q-2 -17 -4.5 -30.5t-4.5 -22.5q-73 -20 -145 -20q-120 0 -185.5 73zM268.5 640.5
q-12.5 12.5 -12.5 35.5q0 22 12.5 34.5t31.5 12.5t31.5 -12.5t12.5 -34.5q0 -23 -12.5 -35.5t-31.5 -12.5t-31.5 12.5z" />
    <glyph glyph-name="d" unicode="d" horiz-adv-x="614" 
d="M108.5 51q-50.5 67 -50.5 195q0 145 61 222t179 77q36 0 79 -7t82 -20q0 142 -4 219l3 7h64l3 -7q-2 -31 -3 -105.5t-1 -101.5q0 -103 -1 -162v-87q0 -196 5 -274l-3 -7h-60l-3 6q1 22 1 103l-3 1q-62 -126 -201 -126q-97 0 -147.5 67zM409 97.5q51 58.5 51 154.5v211
q-35 12 -78.5 19.5t-79.5 7.5q-93 0 -137.5 -60t-44.5 -182q0 -106 38 -157.5t115 -51.5q85 0 136 58.5z" />
    <glyph glyph-name="eth" unicode="&#xf0;" horiz-adv-x="590" 
d="M493.5 535.5q41.5 -86.5 41.5 -198.5q0 -173 -62.5 -263t-185.5 -90q-109 0 -170.5 67.5t-61.5 185.5q0 125 58 193.5t166 68.5q96 0 179 -47q-34 127 -142 194l-169 -98l-22 36l147 85q-48 20 -110 31l-4 9l30 41q79 -15 143 -47l97 56l20 -37l-76 -44
q80 -56 121.5 -142.5zM473 327q0 22 -4 64q-89 53 -188 52q-164 0 -164 -207q0 -95 43 -146t125 -51q188 0 188 288z" />
    <glyph glyph-name="dcaron" unicode="&#x10f;" horiz-adv-x="614" 
d="M603 613q17 115 26 207h56l3 -6q-24 -118 -37 -208h-45zM108.5 51q-50.5 67 -50.5 195q0 145 61 222t179 77q36 0 79 -7t82 -20q0 142 -4 219l3 7h64l3 -7q-2 -31 -3 -105.5t-1 -101.5q0 -103 -1 -162v-87q0 -196 5 -274l-3 -7h-60l-3 6q1 22 1 103l-3 1
q-62 -126 -201 -126q-97 0 -147.5 67zM409 97.5q51 58.5 51 154.5v211q-35 12 -78.5 19.5t-79.5 7.5q-93 0 -137.5 -60t-44.5 -182q0 -106 38 -157.5t115 -51.5q85 0 136 58.5z" />
    <glyph glyph-name="dcroat" unicode="&#x111;" horiz-adv-x="614" 
d="M520 368v-87q0 -196 5 -274l-3 -7h-60l-3 6q1 22 1 103l-3 1q-62 -126 -201 -126q-97 0 -147.5 67t-50.5 195q0 145 61 222t179 77q36 0 79 -7t82 -20q0 72 -1 107h-200l-2 7v38h201q0 27 -2 67l3 7h64l3 -7q-2 -32 -2 -67h99l3 -7v-38h-103zM460 463q-35 12 -78.5 19.5
t-79.5 7.5q-93 0 -137.5 -60t-44.5 -182q0 -106 38 -157.5t115 -51.5q85 0 136 58.5t51 154.5v211z" />
    <glyph glyph-name="e" unicode="e" horiz-adv-x="599" 
d="M485 467.5q60 -77.5 55 -221.5l-3 -7l-416 -7q15 -193 207 -193q88 0 167 31l4 -6q-2 -9 -4.5 -22.5t-4.5 -30.5q-41 -13 -86 -20t-84 -7q-128 0 -195 71.5t-67 206.5q0 132 67 207.5t183 75.5q117 0 177 -77.5zM478 292q0 96 -44.5 147t-127.5 51q-84 0 -132.5 -54.5
t-53.5 -152.5z" />
    <glyph glyph-name="eacute" unicode="&#xe9;" horiz-adv-x="599" 
d="M485 467.5q60 -77.5 55 -221.5l-3 -7l-416 -7q15 -193 207 -193q88 0 167 31l4 -6q-2 -9 -4.5 -22.5t-4.5 -30.5q-41 -13 -86 -20t-84 -7q-128 0 -195 71.5t-67 206.5q0 132 67 207.5t183 75.5q117 0 177 -77.5zM478 292q0 96 -44.5 147t-127.5 51q-84 0 -132.5 -54.5
t-53.5 -152.5zM231 626q42 71 75 133h68l1 -7q-35 -51 -84 -133h-59z" />
    <glyph glyph-name="ecaron" unicode="&#x11b;" horiz-adv-x="599" 
d="M485 467.5q60 -77.5 55 -221.5l-3 -7l-416 -7q15 -193 207 -193q88 0 167 31l4 -6q-2 -9 -4.5 -22.5t-4.5 -30.5q-41 -13 -86 -20t-84 -7q-128 0 -195 71.5t-67 206.5q0 132 67 207.5t183 75.5q117 0 177 -77.5zM478 292q0 96 -44.5 147t-127.5 51q-84 0 -132.5 -54.5
t-53.5 -152.5zM134 752l1 7h67l93 -98l93 98h67l2 -7l-127 -133h-69z" />
    <glyph glyph-name="ecircumflex" unicode="&#xea;" horiz-adv-x="599" 
d="M485 467.5q60 -77.5 55 -221.5l-3 -7l-416 -7q15 -193 207 -193q88 0 167 31l4 -6q-2 -9 -4.5 -22.5t-4.5 -30.5q-41 -13 -86 -20t-84 -7q-128 0 -195 71.5t-67 206.5q0 132 67 207.5t183 75.5q117 0 177 -77.5zM478 292q0 96 -44.5 147t-127.5 51q-84 0 -132.5 -54.5
t-53.5 -152.5zM457 626l-2 -7h-67l-93 98l-93 -98h-67l-1 7l127 133h69z" />
    <glyph glyph-name="edieresis" unicode="&#xeb;" horiz-adv-x="599" 
d="M485 467.5q60 -77.5 55 -221.5l-3 -7l-416 -7q15 -193 207 -193q88 0 167 31l4 -6q-2 -9 -4.5 -22.5t-4.5 -30.5q-41 -13 -86 -20t-84 -7q-128 0 -195 71.5t-67 206.5q0 132 67 207.5t183 75.5q117 0 177 -77.5zM478 292q0 96 -44.5 147t-127.5 51q-84 0 -132.5 -54.5
t-53.5 -152.5zM158.5 640.5q-12.5 12.5 -12.5 35.5q0 22 12.5 34.5t31.5 12.5t31.5 -12.5t12.5 -34.5q0 -23 -12.5 -35.5t-31.5 -12.5t-31.5 12.5zM368.5 640.5q-12.5 12.5 -12.5 35.5q0 22 12.5 34.5t31.5 12.5t31.5 -12.5t12.5 -34.5q0 -23 -12.5 -35.5t-31.5 -12.5
t-31.5 12.5z" />
    <glyph glyph-name="edotaccent" unicode="&#x117;" horiz-adv-x="599" 
d="M485 467.5q60 -77.5 55 -221.5l-3 -7l-416 -7q15 -193 207 -193q88 0 167 31l4 -6q-2 -9 -4.5 -22.5t-4.5 -30.5q-41 -13 -86 -20t-84 -7q-128 0 -195 71.5t-67 206.5q0 132 67 207.5t183 75.5q117 0 177 -77.5zM478 292q0 96 -44.5 147t-127.5 51q-84 0 -132.5 -54.5
t-53.5 -152.5zM263.5 640.5q-12.5 12.5 -12.5 35.5q0 22 12.5 34.5t31.5 12.5t31.5 -12.5t12.5 -34.5q0 -23 -12.5 -35.5t-31.5 -12.5t-31.5 12.5z" />
    <glyph glyph-name="egrave" unicode="&#xe8;" horiz-adv-x="599" 
d="M485 467.5q60 -77.5 55 -221.5l-3 -7l-416 -7q15 -193 207 -193q88 0 167 31l4 -6q-2 -9 -4.5 -22.5t-4.5 -30.5q-41 -13 -86 -20t-84 -7q-128 0 -195 71.5t-67 206.5q0 132 67 207.5t183 75.5q117 0 177 -77.5zM478 292q0 96 -44.5 147t-127.5 51q-84 0 -132.5 -54.5
t-53.5 -152.5zM204 752l1 7h68q23 -45 75 -133l-1 -7h-59q-37 62 -84 133z" />
    <glyph glyph-name="emacron" unicode="&#x113;" horiz-adv-x="599" 
d="M485 467.5q60 -77.5 55 -221.5l-3 -7l-416 -7q15 -193 207 -193q88 0 167 31l4 -6q-2 -9 -4.5 -22.5t-4.5 -30.5q-41 -13 -86 -20t-84 -7q-128 0 -195 71.5t-67 206.5q0 132 67 207.5t183 75.5q117 0 177 -77.5zM478 292q0 96 -44.5 147t-127.5 51q-84 0 -132.5 -54.5
t-53.5 -152.5zM158 651v41h270l3 -7v-41h-271z" />
    <glyph glyph-name="eogonek" unicode="&#x119;" horiz-adv-x="599" 
d="M318.5 -201.5q-22.5 18.5 -22.5 52.5q0 40 28 76.5t77 64.5l-1 1q-31 -9 -80 -9q-128 0 -195 71.5t-67 206.5q0 132 67 207.5t183 75.5q117 0 177 -77.5t55 -221.5l-3 -7l-415 -6q14 -194 206 -194q88 0 167 31l4 -6q-2 -9 -4.5 -22.5t-4.5 -30.5q-67 -38 -100.5 -73.5
t-33.5 -70.5q0 -38 47 -38q17 0 38 5t36 12l3 -3l-6 -45q-44 -18 -91 -18q-42 0 -64.5 18.5zM478 292q0 96 -44.5 147t-127.5 51q-84 0 -132.5 -54.5t-52.5 -152.5z" />
    <glyph glyph-name="f" unicode="f" horiz-adv-x="465" 
d="M231 675q-23 -30 -23 -93v-53h204l3 -6l-7 -48h-200v-106q0 -286 4 -362l-2 -7h-65l-2 7q4 76 4 362v106h-88v54h88v47q0 94 39 139t122 45q49 0 117 -17q0 -3 9 -52l-5 -7q-61 21 -120 21q-55 0 -78 -30z" />
    <glyph glyph-name="g" unicode="g" horiz-adv-x="617" 
d="M203 -207q-47 9 -98 30l-9 52l4 7q56 -23 101 -33t98 -10q75 0 118 39t43 122q0 69 3 127h-2q-26 -61 -80 -95.5t-124 -34.5q-97 0 -148 65.5t-51 189.5q0 138 59 215.5t180 77.5q39 0 74.5 -5t94.5 -16q43 -9 59 -11l2 -7q-5 -77 -5 -302v-212q0 -108 -61 -158t-158 -50
q-53 0 -100 9zM370 79q43 26 66.5 71t23.5 101v218q-90 21 -155 21q-95 0 -140 -62t-45 -175q0 -101 37.5 -150.5t114.5 -49.5q55 0 98 26z" />
    <glyph glyph-name="gbreve" unicode="&#x11f;" horiz-adv-x="617" 
d="M203 -207q-47 9 -98 30l-9 52l4 7q56 -23 101 -33t98 -10q75 0 118 39t43 122q0 69 3 127h-2q-26 -61 -80 -95.5t-124 -34.5q-97 0 -148 65.5t-51 189.5q0 138 59 215.5t180 77.5q39 0 74.5 -5t94.5 -16q43 -9 59 -11l2 -7q-5 -77 -5 -302v-212q0 -108 -61 -158t-158 -50
q-53 0 -100 9zM370 79q43 26 66.5 71t23.5 101v218q-90 21 -155 21q-95 0 -140 -62t-45 -175q0 -101 37.5 -150.5t114.5 -49.5q55 0 98 26zM187 654q-38 35 -38 98l2 7h52l3 -7q-1 -40 23 -64t65 -24t65 24t23 64l3 7h52l2 -7q0 -63 -38 -98t-107 -35t-107 35z" />
    <glyph glyph-name="gcommaaccent" unicode="&#x123;" horiz-adv-x="617" 
d="M203 -207q-47 9 -98 30l-9 52l4 7q56 -23 101 -33t98 -10q75 0 118 39t43 122q0 69 3 127h-2q-26 -61 -80 -95.5t-124 -34.5q-97 0 -148 65.5t-51 189.5q0 138 59 215.5t180 77.5q39 0 74.5 -5t94.5 -16q43 -9 59 -11l2 -7q-5 -77 -5 -302v-212q0 -108 -61 -158t-158 -50
q-53 0 -100 9zM370 79q43 26 66.5 71t23.5 101v218q-90 21 -155 21q-95 0 -140 -62t-45 -175q0 -101 37.5 -150.5t114.5 -49.5q55 0 98 26zM332 804q-28 -46 -31 -94q18 -1 29 -12t11 -32q0 -19 -12 -33t-34 -14q-23 0 -35.5 14t-12.5 40q0 38 9.5 70t29.5 67h42z" />
    <glyph glyph-name="gdotaccent" unicode="&#x121;" horiz-adv-x="617" 
d="M203 -207q-47 9 -98 30l-9 52l4 7q56 -23 101 -33t98 -10q75 0 118 39t43 122q0 69 3 127h-2q-26 -61 -80 -95.5t-124 -34.5q-97 0 -148 65.5t-51 189.5q0 138 59 215.5t180 77.5q39 0 74.5 -5t94.5 -16q43 -9 59 -11l2 -7q-5 -77 -5 -302v-212q0 -108 -61 -158t-158 -50
q-53 0 -100 9zM370 79q43 26 66.5 71t23.5 101v218q-90 21 -155 21q-95 0 -140 -62t-45 -175q0 -101 37.5 -150.5t114.5 -49.5q55 0 98 26zM262.5 640.5q-12.5 12.5 -12.5 35.5q0 22 12.5 34.5t31.5 12.5t31.5 -12.5t12.5 -34.5q0 -23 -12.5 -35.5t-31.5 -12.5t-31.5 12.5z
" />
    <glyph glyph-name="h" unicode="h" horiz-adv-x="634" 
d="M89 7q4 49 4 250v122q0 298 -4 358l2 7h65l2 -7q-3 -60 -3 -211l-1 -109h2q29 62 82 95t120 33q88 0 135 -50.5t47 -147.5v-86q0 -154 4 -254l-2 -7h-65l-2 7q4 67 4 254v73q0 76 -34.5 115.5t-103.5 39.5q-56 0 -98.5 -27t-65.5 -76t-23 -113q0 -199 4 -266l-2 -7h-65z
" />
    <glyph glyph-name="hbar" unicode="&#x127;" horiz-adv-x="634" 
d="M544 7l-2 -7h-65l-2 7q4 67 4 254v73q0 76 -34.5 115.5t-103.5 39.5q-56 0 -98.5 -27t-65.5 -76t-23 -113q0 -199 4 -266l-2 -7h-65l-2 7q4 49 4 250v122q0 173 -1 246h-108v38l2 7h105q0 35 -2 67l2 7h65l2 -7q-1 -9 -1 -33l-1 -34h197v-38l-3 -7h-195v-99l-1 -109h2
q29 62 82 95t120 33q88 0 135 -50.5t47 -147.5v-86q0 -154 4 -254z" />
    <glyph glyph-name="i" unicode="i" horiz-adv-x="249" 
d="M93.5 624.5q-12.5 12.5 -12.5 34.5t12.5 35t31.5 13q18 0 30.5 -13t12.5 -35t-12.5 -34.5t-30.5 -12.5q-19 0 -31.5 12.5zM90 7q4 100 4 257q0 158 -4 258l2 7h65l2 -7q-4 -67 -4 -258q0 -190 4 -257l-2 -7h-65z" />
    <glyph glyph-name="dotlessi" unicode="&#x131;" horiz-adv-x="249" 
d="M90 7q4 100 4 257q0 158 -4 258l2 7h65l2 -7q-4 -67 -4 -258q0 -190 4 -257l-2 -7h-65z" />
    <glyph glyph-name="iacute" unicode="&#xed;" horiz-adv-x="249" 
d="M90 7q4 100 4 257q0 158 -4 258l2 7h65l2 -7q-4 -67 -4 -258q0 -190 4 -257l-2 -7h-65zM61 610q42 71 75 133h68l1 -7q-35 -51 -84 -133h-59z" />
    <glyph glyph-name="ibreve" unicode="&#x12d;" horiz-adv-x="249" 
d="M90 7q4 100 4 257q0 158 -4 258l2 7h65l2 -7q-4 -67 -4 -258q0 -190 4 -257l-2 -7h-65zM18 638q-38 35 -38 98l2 7h52l3 -7q-1 -40 23 -64t65 -24t65 24t23 64l3 7h52l2 -7q0 -63 -38 -98t-107 -35t-107 35z" />
    <glyph glyph-name="icircumflex" unicode="&#xee;" horiz-adv-x="249" 
d="M90 7q4 100 4 257q0 158 -4 258l2 7h65l2 -7q-4 -67 -4 -258q0 -190 4 -257l-2 -7h-65zM287 610l-2 -7h-67l-93 98l-93 -98h-67l-1 7l127 133h69z" />
    <glyph glyph-name="idieresis" unicode="&#xef;" horiz-adv-x="249" 
d="M90 7q4 100 4 257q0 158 -4 258l2 7h65l2 -7q-4 -67 -4 -258q0 -190 4 -257l-2 -7h-65zM-11.5 624.5q-12.5 12.5 -12.5 35.5q0 22 12.5 34.5t31.5 12.5t31.5 -12.5t12.5 -34.5q0 -23 -12.5 -35.5t-31.5 -12.5t-31.5 12.5zM198.5 624.5q-12.5 12.5 -12.5 35.5
q0 22 12.5 34.5t31.5 12.5t31.5 -12.5t12.5 -34.5q0 -23 -12.5 -35.5t-31.5 -12.5t-31.5 12.5z" />
    <glyph glyph-name="i.loclTRK" horiz-adv-x="249" 
d="M90 7q4 100 4 257q0 158 -4 258l2 7h65l2 -7q-4 -67 -4 -258q0 -190 4 -257l-2 -7h-65zM93.5 624.5q-12.5 12.5 -12.5 35.5q0 22 12.5 34.5t31.5 12.5t31.5 -12.5t12.5 -34.5q0 -23 -12.5 -35.5t-31.5 -12.5t-31.5 12.5z" />
    <glyph glyph-name="igrave" unicode="&#xec;" horiz-adv-x="249" 
d="M90 7q4 100 4 257q0 158 -4 258l2 7h65l2 -7q-4 -67 -4 -258q0 -190 4 -257l-2 -7h-65zM34 736l1 7h68q23 -45 75 -133l-1 -7h-59q-37 62 -84 133z" />
    <glyph glyph-name="ij" unicode="&#x133;" horiz-adv-x="498" 
d="M93.5 624.5q-12.5 12.5 -12.5 34.5t12.5 35t31.5 13q18 0 30.5 -13t12.5 -35t-12.5 -34.5t-30.5 -12.5q-19 0 -31.5 12.5zM90 7q4 100 4 257q0 158 -4 258l2 7h65l2 -7q-4 -67 -4 -258q0 -190 4 -257l-2 -7h-65zM342.5 624.5q-12.5 12.5 -12.5 34.5t12.5 35t31.5 13
t31.5 -13t12.5 -35t-12.5 -34.5t-31.5 -12.5t-31.5 12.5zM312 -194q31 74 31 202v256q0 158 -4 258l2 7h65l2 -7q-4 -67 -4 -258v-257q0 -142 -32 -207h-58z" />
    <glyph glyph-name="imacron" unicode="&#x12b;" horiz-adv-x="249" 
d="M90 7q4 100 4 257q0 158 -4 258l2 7h65l2 -7q-4 -67 -4 -258q0 -190 4 -257l-2 -7h-65zM-12 635v41h270l3 -7v-41h-271z" />
    <glyph glyph-name="iogonek" unicode="&#x12f;" horiz-adv-x="249" 
d="M90 7q4 100 4 257q0 158 -4 258l2 7h65l2 -7q-4 -67 -4 -258q0 -190 4 -257l-2 -7h-65zM93.5 624.5q-12.5 12.5 -12.5 35.5q0 22 12.5 34.5t31.5 12.5t31.5 -12.5t12.5 -34.5q0 -23 -12.5 -35.5t-31.5 -12.5t-31.5 12.5zM153 -202q-44 -18 -91 -18q-42 0 -64.5 18.5
t-22.5 52.5q0 74 122 149h59q-62 -39 -91.5 -71.5t-29.5 -61.5q0 -38 47 -38q17 0 38 5t36 12l3 -3z" />
    <glyph glyph-name="itilde" unicode="&#x129;" horiz-adv-x="249" 
d="M90 7q4 100 4 257q0 158 -4 258l2 7h65l2 -7q-4 -67 -4 -258q0 -190 4 -257l-2 -7h-65zM-23 656q0 35 18.5 54.5t54.5 19.5q25 0 42.5 -9t40.5 -27q17 -14 29.5 -21t26.5 -7q17 0 25.5 10.5t8.5 27.5q0 19 -8 32l3 7h47q11 -30 11 -53q0 -34 -19 -54t-54 -20
q-25 0 -43.5 9.5t-40.5 27.5q-17 14 -29.5 20.5t-25.5 6.5q-17 0 -26 -10.5t-9 -27.5q0 -19 8 -32l-3 -7h-47q-10 27 -10 53z" />
    <glyph glyph-name="j" unicode="j" horiz-adv-x="249" 
d="M93.5 624.5q-12.5 12.5 -12.5 34.5t12.5 35t31.5 13t31.5 -13t12.5 -35t-12.5 -34.5t-31.5 -12.5t-31.5 12.5zM63 -194q31 74 31 202v256q0 158 -4 258l2 7h65l2 -7q-4 -67 -4 -258v-257q0 -142 -32 -207h-58z" />
    <glyph glyph-name="uni0237" unicode="&#x237;" horiz-adv-x="240" 
d="M63 -194q31 74 31 202v256q0 158 -4 258l2 7h65l2 -7q-4 -67 -4 -258v-257q0 -142 -32 -207h-58z" />
    <glyph glyph-name="k" unicode="k" horiz-adv-x="569" 
d="M538 7l-2 -7h-72l-208 264h-103q0 -182 5 -257l-2 -7h-65l-2 7q5 70 5 232q0 85 -1 133q0 91 -1 131q0 192 -3 234l2 7h65l2 -7q-2 -36 -3 -132.5t-1 -129.5v-158h103l169 212h68l2 -7l-185 -232z" />
    <glyph glyph-name="kcommaaccent" unicode="&#x137;" horiz-adv-x="569" 
d="M538 7l-2 -7h-72l-208 264h-103q0 -182 5 -257l-2 -7h-65l-2 7q5 70 5 232q0 85 -1 133q0 91 -1 131q0 192 -3 234l2 7h65l2 -7q-2 -36 -3 -132.5t-1 -129.5v-158h103l169 212h68l2 -7l-185 -232zM261 -259q28 46 31 94q-18 1 -29 12t-11 32q0 19 12 33t34 14
q23 0 35.5 -14t12.5 -40q0 -38 -9.5 -70t-29.5 -67h-42z" />
    <glyph glyph-name="kgreenlandic" unicode="&#x138;" horiz-adv-x="569" 
d="M538 7l-2 -7h-72l-208 248h-101q0 -177 4 -241l-2 -7h-65l-2 7q4 100 4 257q0 158 -4 258l2 7h65l2 -7q-4 -59 -4 -220h102l169 227h68l2 -7l-185 -247z" />
    <glyph glyph-name="l" unicode="l" horiz-adv-x="247" 
d="M89 7q5 70 5 232q0 85 -1 133q0 91 -1 131q0 192 -3 234l2 7h65l2 -7q-3 -42 -3 -234q-1 -40 -1 -131v-119q0 -187 4 -246l-2 -7h-65z" />
    <glyph glyph-name="lacute" unicode="&#x13a;" horiz-adv-x="247" 
d="M89 7q5 70 5 232q0 85 -1 133q0 91 -1 131q0 192 -3 234l2 7h65l2 -7q-3 -42 -3 -234q-1 -40 -1 -131v-119q0 -187 4 -246l-2 -7h-65zM60 825q39 64 69 121h69l1 -7q-44 -65 -78 -121h-60z" />
    <glyph glyph-name="lcaron" unicode="&#x13e;" horiz-adv-x="247" 
d="M236 613q17 115 26 207h56l3 -6q-24 -118 -37 -208h-45zM89 7q5 70 5 232q0 85 -1 133q0 91 -1 131q0 192 -3 234l2 7h65l2 -7q-3 -42 -3 -234q-1 -40 -1 -131v-119q0 -187 4 -246l-2 -7h-65z" />
    <glyph glyph-name="lcommaaccent" unicode="&#x13c;" horiz-adv-x="247" 
d="M89 7q5 70 5 232q0 85 -1 133q0 91 -1 131q0 192 -3 234l2 7h65l2 -7q-3 -42 -3 -234q-1 -40 -1 -131v-119q0 -187 4 -246l-2 -7h-65zM88 -259q28 46 31 94q-18 1 -29 12t-11 32q0 19 12 33t34 14q23 0 35.5 -14t12.5 -40q0 -38 -9.5 -70t-29.5 -67h-42z" />
    <glyph glyph-name="ldot" unicode="&#x140;" horiz-adv-x="407" 
d="M89 7q5 70 5 232q0 85 -1 133q0 91 -1 131q0 192 -3 234l2 7h65l2 -7q-3 -42 -3 -234q-1 -40 -1 -131v-119q0 -187 4 -246l-2 -7h-65zM295.5 350q-13.5 13 -13.5 36q0 22 13.5 35t31.5 13q19 0 32 -13t13 -35q0 -23 -13 -36t-32 -13q-18 0 -31.5 13z" />
    <glyph glyph-name="lslash" unicode="&#x142;" horiz-adv-x="287" 
d="M174 372v-119q0 -187 4 -246l-2 -7h-65l-2 7q5 70 5 232q0 85 -1 133v38l-111 -52l-4 4v45l115 54v70q-2 162 -4 206l2 7h65l2 -7q-2 -42 -4 -184v-62l105 49l5 -5v-44l-110 -52v-67z" />
    <glyph glyph-name="m" unicode="m" horiz-adv-x="982" 
d="M90 7q4 100 4 255q0 148 -4 260l2 7h61l3 -6q-1 -25 -1 -104l3 -1q30 60 81 93.5t112 33.5q70 0 111 -36t48 -105l3 -1q28 66 83.5 104t121.5 38q83 0 126.5 -49.5t43.5 -148.5v-85q0 -155 4 -255l-2 -7h-65l-2 7q4 67 4 255v72q0 155 -127 155q-52 0 -92.5 -27.5
t-63.5 -77t-23 -113.5q0 -186 5 -264l-3 -7h-64l-3 7q5 78 5 245v84q0 153 -127 153q-52 0 -92.5 -27.5t-63.5 -77t-23 -113.5q0 -197 4 -264l-2 -7h-65z" />
    <glyph glyph-name="n" unicode="n" horiz-adv-x="635" 
d="M90 7q4 100 4 254q0 161 -4 261l2 7h61l3 -6q-1 -26 -1 -104l3 -1q29 61 81 94t118 33q89 0 136.5 -49.5t47.5 -148.5v-86q0 -191 4 -254l-2 -7h-65l-2 7q4 94 4 254v73q0 155 -140 155q-54 0 -96 -27.5t-65.5 -77t-23.5 -113.5q0 -197 4 -264l-2 -7h-65z" />
    <glyph glyph-name="nacute" unicode="&#x144;" horiz-adv-x="635" 
d="M90 7q4 100 4 254q0 161 -4 261l2 7h61l3 -6q-1 -26 -1 -104l3 -1q29 61 81 94t118 33q89 0 136.5 -49.5t47.5 -148.5v-86q0 -191 4 -254l-2 -7h-65l-2 7q4 94 4 254v73q0 155 -140 155q-54 0 -96 -27.5t-65.5 -77t-23.5 -113.5q0 -197 4 -264l-2 -7h-65zM247 626
q42 71 75 133h68l1 -7q-35 -51 -84 -133h-59z" />
    <glyph glyph-name="ncaron" unicode="&#x148;" horiz-adv-x="635" 
d="M90 7q4 100 4 254q0 161 -4 261l2 7h61l3 -6q-1 -26 -1 -104l3 -1q29 61 81 94t118 33q89 0 136.5 -49.5t47.5 -148.5v-86q0 -191 4 -254l-2 -7h-65l-2 7q4 94 4 254v73q0 155 -140 155q-54 0 -96 -27.5t-65.5 -77t-23.5 -113.5q0 -197 4 -264l-2 -7h-65zM150 752l1 7h67
l93 -98l93 98h67l2 -7l-127 -133h-69z" />
    <glyph glyph-name="ncommaaccent" unicode="&#x146;" horiz-adv-x="635" 
d="M90 7q4 100 4 254q0 161 -4 261l2 7h61l3 -6q-1 -26 -1 -104l3 -1q29 61 81 94t118 33q89 0 136.5 -49.5t47.5 -148.5v-86q0 -191 4 -254l-2 -7h-65l-2 7q4 94 4 254v73q0 155 -140 155q-54 0 -96 -27.5t-65.5 -77t-23.5 -113.5q0 -197 4 -264l-2 -7h-65zM285 -259
q28 46 31 94q-18 1 -29 12t-11 32q0 19 12 33t34 14q23 0 35.5 -14t12.5 -40q0 -38 -9.5 -70t-29.5 -67h-42z" />
    <glyph glyph-name="eng" unicode="&#x14b;" horiz-adv-x="635" 
d="M449 -194q31 74 31 202v326q0 155 -140 155q-54 0 -96 -27.5t-65.5 -77t-23.5 -113.5q0 -197 4 -264l-2 -7h-65l-2 7q4 100 4 254q0 161 -4 261l2 7h61l3 -6q-1 -26 -1 -104l3 -1q29 61 81 94t118 33q89 0 136.5 -49.5t47.5 -148.5v-340q0 -142 -32 -207h-58z" />
    <glyph glyph-name="ntilde" unicode="&#xf1;" horiz-adv-x="635" 
d="M90 7q4 100 4 254q0 161 -4 261l2 7h61l3 -6q-1 -26 -1 -104l3 -1q29 61 81 94t118 33q89 0 136.5 -49.5t47.5 -148.5v-86q0 -191 4 -254l-2 -7h-65l-2 7q4 94 4 254v73q0 155 -140 155q-54 0 -96 -27.5t-65.5 -77t-23.5 -113.5q0 -197 4 -264l-2 -7h-65zM163 672
q0 35 18.5 54.5t54.5 19.5q25 0 42.5 -9t40.5 -27q17 -14 29.5 -21t26.5 -7q17 0 25.5 10.5t8.5 27.5q0 19 -8 32l3 7h47q11 -30 11 -53q0 -34 -19 -54t-54 -20q-25 0 -43.5 9.5t-40.5 27.5q-17 14 -29.5 20.5t-25.5 6.5q-17 0 -26 -10.5t-9 -27.5q0 -19 8 -32l-3 -7h-47
q-10 27 -10 53z" />
    <glyph glyph-name="o" unicode="o" horiz-adv-x="615" 
d="M174.5 19q-56.5 35 -86.5 98t-30 147t30 147.5t86.5 98.5t133.5 35t133.5 -35t86.5 -98.5t30 -147.5t-30 -147t-86.5 -98t-133.5 -35t-133.5 35zM446 98q49 59 49 166t-49 166.5t-138 59.5q-90 0 -139 -59.5t-49 -166.5t49 -166t139 -59q89 0 138 59z" />
    <glyph glyph-name="oacute" unicode="&#xf3;" horiz-adv-x="615" 
d="M174.5 19q-56.5 35 -86.5 98t-30 147t30 147.5t86.5 98.5t133.5 35t133.5 -35t86.5 -98.5t30 -147.5t-30 -147t-86.5 -98t-133.5 -35t-133.5 35zM446 98q49 59 49 166t-49 166.5t-138 59.5q-90 0 -139 -59.5t-49 -166.5t49 -166t139 -59q89 0 138 59zM244 626
q42 71 75 133h68l1 -7q-35 -51 -84 -133h-59z" />
    <glyph glyph-name="obreve" unicode="&#x14f;" horiz-adv-x="615" 
d="M174.5 19q-56.5 35 -86.5 98t-30 147t30 147.5t86.5 98.5t133.5 35t133.5 -35t86.5 -98.5t30 -147.5t-30 -147t-86.5 -98t-133.5 -35t-133.5 35zM446 98q49 59 49 166t-49 166.5t-138 59.5q-90 0 -139 -59.5t-49 -166.5t49 -166t139 -59q89 0 138 59zM201 654
q-38 35 -38 98l2 7h52l3 -7q-1 -40 23 -64t65 -24t65 24t23 64l3 7h52l2 -7q0 -63 -38 -98t-107 -35t-107 35z" />
    <glyph glyph-name="ocircumflex" unicode="&#xf4;" horiz-adv-x="615" 
d="M174.5 19q-56.5 35 -86.5 98t-30 147t30 147.5t86.5 98.5t133.5 35t133.5 -35t86.5 -98.5t30 -147.5t-30 -147t-86.5 -98t-133.5 -35t-133.5 35zM446 98q49 59 49 166t-49 166.5t-138 59.5q-90 0 -139 -59.5t-49 -166.5t49 -166t139 -59q89 0 138 59zM470 626l-2 -7h-67
l-93 98l-93 -98h-67l-1 7l127 133h69z" />
    <glyph glyph-name="odieresis" unicode="&#xf6;" horiz-adv-x="615" 
d="M174.5 19q-56.5 35 -86.5 98t-30 147t30 147.5t86.5 98.5t133.5 35t133.5 -35t86.5 -98.5t30 -147.5t-30 -147t-86.5 -98t-133.5 -35t-133.5 35zM446 98q49 59 49 166t-49 166.5t-138 59.5q-90 0 -139 -59.5t-49 -166.5t49 -166t139 -59q89 0 138 59zM171.5 640.5
q-12.5 12.5 -12.5 35.5q0 22 12.5 34.5t31.5 12.5t31.5 -12.5t12.5 -34.5q0 -23 -12.5 -35.5t-31.5 -12.5t-31.5 12.5zM381.5 640.5q-12.5 12.5 -12.5 35.5q0 22 12.5 34.5t31.5 12.5t31.5 -12.5t12.5 -34.5q0 -23 -12.5 -35.5t-31.5 -12.5t-31.5 12.5z" />
    <glyph glyph-name="ograve" unicode="&#xf2;" horiz-adv-x="615" 
d="M174.5 19q-56.5 35 -86.5 98t-30 147t30 147.5t86.5 98.5t133.5 35t133.5 -35t86.5 -98.5t30 -147.5t-30 -147t-86.5 -98t-133.5 -35t-133.5 35zM446 98q49 59 49 166t-49 166.5t-138 59.5q-90 0 -139 -59.5t-49 -166.5t49 -166t139 -59q89 0 138 59zM217 752l1 7h68
q23 -45 75 -133l-1 -7h-59q-37 62 -84 133z" />
    <glyph glyph-name="ohungarumlaut" unicode="&#x151;" horiz-adv-x="615" 
d="M174.5 19q-56.5 35 -86.5 98t-30 147t30 147.5t86.5 98.5t133.5 35t133.5 -35t86.5 -98.5t30 -147.5t-30 -147t-86.5 -98t-133.5 -35t-133.5 35zM446 98q49 59 49 166t-49 166.5t-138 59.5q-90 0 -139 -59.5t-49 -166.5t49 -166t139 -59q89 0 138 59zM158 626l24 54
l15.5 35.5l18.5 43.5h66l1 -7l-15 -29q-40 -76 -53 -104h-56zM336 626l58 133h66l1 -7l-15 -29q-40 -76 -53 -104h-56z" />
    <glyph glyph-name="omacron" unicode="&#x14d;" horiz-adv-x="615" 
d="M174.5 19q-56.5 35 -86.5 98t-30 147t30 147.5t86.5 98.5t133.5 35t133.5 -35t86.5 -98.5t30 -147.5t-30 -147t-86.5 -98t-133.5 -35t-133.5 35zM446 98q49 59 49 166t-49 166.5t-138 59.5q-90 0 -139 -59.5t-49 -166.5t49 -166t139 -59q89 0 138 59zM171 651v41h270
l3 -7v-41h-271z" />
    <glyph glyph-name="oslash" unicode="&#xf8;" horiz-adv-x="615" 
d="M558 264q0 -84 -30 -147t-86.5 -98t-133.5 -35q-97 0 -160 54l-46 -55l-32 27l48 58q-60 75 -60 196q0 84 30 147.5t86.5 98.5t133.5 35q97 0 160 -54l44 54l32 -28l-47 -56q61 -75 61 -197zM157 115l274 332q-48 43 -123 43q-90 0 -139 -59.5t-49 -166.5q0 -92 37 -149z
M446 98q49 59 49 166q0 91 -37 150l-274 -332q48 -43 124 -43q89 0 138 59z" />
    <glyph glyph-name="oslashacute" unicode="&#x1ff;" horiz-adv-x="615" 
d="M558 264q0 -84 -30 -147t-86.5 -98t-133.5 -35q-97 0 -160 54l-46 -55l-32 27l48 58q-60 75 -60 196q0 84 30 147.5t86.5 98.5t133.5 35q97 0 160 -54l44 54l32 -28l-47 -56q61 -75 61 -197zM157 115l274 332q-48 43 -123 43q-90 0 -139 -59.5t-49 -166.5q0 -92 37 -149z
M446 98q49 59 49 166q0 91 -37 150l-274 -332q48 -43 124 -43q89 0 138 59zM244 626q42 71 75 133h68l1 -7q-35 -51 -84 -133h-59z" />
    <glyph glyph-name="otilde" unicode="&#xf5;" horiz-adv-x="615" 
d="M174.5 19q-56.5 35 -86.5 98t-30 147t30 147.5t86.5 98.5t133.5 35t133.5 -35t86.5 -98.5t30 -147.5t-30 -147t-86.5 -98t-133.5 -35t-133.5 35zM446 98q49 59 49 166t-49 166.5t-138 59.5q-90 0 -139 -59.5t-49 -166.5t49 -166t139 -59q89 0 138 59zM160 672
q0 35 18.5 54.5t54.5 19.5q25 0 42.5 -9t40.5 -27q17 -14 29.5 -21t26.5 -7q17 0 25.5 10.5t8.5 27.5q0 19 -8 32l3 7h47q11 -30 11 -53q0 -34 -19 -54t-54 -20q-25 0 -43.5 9.5t-40.5 27.5q-17 14 -29.5 20.5t-25.5 6.5q-17 0 -26 -10.5t-9 -27.5q0 -19 8 -32l-3 -7h-47
q-10 27 -10 53z" />
    <glyph glyph-name="oe" unicode="&#x153;" horiz-adv-x="1026" 
d="M173.5 19q-55.5 35 -85.5 98t-30 147t30 147.5t85.5 98.5t130.5 35q76 0 131 -39.5t80 -113.5h2q26 75 83 114t135 39q117 0 177 -77.5t55 -221.5l-3 -7l-415 -6q14 -194 206 -194q88 0 167 31l4 -6q-2 -9 -4.5 -22.5t-4.5 -30.5q-41 -13 -86 -20t-84 -7q-88 0 -148 38
t-84 110h-2q-28 -73 -81 -110.5t-128 -37.5t-130.5 35zM437 98.5q48 59.5 48 165.5q0 107 -48 166.5t-133 59.5q-87 0 -135.5 -59.5t-48.5 -166.5q0 -106 48.5 -165.5t135.5 -59.5q85 0 133 59.5zM905 292q0 96 -44.5 147t-127.5 51q-84 0 -132.5 -54.5t-52.5 -152.5z" />
    <glyph glyph-name="p" unicode="p" horiz-adv-x="614" 
d="M90 -193q3 42 3 230q1 38 1 127v88q0 176 -4 270l2 7h61l3 -6q-1 -22 -1 -104l3 -1q29 61 80.5 94t119.5 33q199 0 199 -269q0 -139 -64 -215.5t-185 -76.5q-70 0 -153 27q0 -94 4 -204l-2 -7h-65zM447 100q47 61 47 184q0 104 -38 154.5t-115 50.5q-55 0 -97 -26.5
t-65.5 -74.5t-23.5 -110v-213q35 -12 75.5 -19t72.5 -7q97 0 144 61z" />
    <glyph glyph-name="thorn" unicode="&#xfe;" horiz-adv-x="614" 
d="M89 -193q4 55 4 468v153q0 246 -4 309l2 7h65l2 -7q-3 -63 -3 -206l-1 -114l2 -1q29 61 81.5 95t119.5 34q199 0 199 -266q0 -140 -64.5 -217.5t-183.5 -77.5q-71 0 -154 27q0 -98 4 -204l-2 -7h-65zM446.5 99q46.5 60 46.5 180q0 107 -38 158.5t-114 51.5
q-55 0 -97.5 -26.5t-66 -74.5t-23.5 -110v-213q36 -12 76.5 -19t72.5 -7q97 0 143.5 60z" />
    <glyph glyph-name="q" unicode="q" horiz-adv-x="615" 
d="M455 -193q4 68 4 196q0 78 2 110l-2 1q-26 -61 -80 -95.5t-126 -34.5q-97 0 -146 66t-49 195q0 144 58.5 222t179.5 78q39 0 74 -5t94 -16q36 -7 59 -11l3 -7q-4 -67 -4 -234q-1 -23 -1 -68q-1 -51 -1 -157q0 -188 4 -240l-2 -7h-65zM407.5 97.5q51.5 58.5 51.5 153.5
v218q-92 21 -153 21q-186 0 -186 -242q0 -106 37 -157.5t113 -51.5q86 0 137.5 58.5z" />
    <glyph glyph-name="r" unicode="r" horiz-adv-x="438" 
d="M90 7q4 100 4 254q0 161 -4 261l2 7h61l3 -6q-1 -29 -1 -104l3 -1q27 59 79 93t120 34q25 0 38 -3q6 -42 8 -59l-3 -7q-21 6 -51 6q-55 0 -99.5 -26t-69.5 -72t-25 -105q0 -205 4 -272l-2 -7h-65z" />
    <glyph glyph-name="racute" unicode="&#x155;" horiz-adv-x="438" 
d="M90 7q4 100 4 254q0 161 -4 261l2 7h61l3 -6q-1 -29 -1 -104l3 -1q27 59 79 93t120 34q25 0 38 -3q6 -42 8 -59l-3 -7q-21 6 -51 6q-55 0 -99.5 -26t-69.5 -72t-25 -105q0 -205 4 -272l-2 -7h-65zM170 626q42 71 75 133h68l1 -7q-35 -51 -84 -133h-59z" />
    <glyph glyph-name="rcaron" unicode="&#x159;" horiz-adv-x="438" 
d="M90 7q4 100 4 254q0 161 -4 261l2 7h61l3 -6q-1 -29 -1 -104l3 -1q27 59 79 93t120 34q25 0 38 -3q6 -42 8 -59l-3 -7q-21 6 -51 6q-55 0 -99.5 -26t-69.5 -72t-25 -105q0 -205 4 -272l-2 -7h-65zM73 752l1 7h67l93 -98l93 98h67l2 -7l-127 -133h-69z" />
    <glyph glyph-name="rcommaaccent" unicode="&#x157;" horiz-adv-x="438" 
d="M90 7q4 100 4 254q0 161 -4 261l2 7h61l3 -6q-1 -29 -1 -104l3 -1q27 59 79 93t120 34q25 0 38 -3q6 -42 8 -59l-3 -7q-21 6 -51 6q-55 0 -99.5 -26t-69.5 -72t-25 -105q0 -205 4 -272l-2 -7h-65zM91 -259q28 46 31 94q-18 1 -29 12t-11 32q0 19 12 33t34 14
q23 0 35.5 -14t12.5 -40q0 -38 -9.5 -70t-29.5 -67h-42z" />
    <glyph glyph-name="s" unicode="s" horiz-adv-x="477" 
d="M73 6q-8 48 -9 53l3 6q46 -14 80 -20t72 -6q142 0 142 92q0 42 -31 68t-105 47q-94 26 -131.5 63.5t-37.5 96.5q0 69 46.5 104t136.5 35q40 0 74 -5t76 -16q2 -17 4.5 -30.5t4.5 -22.5l-4 -6q-42 12 -77 18.5t-76 6.5q-63 0 -93 -20.5t-30 -64.5q0 -39 28 -61.5t97 -43.5
q68 -21 107 -43.5t56 -52.5t17 -74q0 -71 -51.5 -108.5t-150.5 -37.5q-68 0 -148 22z" />
    <glyph glyph-name="sacute" unicode="&#x15b;" horiz-adv-x="477" 
d="M73 6q-8 48 -9 53l3 6q46 -14 80 -20t72 -6q142 0 142 92q0 42 -31 68t-105 47q-94 26 -131.5 63.5t-37.5 96.5q0 69 46.5 104t136.5 35q40 0 74 -5t76 -16q2 -17 4.5 -30.5t4.5 -22.5l-4 -6q-42 12 -77 18.5t-76 6.5q-63 0 -93 -20.5t-30 -64.5q0 -39 28 -61.5t97 -43.5
q68 -21 107 -43.5t56 -52.5t17 -74q0 -71 -51.5 -108.5t-150.5 -37.5q-68 0 -148 22zM166 626q42 71 75 133h68l1 -7q-35 -51 -84 -133h-59z" />
    <glyph glyph-name="scaron" unicode="&#x161;" horiz-adv-x="477" 
d="M73 6q-8 48 -9 53l3 6q46 -14 80 -20t72 -6q142 0 142 92q0 42 -31 68t-105 47q-94 26 -131.5 63.5t-37.5 96.5q0 69 46.5 104t136.5 35q40 0 74 -5t76 -16q2 -17 4.5 -30.5t4.5 -22.5l-4 -6q-42 12 -77 18.5t-76 6.5q-63 0 -93 -20.5t-30 -64.5q0 -39 28 -61.5t97 -43.5
q68 -21 107 -43.5t56 -52.5t17 -74q0 -71 -51.5 -108.5t-150.5 -37.5q-68 0 -148 22zM69 752l1 7h67l93 -98l93 98h67l2 -7l-127 -133h-69z" />
    <glyph glyph-name="scedilla" unicode="&#x15f;" horiz-adv-x="477" 
d="M73 6q-8 48 -9 53l3 6q46 -14 80 -20t72 -6q142 0 142 92q0 42 -31 68t-105 47q-94 26 -131.5 63.5t-37.5 96.5q0 69 46.5 104t136.5 35q40 0 74 -5t76 -16q2 -17 4.5 -30.5t4.5 -22.5l-4 -6q-42 12 -77 18.5t-76 6.5q-63 0 -93 -20.5t-30 -64.5q0 -39 28 -61.5t97 -43.5
q68 -21 107 -43.5t56 -52.5t17 -74q0 -71 -51.5 -108.5t-150.5 -37.5q-68 0 -148 22zM183 -215q-27 5 -43 11l-5 43l3 4q17 -8 41 -13t46 -5q30 0 46 9.5t16 28.5q0 23 -26 32t-89 8l-3 4l55 91h39l-39 -65q119 -1 119 -76q0 -36 -29 -56.5t-80 -20.5q-24 0 -51 5z" />
    <glyph glyph-name="scommaaccent" unicode="&#x219;" horiz-adv-x="477" 
d="M73 6q-8 48 -9 53l3 6q46 -14 80 -20t72 -6q142 0 142 92q0 42 -31 68t-105 47q-94 26 -131.5 63.5t-37.5 96.5q0 69 46.5 104t136.5 35q40 0 74 -5t76 -16q2 -17 4.5 -30.5t4.5 -22.5l-4 -6q-42 12 -77 18.5t-76 6.5q-63 0 -93 -20.5t-30 -64.5q0 -39 28 -61.5t97 -43.5
q68 -21 107 -43.5t56 -52.5t17 -74q0 -71 -51.5 -108.5t-150.5 -37.5q-68 0 -148 22zM198 -274q28 46 31 94q-18 1 -29 12t-11 32q0 19 12 33t34 14q23 0 35.5 -14t12.5 -40q0 -38 -9.5 -70t-29.5 -67h-42z" />
    <glyph glyph-name="germandbls" unicode="&#xdf;" horiz-adv-x="618" 
d="M321 -10.5q-40 5.5 -74 14.5l-9 54l3 5q78 -24 148 -24q52 0 82.5 25.5t30.5 67.5q0 39 -22 64.5t-66 57.5q-47 34 -71.5 63t-24.5 74q0 33 14.5 57t43.5 56q28 30 42.5 54t14.5 56q0 42 -33.5 66.5t-96.5 24.5q-78 0 -113 -40t-36 -125l-1 -175q0 -273 5 -358l-2 -7h-65
l-2 7q4 56 4 358v180q0 215 211 215q91 0 141 -39.5t50 -104.5q0 -45 -17.5 -75t-49.5 -64q-25 -27 -36 -44t-11 -40q0 -26 18 -46t56 -48q34 -26 56 -46.5t37.5 -51t15.5 -70.5q0 -67 -45 -107t-125 -40q-33 0 -73 5.5z" />
    <glyph glyph-name="t" unicode="t" horiz-adv-x="423" 
d="M148 22q-36 38 -36 128v325h-88v54h87q0 38 -2 90l-1 22l2 6l60 14l3 -6v-126h188l2 -6l-7 -48h-183v-321q0 -64 23.5 -89.5t73.5 -25.5q48 0 104 18l2 -7l-9 -49q-46 -17 -104 -17q-79 0 -115 38z" />
    <glyph glyph-name="tbar" unicode="&#x167;" horiz-adv-x="423" 
d="M376 50l-9 -49q-46 -17 -104 -17q-79 0 -115 38t-36 128v141h-79v44h79v140h-88v54h87q0 38 -2 90l-1 22l2 6l60 14l3 -6v-126h188l2 -6l-7 -48h-183v-140h160l3 -6l-6 -38h-157v-137q0 -64 23.5 -89.5t73.5 -25.5q48 0 104 18z" />
    <glyph glyph-name="tcaron" unicode="&#x165;" horiz-adv-x="423" 
d="M292 624q17 115 26 207h55l3 -7q-26 -138 -37 -207h-45zM148 22q-36 38 -36 128v325h-88v54h87q0 38 -2 90l-1 22l2 6l60 14l3 -6v-126h188l2 -6l-7 -48h-183v-321q0 -64 23.5 -89.5t73.5 -25.5q48 0 104 18l2 -7l-9 -49q-46 -17 -104 -17q-79 0 -115 38z" />
    <glyph glyph-name="uni0163" unicode="&#x163;" horiz-adv-x="423" 
d="M148 22q-36 38 -36 128v325h-88v54h87q0 38 -2 90l-1 22l2 6l60 14l3 -6v-126h188l2 -6l-7 -48h-183v-321q0 -64 23.5 -89.5t73.5 -25.5q48 0 104 18l2 -7l-9 -49q-46 -17 -104 -17q-79 0 -115 38zM210 -215q-27 5 -43 11l-5 43l3 4q17 -8 41 -13t46 -5q30 0 46 9.5
t16 28.5q0 23 -26 32t-89 8l-3 4l55 91h39l-39 -65q119 -1 119 -76q0 -36 -29 -56.5t-80 -20.5q-24 0 -51 5z" />
    <glyph glyph-name="uni021B" unicode="&#x21b;" horiz-adv-x="423" 
d="M148 22q-36 38 -36 128v325h-88v54h87q0 38 -2 90l-1 22l2 6l60 14l3 -6v-126h188l2 -6l-7 -48h-183v-321q0 -64 23.5 -89.5t73.5 -25.5q48 0 104 18l2 -7l-9 -49q-46 -17 -104 -17q-79 0 -115 38zM225 -274q28 46 31 94q-18 1 -29 12t-11 32q0 19 12 33t34 14
q23 0 35.5 -14t12.5 -40q0 -38 -9.5 -70t-29.5 -67h-42z" />
    <glyph glyph-name="u" unicode="u" horiz-adv-x="629" 
d="M138 34q-44 50 -44 147v87q0 193 -4 254l2 7h65l2 -7q-4 -61 -4 -254v-75q0 -81 31.5 -117.5t98.5 -36.5q54 0 97 28t67.5 77.5t24.5 112.5q0 200 -4 265l2 7h65l2 -7q-4 -65 -4 -255q0 -196 5 -260l-3 -7h-61l-3 6q1 11 1 38q0 42 -1 65l-2 1q-31 -61 -84 -93.5
t-121 -32.5q-84 0 -128 50z" />
    <glyph glyph-name="uacute" unicode="&#xfa;" horiz-adv-x="629" 
d="M138 34q-44 50 -44 147v87q0 193 -4 254l2 7h65l2 -7q-4 -61 -4 -254v-75q0 -81 31.5 -117.5t98.5 -36.5q54 0 97 28t67.5 77.5t24.5 112.5q0 200 -4 265l2 7h65l2 -7q-4 -65 -4 -255q0 -196 5 -260l-3 -7h-61l-3 6q1 11 1 38q0 42 -1 65l-2 1q-31 -61 -84 -93.5
t-121 -32.5q-84 0 -128 50zM251 610q42 71 75 133h68l1 -7q-35 -51 -84 -133h-59z" />
    <glyph glyph-name="ubreve" unicode="&#x16d;" horiz-adv-x="629" 
d="M138 34q-44 50 -44 147v87q0 193 -4 254l2 7h65l2 -7q-4 -61 -4 -254v-75q0 -81 31.5 -117.5t98.5 -36.5q54 0 97 28t67.5 77.5t24.5 112.5q0 200 -4 265l2 7h65l2 -7q-4 -65 -4 -255q0 -196 5 -260l-3 -7h-61l-3 6q1 11 1 38q0 42 -1 65l-2 1q-31 -61 -84 -93.5
t-121 -32.5q-84 0 -128 50zM208 638q-38 35 -38 98l2 7h52l3 -7q-1 -40 23 -64t65 -24t65 24t23 64l3 7h52l2 -7q0 -63 -38 -98t-107 -35t-107 35z" />
    <glyph glyph-name="ucircumflex" unicode="&#xfb;" horiz-adv-x="629" 
d="M138 34q-44 50 -44 147v87q0 193 -4 254l2 7h65l2 -7q-4 -61 -4 -254v-75q0 -81 31.5 -117.5t98.5 -36.5q54 0 97 28t67.5 77.5t24.5 112.5q0 200 -4 265l2 7h65l2 -7q-4 -65 -4 -255q0 -196 5 -260l-3 -7h-61l-3 6q1 11 1 38q0 42 -1 65l-2 1q-31 -61 -84 -93.5
t-121 -32.5q-84 0 -128 50zM477 610l-2 -7h-67l-93 98l-93 -98h-67l-1 7l127 133h69z" />
    <glyph glyph-name="udieresis" unicode="&#xfc;" horiz-adv-x="629" 
d="M138 34q-44 50 -44 147v87q0 193 -4 254l2 7h65l2 -7q-4 -61 -4 -254v-75q0 -81 31.5 -117.5t98.5 -36.5q54 0 97 28t67.5 77.5t24.5 112.5q0 200 -4 265l2 7h65l2 -7q-4 -65 -4 -255q0 -196 5 -260l-3 -7h-61l-3 6q1 11 1 38q0 42 -1 65l-2 1q-31 -61 -84 -93.5
t-121 -32.5q-84 0 -128 50zM178.5 624.5q-12.5 12.5 -12.5 35.5q0 22 12.5 34.5t31.5 12.5t31.5 -12.5t12.5 -34.5q0 -23 -12.5 -35.5t-31.5 -12.5t-31.5 12.5zM388.5 624.5q-12.5 12.5 -12.5 35.5q0 22 12.5 34.5t31.5 12.5t31.5 -12.5t12.5 -34.5q0 -23 -12.5 -35.5
t-31.5 -12.5t-31.5 12.5z" />
    <glyph glyph-name="ugrave" unicode="&#xf9;" horiz-adv-x="629" 
d="M138 34q-44 50 -44 147v87q0 193 -4 254l2 7h65l2 -7q-4 -61 -4 -254v-75q0 -81 31.5 -117.5t98.5 -36.5q54 0 97 28t67.5 77.5t24.5 112.5q0 200 -4 265l2 7h65l2 -7q-4 -65 -4 -255q0 -196 5 -260l-3 -7h-61l-3 6q1 11 1 38q0 42 -1 65l-2 1q-31 -61 -84 -93.5
t-121 -32.5q-84 0 -128 50zM224 736l1 7h68q23 -45 75 -133l-1 -7h-59q-37 62 -84 133z" />
    <glyph glyph-name="uhungarumlaut" unicode="&#x171;" horiz-adv-x="629" 
d="M138 34q-44 50 -44 147v87q0 193 -4 254l2 7h65l2 -7q-4 -61 -4 -254v-75q0 -81 31.5 -117.5t98.5 -36.5q54 0 97 28t67.5 77.5t24.5 112.5q0 200 -4 265l2 7h65l2 -7q-4 -65 -4 -255q0 -196 5 -260l-3 -7h-61l-3 6q1 11 1 38q0 42 -1 65l-2 1q-31 -61 -84 -93.5
t-121 -32.5q-84 0 -128 50zM165 610l24 54l15.5 35.5l18.5 43.5h66l1 -7l-15 -29q-40 -76 -53 -104h-56zM343 610l58 133h66l1 -7l-15 -29q-40 -76 -53 -104h-56z" />
    <glyph glyph-name="umacron" unicode="&#x16b;" horiz-adv-x="629" 
d="M138 34q-44 50 -44 147v87q0 193 -4 254l2 7h65l2 -7q-4 -61 -4 -254v-75q0 -81 31.5 -117.5t98.5 -36.5q54 0 97 28t67.5 77.5t24.5 112.5q0 200 -4 265l2 7h65l2 -7q-4 -65 -4 -255q0 -196 5 -260l-3 -7h-61l-3 6q1 11 1 38q0 42 -1 65l-2 1q-31 -61 -84 -93.5
t-121 -32.5q-84 0 -128 50zM178 635v41h270l3 -7v-41h-271z" />
    <glyph glyph-name="uogonek" unicode="&#x173;" horiz-adv-x="629" 
d="M138 34q-44 50 -44 147v87q0 193 -4 254l2 7h65l2 -7q-4 -61 -4 -254v-75q0 -81 31.5 -117.5t98.5 -36.5q54 0 97 28t67.5 77.5t24.5 112.5q0 200 -4 265l2 7h65l2 -7q-4 -65 -4 -255q0 -196 5 -260l-3 -7h-61l-3 6q1 11 1 38q0 42 -1 65l-2 1q-31 -61 -84 -93.5
t-121 -32.5q-84 0 -128 50zM532 -202q-44 -18 -91 -18q-42 0 -64.5 18.5t-22.5 52.5q0 74 122 149h59q-62 -39 -91.5 -71.5t-29.5 -61.5q0 -38 47 -38q17 0 38 5t36 12l3 -3z" />
    <glyph glyph-name="uring" unicode="&#x16f;" horiz-adv-x="629" 
d="M138 34q-44 50 -44 147v87q0 193 -4 254l2 7h65l2 -7q-4 -61 -4 -254v-75q0 -81 31.5 -117.5t98.5 -36.5q54 0 97 28t67.5 77.5t24.5 112.5q0 200 -4 265l2 7h65l2 -7q-4 -65 -4 -255q0 -196 5 -260l-3 -7h-61l-3 6q1 11 1 38q0 42 -1 65l-2 1q-31 -61 -84 -93.5
t-121 -32.5q-84 0 -128 50zM213 625q-36 22 -36 58t37 59t101 23q65 0 101 -22t36 -58t-37.5 -59t-100.5 -23q-65 0 -101 22zM376 651.5q23 11.5 23 32.5t-23.5 32.5t-61.5 11.5t-61.5 -11.5t-23.5 -32.5t23.5 -32.5t61.5 -11.5q39 0 62 11.5z" />
    <glyph glyph-name="utilde" unicode="&#x169;" horiz-adv-x="629" 
d="M138 34q-44 50 -44 147v87q0 193 -4 254l2 7h65l2 -7q-4 -61 -4 -254v-75q0 -81 31.5 -117.5t98.5 -36.5q54 0 97 28t67.5 77.5t24.5 112.5q0 200 -4 265l2 7h65l2 -7q-4 -65 -4 -255q0 -196 5 -260l-3 -7h-61l-3 6q1 11 1 38q0 42 -1 65l-2 1q-31 -61 -84 -93.5
t-121 -32.5q-84 0 -128 50zM167 656q0 35 18.5 54.5t54.5 19.5q25 0 42.5 -9t40.5 -27q17 -14 29.5 -21t26.5 -7q17 0 25.5 10.5t8.5 27.5q0 19 -8 32l3 7h47q11 -30 11 -53q0 -34 -19 -54t-54 -20q-25 0 -43.5 9.5t-40.5 27.5q-17 14 -29.5 20.5t-25.5 6.5q-17 0 -26 -10.5
t-9 -27.5q0 -19 8 -32l-3 -7h-47q-10 27 -10 53z" />
    <glyph glyph-name="v" unicode="v" horiz-adv-x="541" 
d="M230 6l-212 516l3 7h66l126 -320l51 -131h2l17 44l34 88l125 319h67l2 -7l-216 -516l-5 -6h-55z" />
    <glyph glyph-name="w" unicode="w" horiz-adv-x="810" 
d="M191 6l-165 516l3 7h66l97 -322l39 -127h2l6 21q21 70 28 91l101 337h63l96 -322l37 -127h2q13 40 37 122l101 327h66l2 -7l-169 -516l-5 -6h-67l-98 328q-15 46 -34 115h-2l-18 -60q-12 -40 -19 -60l-98 -323h-65z" />
    <glyph glyph-name="wacute" unicode="&#x1e83;" horiz-adv-x="810" 
d="M191 6l-165 516l3 7h66l97 -322l39 -127h2l6 21q21 70 28 91l101 337h63l96 -322l37 -127h2q13 40 37 122l101 327h66l2 -7l-169 -516l-5 -6h-67l-98 328q-15 46 -34 115h-2l-18 -60q-12 -40 -19 -60l-98 -323h-65zM340 610q42 71 75 133h68l1 -7q-35 -51 -84 -133h-59z
" />
    <glyph glyph-name="wcircumflex" unicode="&#x175;" horiz-adv-x="810" 
d="M191 6l-165 516l3 7h66l97 -322l39 -127h2l6 21q21 70 28 91l101 337h63l96 -322l37 -127h2q13 40 37 122l101 327h66l2 -7l-169 -516l-5 -6h-67l-98 328q-15 46 -34 115h-2l-18 -60q-12 -40 -19 -60l-98 -323h-65zM566 610l-2 -7h-67l-93 98l-93 -98h-67l-1 7l127 133
h69z" />
    <glyph glyph-name="wdieresis" unicode="&#x1e85;" horiz-adv-x="810" 
d="M191 6l-165 516l3 7h66l97 -322l39 -127h2l6 21q21 70 28 91l101 337h63l96 -322l37 -127h2q13 40 37 122l101 327h66l2 -7l-169 -516l-5 -6h-67l-98 328q-15 46 -34 115h-2l-18 -60q-12 -40 -19 -60l-98 -323h-65zM267.5 624.5q-12.5 12.5 -12.5 35.5q0 22 12.5 34.5
t31.5 12.5t31.5 -12.5t12.5 -34.5q0 -23 -12.5 -35.5t-31.5 -12.5t-31.5 12.5zM477.5 624.5q-12.5 12.5 -12.5 35.5q0 22 12.5 34.5t31.5 12.5t31.5 -12.5t12.5 -34.5q0 -23 -12.5 -35.5t-31.5 -12.5t-31.5 12.5z" />
    <glyph glyph-name="wgrave" unicode="&#x1e81;" horiz-adv-x="810" 
d="M191 6l-165 516l3 7h66l97 -322l39 -127h2l6 21q21 70 28 91l101 337h63l96 -322l37 -127h2q13 40 37 122l101 327h66l2 -7l-169 -516l-5 -6h-67l-98 328q-15 46 -34 115h-2l-18 -60q-12 -40 -19 -60l-98 -323h-65zM313 736l1 7h68q23 -45 75 -133l-1 -7h-59
q-37 62 -84 133z" />
    <glyph glyph-name="x" unicode="x" horiz-adv-x="542" 
d="M22 7l208 267l-194 248l2 7h71l160 -212h3l161 212h71l3 -7l-196 -248l209 -267l-3 -7h-68l-177 232h-2l-177 -232h-68z" />
    <glyph glyph-name="y" unicode="y" horiz-adv-x="539" 
d="M151 -193l98 227l-225 488l2 7h66l125 -276l63 -141h2l15 37l41 102l113 278h65l2 -7l-303 -722h-62z" />
    <glyph glyph-name="yacute" unicode="&#xfd;" horiz-adv-x="539" 
d="M151 -193l98 227l-225 488l2 7h66l125 -276l63 -141h2l15 37l41 102l113 278h65l2 -7l-303 -722h-62zM211 610q42 71 75 133h68l1 -7q-35 -51 -84 -133h-59z" />
    <glyph glyph-name="ycircumflex" unicode="&#x177;" horiz-adv-x="539" 
d="M151 -193l98 227l-225 488l2 7h66l125 -276l63 -141h2l15 37l41 102l113 278h65l2 -7l-303 -722h-62zM437 610l-2 -7h-67l-93 98l-93 -98h-67l-1 7l127 133h69z" />
    <glyph glyph-name="ydieresis" unicode="&#xff;" horiz-adv-x="539" 
d="M151 -193l98 227l-225 488l2 7h66l125 -276l63 -141h2l15 37l41 102l113 278h65l2 -7l-303 -722h-62zM138.5 624.5q-12.5 12.5 -12.5 35.5q0 22 12.5 34.5t31.5 12.5t31.5 -12.5t12.5 -34.5q0 -23 -12.5 -35.5t-31.5 -12.5t-31.5 12.5zM348.5 624.5
q-12.5 12.5 -12.5 35.5q0 22 12.5 34.5t31.5 12.5t31.5 -12.5t12.5 -34.5q0 -23 -12.5 -35.5t-31.5 -12.5t-31.5 12.5z" />
    <glyph glyph-name="ygrave" unicode="&#x1ef3;" horiz-adv-x="539" 
d="M151 -193l98 227l-225 488l2 7h66l125 -276l63 -141h2l15 37l41 102l113 278h65l2 -7l-303 -722h-62zM184 736l1 7h68q23 -45 75 -133l-1 -7h-59q-37 62 -84 133z" />
    <glyph glyph-name="z" unicode="z" horiz-adv-x="508" 
d="M40 7v39l264 333l27 33q16 22 50 62v1h-111h-216l-2 6l7 48h403v-47l-270 -338q-14 -16 -20 -25l-54 -64l1 -2q35 1 105 1h236l3 -6l-7 -48h-413z" />
    <glyph glyph-name="zacute" unicode="&#x17a;" horiz-adv-x="508" 
d="M40 7v39l264 333l27 33q16 22 50 62v1h-111h-216l-2 6l7 48h403v-47l-270 -338q-14 -16 -20 -25l-54 -64l1 -2q35 1 105 1h236l3 -6l-7 -48h-413zM189 610q42 71 75 133h68l1 -7q-35 -51 -84 -133h-59z" />
    <glyph glyph-name="zcaron" unicode="&#x17e;" horiz-adv-x="508" 
d="M40 7v39l264 333l27 33q16 22 50 62v1h-111h-216l-2 6l7 48h403v-47l-270 -338q-14 -16 -20 -25l-54 -64l1 -2q35 1 105 1h236l3 -6l-7 -48h-413zM92 736l1 7h67l93 -98l93 98h67l2 -7l-127 -133h-69z" />
    <glyph glyph-name="zdotaccent" unicode="&#x17c;" horiz-adv-x="508" 
d="M40 7v39l264 333l27 33q16 22 50 62v1h-111h-216l-2 6l7 48h403v-47l-270 -338q-14 -16 -20 -25l-54 -64l1 -2q35 1 105 1h236l3 -6l-7 -48h-413zM221.5 624.5q-12.5 12.5 -12.5 35.5q0 22 12.5 34.5t31.5 12.5t31.5 -12.5t12.5 -34.5q0 -23 -12.5 -35.5t-31.5 -12.5
t-31.5 12.5z" />
    <glyph glyph-name="germandbls.calt" horiz-adv-x="762" 
d="M632.5 365q61.5 -55 61.5 -154q0 -68 -28.5 -119.5t-81 -79.5t-122.5 -28q-53 0 -95 7t-92 23l-9 53l4 8q54 -18 94.5 -25t90.5 -7q80 0 125 44.5t45 123.5q0 77 -48.5 115t-148.5 38h-81l-3 7v39l184 265h-354q-2 -94 -2 -206q-1 -31 -1 -102v-90q0 -198 5 -270l-3 -7
h-67l-2 7q4 86 4 268v92v88q0 35 -1 136t-3 136l2 7h508v-46l-191 -268h31q117 0 178.5 -55z" />
    <glyph glyph-name="g.ss01" horiz-adv-x="567" 
d="M180.5 -206.5q-54.5 9.5 -116.5 29.5q-2 17 -4.5 30.5t-4.5 22.5l4 6q60 -23 115 -33t117 -10q161 0 161 79q0 30 -24 45.5t-59 20t-95 7.5q-62 3 -100.5 8.5t-65 23.5t-26.5 53q0 36 28 56t80 24v2q-68 16 -105.5 65t-37.5 119q0 94 63.5 148.5t173.5 54.5q18 0 56 -4
q9 -1 21.5 -2t26.5 -1q39 0 64.5 12t38.5 47l6 3l39 -36q-12 -28 -32.5 -40.5t-50.5 -12.5q-16 0 -36 3v-2q51 -22 77.5 -66.5t26.5 -102.5q0 -93 -64 -148t-173 -55q-67 0 -104.5 -10.5t-37.5 -37.5t33 -35t105 -12q73 -3 120 -11t81 -35t34 -81q0 -65 -57 -99.5
t-165 -34.5q-58 0 -112.5 9.5zM412 235q46 39 46 107q0 69 -46.5 109t-127.5 40t-127.5 -40t-46.5 -109q0 -68 46 -107t128 -39t128 39z" />
    <glyph glyph-name="gbreve.ss01" horiz-adv-x="567" 
d="M180.5 -206.5q-54.5 9.5 -116.5 29.5q-2 17 -4.5 30.5t-4.5 22.5l4 6q60 -23 115 -33t117 -10q161 0 161 79q0 30 -24 45.5t-59 20t-95 7.5q-62 3 -100.5 8.5t-65 23.5t-26.5 53q0 36 28 56t80 24v2q-68 16 -105.5 65t-37.5 119q0 94 63.5 148.5t173.5 54.5q18 0 56 -4
q9 -1 21.5 -2t26.5 -1q39 0 64.5 12t38.5 47l6 3l39 -36q-12 -28 -32.5 -40.5t-50.5 -12.5q-16 0 -36 3v-2q51 -22 77.5 -66.5t26.5 -102.5q0 -93 -64 -148t-173 -55q-67 0 -104.5 -10.5t-37.5 -37.5t33 -35t105 -12q73 -3 120 -11t81 -35t34 -81q0 -65 -57 -99.5
t-165 -34.5q-58 0 -112.5 9.5zM412 235q46 39 46 107q0 69 -46.5 109t-127.5 40t-127.5 -40t-46.5 -109q0 -68 46 -107t128 -39t128 39zM175 654q-38 35 -38 98l2 7h52l3 -7q-1 -40 23 -64t65 -24t65 24t23 64l3 7h52l2 -7q0 -63 -38 -98t-107 -35t-107 35z" />
    <glyph glyph-name="gcommaaccent.ss01" horiz-adv-x="567" 
d="M180.5 -206.5q-54.5 9.5 -116.5 29.5q-2 17 -4.5 30.5t-4.5 22.5l4 6q60 -23 115 -33t117 -10q161 0 161 79q0 30 -24 45.5t-59 20t-95 7.5q-62 3 -100.5 8.5t-65 23.5t-26.5 53q0 36 28 56t80 24v2q-68 16 -105.5 65t-37.5 119q0 94 63.5 148.5t173.5 54.5q18 0 56 -4
q9 -1 21.5 -2t26.5 -1q39 0 64.5 12t38.5 47l6 3l39 -36q-12 -28 -32.5 -40.5t-50.5 -12.5q-16 0 -36 3v-2q51 -22 77.5 -66.5t26.5 -102.5q0 -93 -64 -148t-173 -55q-67 0 -104.5 -10.5t-37.5 -37.5t33 -35t105 -12q73 -3 120 -11t81 -35t34 -81q0 -65 -57 -99.5
t-165 -34.5q-58 0 -112.5 9.5zM412 235q46 39 46 107q0 69 -46.5 109t-127.5 40t-127.5 -40t-46.5 -109q0 -68 46 -107t128 -39t128 39zM320 804q-28 -46 -31 -94q18 -1 29 -12t11 -32q0 -19 -12 -33t-34 -14q-23 0 -35.5 14t-12.5 40q0 38 9.5 70t29.5 67h42z" />
    <glyph glyph-name="gdotaccent.ss01" horiz-adv-x="567" 
d="M180.5 -206.5q-54.5 9.5 -116.5 29.5q-2 17 -4.5 30.5t-4.5 22.5l4 6q60 -23 115 -33t117 -10q161 0 161 79q0 30 -24 45.5t-59 20t-95 7.5q-62 3 -100.5 8.5t-65 23.5t-26.5 53q0 36 28 56t80 24v2q-68 16 -105.5 65t-37.5 119q0 94 63.5 148.5t173.5 54.5q18 0 56 -4
q9 -1 21.5 -2t26.5 -1q39 0 64.5 12t38.5 47l6 3l39 -36q-12 -28 -32.5 -40.5t-50.5 -12.5q-16 0 -36 3v-2q51 -22 77.5 -66.5t26.5 -102.5q0 -93 -64 -148t-173 -55q-67 0 -104.5 -10.5t-37.5 -37.5t33 -35t105 -12q73 -3 120 -11t81 -35t34 -81q0 -65 -57 -99.5
t-165 -34.5q-58 0 -112.5 9.5zM412 235q46 39 46 107q0 69 -46.5 109t-127.5 40t-127.5 -40t-46.5 -109q0 -68 46 -107t128 -39t128 39zM250.5 640.5q-12.5 12.5 -12.5 35.5q0 22 12.5 34.5t31.5 12.5t31.5 -12.5t12.5 -34.5q0 -23 -12.5 -35.5t-31.5 -12.5t-31.5 12.5z" />
    <glyph glyph-name="g.ss02" horiz-adv-x="584" 
d="M185.5 -206.5q-56.5 9.5 -121.5 29.5q-2 17 -4.5 30.5t-4.5 22.5l4 6q63 -23 120.5 -33t122.5 -10q167 0 167 79q0 30 -25 45.5t-61.5 20t-98.5 7.5q-65 3 -105.5 8.5t-68 23.5t-27.5 53q0 36 29.5 56t83.5 24v2q-71 12 -110 62.5t-39 121.5q0 94 66 148.5t179 54.5
q21 0 59 -4q10 -1 22.5 -2t27.5 -1q40 0 66.5 12t39.5 47l7 3l39 -36q-12 -28 -33 -40.5t-53 -12.5q-17 0 -37 3v-2q53 -22 80 -66.5t27 -102.5q0 -93 -66 -148t-179 -55q-70 0 -108 -10.5t-38 -37.5t34 -35t109 -12q76 -3 124.5 -11t83.5 -35t35 -81q0 -65 -59 -99.5
t-171 -34.5q-60 0 -116.5 9.5zM426.5 235q48.5 39 48.5 107q0 69 -49 109t-134 40t-134 -40t-49 -109q0 -68 48.5 -107t134.5 -39t134.5 39z" />
    <glyph glyph-name="gbreve.ss02" horiz-adv-x="584" 
d="M185.5 -206.5q-56.5 9.5 -121.5 29.5q-2 17 -4.5 30.5t-4.5 22.5l4 6q63 -23 120.5 -33t122.5 -10q167 0 167 79q0 30 -25 45.5t-61.5 20t-98.5 7.5q-65 3 -105.5 8.5t-68 23.5t-27.5 53q0 36 29.5 56t83.5 24v2q-71 12 -110 62.5t-39 121.5q0 94 66 148.5t179 54.5
q21 0 59 -4q10 -1 22.5 -2t27.5 -1q40 0 66.5 12t39.5 47l7 3l39 -36q-12 -28 -33 -40.5t-53 -12.5q-17 0 -37 3v-2q53 -22 80 -66.5t27 -102.5q0 -93 -66 -148t-179 -55q-70 0 -108 -10.5t-38 -37.5t34 -35t109 -12q76 -3 124.5 -11t83.5 -35t35 -81q0 -65 -59 -99.5
t-171 -34.5q-60 0 -116.5 9.5zM426.5 235q48.5 39 48.5 107q0 69 -49 109t-134 40t-134 -40t-49 -109q0 -68 48.5 -107t134.5 -39t134.5 39zM180 654q-38 35 -38 98l2 7h52l3 -7q-1 -40 23 -64t65 -24t65 24t23 64l3 7h52l2 -7q0 -63 -38 -98t-107 -35t-107 35z" />
    <glyph glyph-name="gcommaaccent.ss02" horiz-adv-x="584" 
d="M185.5 -206.5q-56.5 9.5 -121.5 29.5q-2 17 -4.5 30.5t-4.5 22.5l4 6q63 -23 120.5 -33t122.5 -10q167 0 167 79q0 30 -25 45.5t-61.5 20t-98.5 7.5q-65 3 -105.5 8.5t-68 23.5t-27.5 53q0 36 29.5 56t83.5 24v2q-71 12 -110 62.5t-39 121.5q0 94 66 148.5t179 54.5
q21 0 59 -4q10 -1 22.5 -2t27.5 -1q40 0 66.5 12t39.5 47l7 3l39 -36q-12 -28 -33 -40.5t-53 -12.5q-17 0 -37 3v-2q53 -22 80 -66.5t27 -102.5q0 -93 -66 -148t-179 -55q-70 0 -108 -10.5t-38 -37.5t34 -35t109 -12q76 -3 124.5 -11t83.5 -35t35 -81q0 -65 -59 -99.5
t-171 -34.5q-60 0 -116.5 9.5zM426.5 235q48.5 39 48.5 107q0 69 -49 109t-134 40t-134 -40t-49 -109q0 -68 48.5 -107t134.5 -39t134.5 39zM325 804q-28 -46 -31 -94q18 -1 29 -12t11 -32q0 -19 -12 -33t-34 -14q-23 0 -35.5 14t-12.5 40q0 38 9.5 70t29.5 67h42z" />
    <glyph glyph-name="gdotaccent.ss02" horiz-adv-x="584" 
d="M185.5 -206.5q-56.5 9.5 -121.5 29.5q-2 17 -4.5 30.5t-4.5 22.5l4 6q63 -23 120.5 -33t122.5 -10q167 0 167 79q0 30 -25 45.5t-61.5 20t-98.5 7.5q-65 3 -105.5 8.5t-68 23.5t-27.5 53q0 36 29.5 56t83.5 24v2q-71 12 -110 62.5t-39 121.5q0 94 66 148.5t179 54.5
q21 0 59 -4q10 -1 22.5 -2t27.5 -1q40 0 66.5 12t39.5 47l7 3l39 -36q-12 -28 -33 -40.5t-53 -12.5q-17 0 -37 3v-2q53 -22 80 -66.5t27 -102.5q0 -93 -66 -148t-179 -55q-70 0 -108 -10.5t-38 -37.5t34 -35t109 -12q76 -3 124.5 -11t83.5 -35t35 -81q0 -65 -59 -99.5
t-171 -34.5q-60 0 -116.5 9.5zM426.5 235q48.5 39 48.5 107q0 69 -49 109t-134 40t-134 -40t-49 -109q0 -68 48.5 -107t134.5 -39t134.5 39zM255.5 640.5q-12.5 12.5 -12.5 35.5q0 22 12.5 34.5t31.5 12.5t31.5 -12.5t12.5 -34.5q0 -23 -12.5 -35.5t-31.5 -12.5t-31.5 12.5z
" />
    <glyph glyph-name="f_i" horiz-adv-x="714" 
d="M231 675q-23 -30 -23 -93v-53h204l3 -6l-7 -48h-200v-106q0 -286 4 -362l-2 -7h-65l-2 7q4 76 4 362v106h-88v54h88v47q0 94 39 139t122 45q49 0 117 -17q0 -3 9 -52l-5 -7q-61 21 -120 21q-55 0 -78 -30zM558.5 624.5q-12.5 12.5 -12.5 34.5t12.5 35t31.5 13
q18 0 30.5 -13t12.5 -35t-12.5 -34.5t-30.5 -12.5q-19 0 -31.5 12.5zM555 7q4 100 4 257q0 158 -4 258l2 7h65l2 -7q-4 -67 -4 -258q0 -190 4 -257l-2 -7h-65z" />
    <glyph glyph-name="f_l" horiz-adv-x="712" 
d="M231 675q-23 -30 -23 -93v-53h204l3 -6l-7 -48h-200v-106q0 -286 4 -362l-2 -7h-65l-2 7q4 76 4 362v106h-88v54h88v47q0 94 39 139t122 45q49 0 117 -17q0 -3 9 -52l-5 -7q-61 21 -120 21q-55 0 -78 -30zM554 7q5 70 5 232q0 85 -1 133q0 91 -1 131q0 192 -3 234l2 7h65
l2 -7q-3 -42 -3 -234q-1 -40 -1 -131v-119q0 -187 4 -246l-2 -7h-65z" />
    <glyph glyph-name="a.sc" horiz-adv-x="568" 
d="M504 127l50 -120l-2 -7h-63l-56 140h-298l-56 -140h-63l-3 7l235 568l6 7h60l6 -7zM412 192l-91 227l-36 95h-1q-8 -24 -28 -72l-10 -24l-90 -226h256z" />
    <glyph glyph-name="aacute.sc" horiz-adv-x="568" 
d="M504 127l50 -120l-2 -7h-63l-56 140h-298l-56 -140h-63l-3 7l235 568l6 7h60l6 -7zM412 192l-91 227l-36 95h-1q-8 -24 -28 -72l-10 -24l-90 -226h256zM220 663q39 64 69 121h69l1 -7q-44 -65 -78 -121h-60z" />
    <glyph glyph-name="abreve.sc" horiz-adv-x="568" 
d="M504 127l50 -120l-2 -7h-63l-56 140h-298l-56 -140h-63l-3 7l235 568l6 7h60l6 -7zM412 192l-91 227l-36 95h-1q-8 -24 -28 -72l-10 -24l-90 -226h256zM177 688.5q-38 32.5 -38 88.5l2 7h52l3 -7q-1 -34 23.5 -55t64.5 -21t64.5 21t23.5 55l3 7h52l2 -7q0 -56 -38 -88.5
t-107 -32.5t-107 32.5z" />
    <glyph glyph-name="acircumflex.sc" horiz-adv-x="568" 
d="M504 127l50 -120l-2 -7h-63l-56 140h-298l-56 -140h-63l-3 7l235 568l6 7h60l6 -7zM412 192l-91 227l-36 95h-1q-8 -24 -28 -72l-10 -24l-90 -226h256zM436 663l-2 -7h-67l-83 87l-83 -87h-67l-1 7q65 64 117 121h69q42 -48 117 -121z" />
    <glyph glyph-name="adieresis.sc" horiz-adv-x="568" 
d="M504 127l50 -120l-2 -7h-63l-56 140h-298l-56 -140h-63l-3 7l235 568l6 7h60l6 -7zM412 192l-91 227l-36 95h-1q-8 -24 -28 -72l-10 -24l-90 -226h256zM157.5 681.5q-12.5 12.5 -12.5 35.5q0 22 12.5 34.5t31.5 12.5t31.5 -12.5t12.5 -34.5q0 -23 -12.5 -35.5
t-31.5 -12.5t-31.5 12.5zM349 681.5q-13 12.5 -13 35.5q0 22 13 34.5t31 12.5q19 0 31.5 -12.5t12.5 -34.5q0 -23 -12.5 -35.5t-31.5 -12.5q-18 0 -31 12.5z" />
    <glyph glyph-name="agrave.sc" horiz-adv-x="568" 
d="M504 127l50 -120l-2 -7h-63l-56 140h-298l-56 -140h-63l-3 7l235 568l6 7h60l6 -7zM412 192l-91 227l-36 95h-1q-8 -24 -28 -72l-10 -24l-90 -226h256zM275 656q-31 52 -77 121l1 7h69q21 -41 69 -121l-1 -7h-61z" />
    <glyph glyph-name="amacron.sc" horiz-adv-x="568" 
d="M504 127l50 -120l-2 -7h-63l-56 140h-298l-56 -140h-63l-3 7l235 568l6 7h60l6 -7zM412 192l-91 227l-36 95h-1q-8 -24 -28 -72l-10 -24l-90 -226h256zM147 684v41h270l3 -6v-42h-271z" />
    <glyph glyph-name="aogonek.sc" horiz-adv-x="568" 
d="M504 127l50 -120l-2 -7h-63l-56 140h-298l-56 -140h-63l-3 7l235 568l6 7h60l6 -7zM412 192l-91 227l-36 95h-1q-8 -24 -28 -72l-10 -24l-90 -226h256zM547 -202q-44 -18 -91 -18q-42 0 -64.5 18.5t-22.5 52.5q0 74 122 149h59q-62 -39 -91.5 -71.5t-29.5 -61.5
q0 -38 47 -38q17 0 38 5t36 12l3 -3z" />
    <glyph glyph-name="aring.sc" horiz-adv-x="568" 
d="M504 127l50 -120l-2 -7h-63l-56 140h-298l-56 -140h-63l-3 7l235 568l6 7h60l6 -7zM412 192l-91 227l-36 95h-1q-8 -24 -28 -72l-10 -24l-90 -226h256zM182 669q-36 22 -36 58t37 59t101 23q65 0 101 -22t36 -58t-37.5 -59t-100.5 -23q-65 0 -101 22zM345 695.5
q23 11.5 23 32.5t-23.5 32.5t-61.5 11.5t-61.5 -11.5t-23.5 -32.5t23.5 -32.5t61.5 -11.5q39 0 62 11.5z" />
    <glyph glyph-name="aringacute.sc" horiz-adv-x="568" 
d="M504 127l50 -120l-2 -7h-63l-56 140h-298l-56 -140h-63l-3 7l235 568l6 7h60l6 -7zM412 192l-91 227l-36 95h-1q-8 -24 -28 -72l-10 -24l-90 -226h256zM182 669q-36 22 -36 58t37 59t101 23q65 0 101 -22t36 -58t-37.5 -59t-100.5 -23q-65 0 -101 22zM345 695.5
q23 11.5 23 32.5t-23.5 32.5t-61.5 11.5t-61.5 -11.5t-23.5 -32.5t23.5 -32.5t61.5 -11.5q39 0 62 11.5zM220 890q39 64 69 121h69l1 -7q-44 -65 -78 -121h-60z" />
    <glyph glyph-name="atilde.sc" horiz-adv-x="568" 
d="M504 127l50 -120l-2 -7h-63l-56 140h-298l-56 -140h-63l-3 7l235 568l6 7h60l6 -7zM412 192l-91 227l-36 95h-1q-8 -24 -28 -72l-10 -24l-90 -226h256zM136 702q0 35 18.5 54.5t54.5 19.5q25 0 42.5 -9t40.5 -27q17 -14 29.5 -21t26.5 -7q17 0 25.5 10.5t8.5 27.5
q0 19 -8 32l3 7h47q11 -30 11 -53q0 -34 -19 -54t-54 -20q-25 0 -43.5 9.5t-40.5 27.5q-17 14 -29.5 20.5t-25.5 6.5q-17 0 -26 -10.5t-9 -27.5q0 -19 8 -32l-3 -7h-47q-10 27 -10 53z" />
    <glyph glyph-name="ae.sc" horiz-adv-x="833" 
d="M13 7l371 568l8 7h383l7 -50l-3 -5h-293l-2 -206h267v-52h-267q0 -166 2 -214h302l3 -6l-7 -49h-363l-3 6q3 44 3 134h-249l-92 -140h-64zM422 192l-1 263q0 24 2 74h-2l-44 -68l-176 -269h221z" />
    <glyph glyph-name="aeacute.sc" horiz-adv-x="833" 
d="M13 7l371 568l8 7h383l7 -50l-3 -5h-293l-2 -206h267v-52h-267q0 -166 2 -214h302l3 -6l-7 -49h-363l-3 6q3 44 3 134h-249l-92 -140h-64zM422 192l-1 263q0 24 2 74h-2l-44 -68l-176 -269h221zM519 663q39 64 69 121h69l1 -7q-44 -65 -78 -121h-60z" />
    <glyph glyph-name="b.sc" horiz-adv-x="560" 
d="M93 5q4 82 4 217v69q0 220 -4 284l2 7h211q192 0 192 -140q0 -54 -30.5 -89t-81.5 -47v-2q64 -9 101 -45t37 -93q0 -81 -54.5 -123.5t-157.5 -42.5h-217zM287 325q74 0 110.5 27.5t36.5 83.5q0 49 -33.5 70t-102.5 21h-137q-2 -57 -2 -202h128zM304 55q78 0 116.5 26.5
t38.5 85.5q0 55 -40 81.5t-123 26.5h-137q0 -164 1 -220h144z" />
    <glyph glyph-name="c.sc" horiz-adv-x="547" 
d="M137.5 64.5q-74.5 80.5 -74.5 227.5q0 145 74 225.5t207 80.5q78 0 145 -19l7 -52l-3 -6q-71 21 -145 21q-107 0 -164 -64.5t-57 -186.5q0 -124 57.5 -187.5t168.5 -63.5q82 0 149 21l3 -7l-7 -52q-74 -18 -149 -18q-137 0 -211.5 80.5z" />
    <glyph glyph-name="cacute.sc" horiz-adv-x="547" 
d="M137.5 64.5q-74.5 80.5 -74.5 227.5q0 145 74 225.5t207 80.5q78 0 145 -19l7 -52l-3 -6q-71 21 -145 21q-107 0 -164 -64.5t-57 -186.5q0 -124 57.5 -187.5t168.5 -63.5q82 0 149 21l3 -7l-7 -52q-74 -18 -149 -18q-137 0 -211.5 80.5zM262 679q39 64 69 121h69l1 -7
q-44 -65 -78 -121h-60z" />
    <glyph glyph-name="ccaron.sc" horiz-adv-x="547" 
d="M137.5 64.5q-74.5 80.5 -74.5 227.5q0 145 74 225.5t207 80.5q78 0 145 -19l7 -52l-3 -6q-71 21 -145 21q-107 0 -164 -64.5t-57 -186.5q0 -124 57.5 -187.5t168.5 -63.5q82 0 149 21l3 -7l-7 -52q-74 -18 -149 -18q-137 0 -211.5 80.5zM292 672q-52 57 -117 121l1 7h67
l83 -87l83 87h67l2 -7q-75 -73 -117 -121h-69z" />
    <glyph glyph-name="ccedilla.sc" horiz-adv-x="547" 
d="M137.5 64.5q-74.5 80.5 -74.5 227.5q0 145 74 225.5t207 80.5q78 0 145 -19l7 -52l-3 -6q-71 21 -145 21q-107 0 -164 -64.5t-57 -186.5q0 -124 57.5 -187.5t168.5 -63.5q82 0 149 21l3 -7l-7 -52q-74 -18 -149 -18q-137 0 -211.5 80.5zM288 -215q-27 5 -43 11l-5 43l3 4
q17 -8 41 -13t46 -5q30 0 46 9.5t16 28.5q0 23 -26 32t-89 8l-3 4l55 91h39l-39 -65q119 -1 119 -76q0 -36 -29 -56.5t-80 -20.5q-24 0 -51 5z" />
    <glyph glyph-name="ccircumflex.sc" horiz-adv-x="547" 
d="M137.5 64.5q-74.5 80.5 -74.5 227.5q0 145 74 225.5t207 80.5q78 0 145 -19l7 -52l-3 -6q-71 21 -145 21q-107 0 -164 -64.5t-57 -186.5q0 -124 57.5 -187.5t168.5 -63.5q82 0 149 21l3 -7l-7 -52q-74 -18 -149 -18q-137 0 -211.5 80.5zM478 679l-2 -7h-67l-83 87
l-83 -87h-67l-1 7q65 64 117 121h69q42 -48 117 -121z" />
    <glyph glyph-name="cdotaccent.sc" horiz-adv-x="547" 
d="M137.5 64.5q-74.5 80.5 -74.5 227.5q0 145 74 225.5t207 80.5q78 0 145 -19l7 -52l-3 -6q-71 21 -145 21q-107 0 -164 -64.5t-57 -186.5q0 -124 57.5 -187.5t168.5 -63.5q82 0 149 21l3 -7l-7 -52q-74 -18 -149 -18q-137 0 -211.5 80.5zM294.5 695.5
q-12.5 12.5 -12.5 35.5q0 22 12.5 34.5t31.5 12.5t31.5 -12.5t12.5 -34.5q0 -23 -12.5 -35.5t-31.5 -12.5t-31.5 12.5z" />
    <glyph glyph-name="d.sc" horiz-adv-x="659" 
d="M521.5 508q75.5 -74 75.5 -217t-76 -217t-220 -74h-206l-2 6q4 51 4 285q0 197 -4 285l2 6h205q146 0 221.5 -74zM533 291q0 119 -59 178t-178 59h-134l-3 -237q0 -144 3 -237h133q238 0 238 237z" />
    <glyph glyph-name="eth.sc" horiz-adv-x="659" 
d="M521.5 508q75.5 -74 75.5 -217t-76 -217t-220 -74h-206l-2 6q4 49 4 272h-95l-2 5v39h97q0 172 -4 254l2 6h205q146 0 221.5 -74zM533 291q0 119 -59 178t-178 59h-134l-3 -206h171l2 -5v-39h-173q0 -135 3 -224h133q238 0 238 237z" />
    <glyph glyph-name="dcaron.sc" horiz-adv-x="659" 
d="M521.5 508q75.5 -74 75.5 -217t-76 -217t-220 -74h-206l-2 6q4 51 4 285q0 197 -4 285l2 6h205q146 0 221.5 -74zM533 291q0 119 -59 178t-178 59h-134l-3 -237q0 -144 3 -237h133q238 0 238 237zM251 656q-52 57 -117 121l1 7h67l83 -87l83 87h67l2 -7
q-75 -73 -117 -121h-69z" />
    <glyph glyph-name="dcroat.sc" horiz-adv-x="659" 
d="M521.5 508q75.5 -74 75.5 -217t-76 -217t-220 -74h-206l-2 6q4 49 4 272h-95l-2 5v39h97q0 172 -4 254l2 6h205q146 0 221.5 -74zM533 291q0 119 -59 178t-178 59h-134l-3 -206h171l2 -5v-39h-173q0 -135 3 -224h133q238 0 238 237z" />
    <glyph glyph-name="e.sc" horiz-adv-x="508" 
d="M466 49l-7 -49h-364l-2 7q4 78 4 214v70q0 220 -4 284l2 7h356l7 -50l-3 -5h-293l-3 -206h268v-52h-268q0 -139 3 -214h301z" />
    <glyph glyph-name="eacute.sc" horiz-adv-x="508" 
d="M466 49l-7 -49h-364l-2 7q4 78 4 214v70q0 220 -4 284l2 7h356l7 -50l-3 -5h-293l-3 -206h268v-52h-268q0 -139 3 -214h301zM205 663q39 64 69 121h69l1 -7q-44 -65 -78 -121h-60z" />
    <glyph glyph-name="ecaron.sc" horiz-adv-x="508" 
d="M466 49l-7 -49h-364l-2 7q4 78 4 214v70q0 220 -4 284l2 7h356l7 -50l-3 -5h-293l-3 -206h268v-52h-268q0 -139 3 -214h301zM235 656q-52 57 -117 121l1 7h67l83 -87l83 87h67l2 -7q-75 -73 -117 -121h-69z" />
    <glyph glyph-name="ecircumflex.sc" horiz-adv-x="508" 
d="M466 49l-7 -49h-364l-2 7q4 78 4 214v70q0 220 -4 284l2 7h356l7 -50l-3 -5h-293l-3 -206h268v-52h-268q0 -139 3 -214h301zM421 663l-2 -7h-67l-83 87l-83 -87h-67l-1 7q65 64 117 121h69q42 -48 117 -121z" />
    <glyph glyph-name="edieresis.sc" horiz-adv-x="508" 
d="M466 49l-7 -49h-364l-2 7q4 78 4 214v70q0 220 -4 284l2 7h356l7 -50l-3 -5h-293l-3 -206h268v-52h-268q0 -139 3 -214h301zM142.5 681.5q-12.5 12.5 -12.5 35.5q0 22 12.5 34.5t31.5 12.5t31.5 -12.5t12.5 -34.5q0 -23 -12.5 -35.5t-31.5 -12.5t-31.5 12.5zM334 681.5
q-13 12.5 -13 35.5q0 22 13 34.5t31 12.5q19 0 31.5 -12.5t12.5 -34.5q0 -23 -12.5 -35.5t-31.5 -12.5q-18 0 -31 12.5z" />
    <glyph glyph-name="edotaccent.sc" horiz-adv-x="508" 
d="M466 49l-7 -49h-364l-2 7q4 78 4 214v70q0 220 -4 284l2 7h356l7 -50l-3 -5h-293l-3 -206h268v-52h-268q0 -139 3 -214h301zM237.5 679.5q-12.5 12.5 -12.5 35.5q0 22 12.5 34.5t31.5 12.5t31.5 -12.5t12.5 -34.5q0 -23 -12.5 -35.5t-31.5 -12.5t-31.5 12.5z" />
    <glyph glyph-name="egrave.sc" horiz-adv-x="508" 
d="M466 49l-7 -49h-364l-2 7q4 78 4 214v70q0 220 -4 284l2 7h356l7 -50l-3 -5h-293l-3 -206h268v-52h-268q0 -139 3 -214h301zM260 656q-31 52 -77 121l1 7h69q21 -41 69 -121l-1 -7h-61z" />
    <glyph glyph-name="emacron.sc" horiz-adv-x="508" 
d="M466 49l-7 -49h-364l-2 7q4 78 4 214v70q0 220 -4 284l2 7h356l7 -50l-3 -5h-293l-3 -206h268v-52h-268q0 -139 3 -214h301zM132 684v41h270l3 -6v-42h-271z" />
    <glyph glyph-name="eogonek.sc" horiz-adv-x="508" 
d="M466 49l-7 -49h-364l-2 7q4 78 4 214v70q0 220 -4 284l2 7h356l7 -50l-3 -5h-293l-3 -206h268v-52h-268q0 -139 3 -214h301zM441 -202q-44 -18 -91 -18q-42 0 -64.5 18.5t-22.5 52.5q0 74 122 149h59q-62 -39 -91.5 -71.5t-29.5 -61.5q0 -38 47 -38q17 0 38 5t36 12l3 -3
z" />
    <glyph glyph-name="f.sc" horiz-adv-x="482" 
d="M162 527l-3 -219h255v-54h-255q0 -174 5 -247l-3 -7h-66l-2 7q4 78 4 214v70q0 220 -4 284l2 7h342l7 -50l-3 -5h-279z" />
    <glyph glyph-name="f_f.sc" horiz-adv-x="964" 
d="M162 527l-3 -219h255v-54h-255q0 -174 5 -247l-3 -7h-66l-2 7q4 78 4 214v70q0 220 -4 284l2 7h342l7 -50l-3 -5h-279zM644 527l-3 -219h255v-54h-255q0 -174 5 -247l-3 -7h-66l-2 7q4 78 4 214v70q0 220 -4 284l2 7h342l7 -50l-3 -5h-279z" />
    <glyph glyph-name="f_f_i.sc" horiz-adv-x="1221" 
d="M162 527l-3 -219h255v-54h-255q0 -174 5 -247l-3 -7h-66l-2 7q4 78 4 214v70q0 220 -4 284l2 7h342l7 -50l-3 -5h-279zM644 527l-3 -219h255v-54h-255q0 -174 5 -247l-3 -7h-66l-2 7q4 78 4 214v70q0 220 -4 284l2 7h342l7 -50l-3 -5h-279zM1057 7q4 78 4 214v70
q0 219 -4 284l2 7h66l3 -7q-3 -57 -5 -284q0 -202 5 -284l-3 -7h-66z" />
    <glyph glyph-name="f_f_l.sc" horiz-adv-x="1443" 
d="M162 527l-3 -219h255v-54h-255q0 -174 5 -247l-3 -7h-66l-2 7q4 78 4 214v70q0 220 -4 284l2 7h342l7 -50l-3 -5h-279zM644 527l-3 -219h255v-54h-255q0 -174 5 -247l-3 -7h-66l-2 7q4 78 4 214v70q0 220 -4 284l2 7h342l7 -50l-3 -5h-279zM1426 49l-7 -49h-360l-2 7
q4 78 4 214v70q0 220 -4 284l2 7h66l3 -7q-3 -53 -5 -284q0 -155 3 -236h297z" />
    <glyph glyph-name="f_i.sc" horiz-adv-x="739" 
d="M162 527l-3 -219h255v-54h-255q0 -174 5 -247l-3 -7h-66l-2 7q4 78 4 214v70q0 220 -4 284l2 7h342l7 -50l-3 -5h-279zM575 7q4 78 4 214v70q0 219 -4 284l2 7h66l3 -7q-3 -57 -5 -284q0 -202 5 -284l-3 -7h-66z" />
    <glyph glyph-name="f_l.sc" horiz-adv-x="961" 
d="M162 527l-3 -219h255v-54h-255q0 -174 5 -247l-3 -7h-66l-2 7q4 78 4 214v70q0 220 -4 284l2 7h342l7 -50l-3 -5h-279zM944 49l-7 -49h-360l-2 7q4 78 4 214v70q0 220 -4 284l2 7h66l3 -7q-3 -53 -5 -284q0 -155 3 -236h297z" />
    <glyph glyph-name="g.sc" horiz-adv-x="643" 
d="M140 64q-77 80 -77 227t78 227t225 80q41 0 84 -6t77 -15l7 -51l-3 -7q-33 11 -75.5 17t-82.5 6q-122 0 -184 -64t-62 -188t60.5 -187t181.5 -63q75 0 132 15q2 70 2 103q0 34 -2 102h-153l-3 5l7 46h202l3 -5l-1 -143q0 -49 2 -143l-2 -7q-42 -14 -93.5 -21.5
t-100.5 -7.5q-145 0 -222 80z" />
    <glyph glyph-name="gbreve.sc" horiz-adv-x="643" 
d="M140 64q-77 80 -77 227t78 227t225 80q41 0 84 -6t77 -15l7 -51l-3 -7q-33 11 -75.5 17t-82.5 6q-122 0 -184 -64t-62 -188t60.5 -187t181.5 -63q75 0 132 15q2 70 2 103q0 34 -2 102h-153l-3 5l7 46h202l3 -5l-1 -143q0 -49 2 -143l-2 -7q-42 -14 -93.5 -21.5
t-100.5 -7.5q-145 0 -222 80zM246 704.5q-38 32.5 -38 88.5l2 7h52l3 -7q-1 -34 23.5 -55t64.5 -21t64.5 21t23.5 55l3 7h52l2 -7q0 -56 -38 -88.5t-107 -32.5t-107 32.5z" />
    <glyph glyph-name="gcommaaccent.sc" horiz-adv-x="643" 
d="M140 64q-77 80 -77 227t78 227t225 80q41 0 84 -6t77 -15l7 -51l-3 -7q-33 11 -75.5 17t-82.5 6q-122 0 -184 -64t-62 -188t60.5 -187t181.5 -63q75 0 132 15q2 70 2 103q0 34 -2 102h-153l-3 5l7 46h202l3 -5l-1 -143q0 -49 2 -143l-2 -7q-42 -14 -93.5 -21.5
t-100.5 -7.5q-145 0 -222 80zM317 -262q26 44 29 89q-17 2 -27 12t-10 29q0 17 11 30t31 13q21 0 32.5 -13t11.5 -36q0 -36 -9 -66.5t-28 -61.5h-37z" />
    <glyph glyph-name="gdotaccent.sc" horiz-adv-x="643" 
d="M140 64q-77 80 -77 227t78 227t225 80q41 0 84 -6t77 -15l7 -51l-3 -7q-33 11 -75.5 17t-82.5 6q-122 0 -184 -64t-62 -188t60.5 -187t181.5 -63q75 0 132 15q2 70 2 103q0 34 -2 102h-153l-3 5l7 46h202l3 -5l-1 -143q0 -49 2 -143l-2 -7q-42 -14 -93.5 -21.5
t-100.5 -7.5q-145 0 -222 80zM321.5 695.5q-12.5 12.5 -12.5 35.5q0 22 12.5 34.5t31.5 12.5t31.5 -12.5t12.5 -34.5q0 -23 -12.5 -35.5t-31.5 -12.5t-31.5 12.5z" />
    <glyph glyph-name="h.sc" horiz-adv-x="671" 
d="M573 291q0 -202 5 -284l-3 -7h-66l-2 7q4 74 4 196v63h-352q0 -182 5 -259l-3 -7h-66l-2 7q4 78 4 214v70q0 219 -4 284l2 7h66l3 -7q-3 -52 -5 -254h352q0 194 -4 254l2 7h66l3 -7q-3 -57 -5 -284z" />
    <glyph glyph-name="hbar.sc" horiz-adv-x="671" 
d="M574 437l-1 -146q0 -202 5 -284l-3 -7h-66l-2 7q4 74 4 196v63h-352q0 -182 5 -259l-3 -7h-66l-2 7q4 78 4 214v70q0 105 -1 146h-77l-2 5v38h79l-3 95l2 7h66l3 -7l-3 -95h349l-3 95l2 7h66l3 -7l-3 -95h77l2 -5v-38h-80zM510 437h-350q0 -73 -1 -116h352q0 82 -1 116z
" />
    <glyph glyph-name="i.sc" horiz-adv-x="257" 
d="M93 7q4 78 4 214v70q0 219 -4 284l2 7h66l3 -7q-3 -57 -5 -284q0 -202 5 -284l-3 -7h-66z" />
    <glyph glyph-name="dotlessi.sc" horiz-adv-x="257" 
d="M93 7q4 78 4 214v70q0 219 -4 284l2 7h66l3 -7q-3 -57 -5 -284q0 -202 5 -284l-3 -7h-66z" />
    <glyph glyph-name="iacute.sc" horiz-adv-x="257" 
d="M93 7q4 78 4 214v70q0 219 -4 284l2 7h66l3 -7q-3 -57 -5 -284q0 -202 5 -284l-3 -7h-66zM66 663q39 64 69 121h69l1 -7q-44 -65 -78 -121h-60z" />
    <glyph glyph-name="ibreve.sc" horiz-adv-x="257" 
d="M93 7q4 78 4 214v70q0 219 -4 284l2 7h66l3 -7q-3 -57 -5 -284q0 -202 5 -284l-3 -7h-66zM23 688.5q-38 32.5 -38 88.5l2 7h52l3 -7q-1 -34 23.5 -55t64.5 -21t64.5 21t23.5 55l3 7h52l2 -7q0 -56 -38 -88.5t-107 -32.5t-107 32.5z" />
    <glyph glyph-name="icircumflex.sc" horiz-adv-x="257" 
d="M93 7q4 78 4 214v70q0 219 -4 284l2 7h66l3 -7q-3 -57 -5 -284q0 -202 5 -284l-3 -7h-66zM282 663l-2 -7h-67l-83 87l-83 -87h-67l-1 7q65 64 117 121h69q42 -48 117 -121z" />
    <glyph glyph-name="idieresis.sc" horiz-adv-x="257" 
d="M93 7q4 78 4 214v70q0 219 -4 284l2 7h66l3 -7q-3 -57 -5 -284q0 -202 5 -284l-3 -7h-66zM3.5 681.5q-12.5 12.5 -12.5 35.5q0 22 12.5 34.5t31.5 12.5t31.5 -12.5t12.5 -34.5q0 -23 -12.5 -35.5t-31.5 -12.5t-31.5 12.5zM195 681.5q-13 12.5 -13 35.5q0 22 13 34.5
t31 12.5q19 0 31.5 -12.5t12.5 -34.5q0 -23 -12.5 -35.5t-31.5 -12.5q-18 0 -31 12.5z" />
    <glyph glyph-name="i.sc.loclTRK" horiz-adv-x="257" 
d="M93 7q4 78 4 214v70q0 219 -4 284l2 7h66l3 -7q-3 -57 -5 -284q0 -202 5 -284l-3 -7h-66zM98.5 679.5q-12.5 12.5 -12.5 35.5q0 22 12.5 34.5t31.5 12.5t31.5 -12.5t12.5 -34.5q0 -23 -12.5 -35.5t-31.5 -12.5t-31.5 12.5z" />
    <glyph glyph-name="igrave.sc" horiz-adv-x="257" 
d="M93 7q4 78 4 214v70q0 219 -4 284l2 7h66l3 -7q-3 -57 -5 -284q0 -202 5 -284l-3 -7h-66zM121 656q-31 52 -77 121l1 7h69q21 -41 69 -121l-1 -7h-61z" />
    <glyph glyph-name="ij.sc" horiz-adv-x="513" 
d="M93 7q4 78 4 214v70q0 219 -4 284l2 7h66l3 -7q-3 -57 -5 -284q0 -202 5 -284l-3 -7h-66zM312 -93q42 65 42 192v192q0 204 -5 284l3 7h66l2 -7q-4 -63 -4 -284v-187q0 -71 -8 -120t-28 -84h-66z" />
    <glyph glyph-name="imacron.sc" horiz-adv-x="257" 
d="M93 7q4 78 4 214v70q0 219 -4 284l2 7h66l3 -7q-3 -57 -5 -284q0 -202 5 -284l-3 -7h-66zM-7 684v41h270l3 -6v-42h-271z" />
    <glyph glyph-name="iogonek.sc" horiz-adv-x="257" 
d="M93 7q4 78 4 214v70q0 219 -4 284l2 7h66l3 -7q-3 -57 -5 -284q0 -202 5 -284l-3 -7h-66zM152 -202q-44 -18 -91 -18q-42 0 -64.5 18.5t-22.5 52.5q0 74 122 149h59q-62 -39 -91.5 -71.5t-29.5 -61.5q0 -38 47 -38q17 0 38 5t36 12l3 -3z" />
    <glyph glyph-name="itilde.sc" horiz-adv-x="257" 
d="M93 7q4 78 4 214v70q0 219 -4 284l2 7h66l3 -7q-3 -57 -5 -284q0 -202 5 -284l-3 -7h-66zM-18 702q0 35 18.5 54.5t54.5 19.5q25 0 42.5 -9t40.5 -27q17 -14 29.5 -21t26.5 -7q17 0 25.5 10.5t8.5 27.5q0 19 -8 32l3 7h47q11 -30 11 -53q0 -34 -19 -54t-54 -20
q-25 0 -43.5 9.5t-40.5 27.5q-17 14 -29.5 20.5t-25.5 6.5q-17 0 -26 -10.5t-9 -27.5q0 -19 8 -32l-3 -7h-47q-10 27 -10 53z" />
    <glyph glyph-name="j.sc" horiz-adv-x="256" 
d="M55 -93q42 65 42 192v192q0 204 -5 284l3 7h66l2 -7q-4 -63 -4 -284v-187q0 -71 -8 -120t-28 -84h-66z" />
    <glyph glyph-name="uni0237.sc" horiz-adv-x="256" 
d="M55 -93q42 65 42 192v192q0 204 -5 284l3 7h66l2 -7q-4 -63 -4 -284v-187q0 -71 -8 -120t-28 -84h-66z" />
    <glyph glyph-name="k.sc" horiz-adv-x="572" 
d="M93 7q4 78 4 214v70q0 220 -4 284l2 7h66l3 -7q-3 -50 -5 -250h96l212 257h68l3 -7l-228 -273l242 -295l-2 -7h-71l-224 270h-96q0 -196 5 -263l-3 -7h-66z" />
    <glyph glyph-name="kcommaaccent.sc" horiz-adv-x="572" 
d="M93 7q4 78 4 214v70q0 220 -4 284l2 7h66l3 -7q-3 -50 -5 -250h96l212 257h68l3 -7l-228 -273l242 -295l-2 -7h-71l-224 270h-96q0 -196 5 -263l-3 -7h-66zM271 -247q26 44 29 89q-17 2 -27 12t-10 29q0 17 11 30t31 13q21 0 32.5 -13t11.5 -36q0 -36 -9 -66.5t-28 -61.5
h-37z" />
    <glyph glyph-name="kgreenlandic.sc" horiz-adv-x="572" 
d="M93 7q4 78 4 214v70q0 220 -4 284l2 7h66l3 -7q-3 -50 -5 -250h96l212 257h68l3 -7l-228 -273l242 -295l-2 -7h-71l-224 270h-96q0 -196 5 -263l-3 -7h-66z" />
    <glyph glyph-name="l.sc" horiz-adv-x="479" 
d="M462 49l-7 -49h-360l-2 7q4 78 4 214v70q0 220 -4 284l2 7h66l3 -7q-3 -53 -5 -284q0 -155 3 -236h297z" />
    <glyph glyph-name="lacute.sc" horiz-adv-x="479" 
d="M462 49l-7 -49h-360l-2 7q4 78 4 214v70q0 220 -4 284l2 7h66l3 -7q-3 -53 -5 -284q0 -155 3 -236h297zM66 663q39 64 69 121h69l1 -7q-44 -65 -78 -121h-60z" />
    <glyph glyph-name="lcaron.sc" horiz-adv-x="479" 
d="M269 425l-2 6q16 110 22 166h49l2 -5q-16 -82 -30 -167h-41zM462 49l-7 -49h-360l-2 7q4 78 4 214v70q0 220 -4 284l2 7h66l3 -7q-3 -53 -5 -284q0 -155 3 -236h297z" />
    <glyph glyph-name="lcommaaccent.sc" horiz-adv-x="479" 
d="M462 49l-7 -49h-360l-2 7q4 78 4 214v70q0 220 -4 284l2 7h66l3 -7q-3 -53 -5 -284q0 -155 3 -236h297zM245 -247q26 44 29 89q-17 2 -27 12t-10 29q0 17 11 30t31 13q21 0 32.5 -13t11.5 -36q0 -36 -9 -66.5t-28 -61.5h-37z" />
    <glyph glyph-name="ldot.sc" horiz-adv-x="479" 
d="M462 49l-7 -49h-360l-2 7q4 78 4 214v70q0 220 -4 284l2 7h66l3 -7q-3 -53 -5 -284q0 -155 3 -236h297zM346.5 282.5q-9.5 10.5 -9.5 27.5t9.5 27t25.5 10t25.5 -10t9.5 -27t-9.5 -27.5t-25.5 -10.5t-25.5 10.5z" />
    <glyph glyph-name="lslash.sc" horiz-adv-x="479" 
d="M462 49l-7 -49h-360l-2 7q4 76 4 203v65l-96 -44l-4 4v44l100 46q0 191 -4 250l2 7h66l3 -7q-3 -44 -5 -221l155 71l4 -4l-1 -44l-158 -73v-13q0 -155 3 -236h297z" />
    <glyph glyph-name="m.sc" horiz-adv-x="779" 
d="M93 7q4 78 4 214v70q0 220 -4 284l2 7h85l153 -257q13 -21 37 -67l18 -34h2l18 33l16.5 31.5t19.5 34.5l153 259h86l3 -7q-3 -45 -5 -226v-58q0 -204 5 -284l-3 -7h-66l-2 7q4 94 4 270q0 168 1 223h-2q-31 -58 -54 -97l-152 -256h-45l-154 258q-23 38 -41 73
q-2 3 -13 22h-2l1 -223q0 -176 4 -270l-2 -7h-65z" />
    <glyph glyph-name="n.sc" horiz-adv-x="677" 
d="M93 7q4 78 4 214v70q0 220 -4 284l2 7h85l273 -398q29 -43 64 -103h3q-1 33 -1 125q-1 31 -1 101q-2 213 -4 268l2 7h66l2 -7q-2 -46 -4 -212v-72q0 -220 4 -284l-2 -7h-82l-273 396q-15 21 -48 74l-18 29h-3q1 -39 1 -147v-78v-40q0 -122 5 -227l-3 -7h-66z" />
    <glyph glyph-name="nacute.sc" horiz-adv-x="677" 
d="M93 7q4 78 4 214v70q0 220 -4 284l2 7h85l273 -398q29 -43 64 -103h3q-1 33 -1 125q-1 31 -1 101q-2 213 -4 268l2 7h66l2 -7q-2 -46 -4 -212v-72q0 -220 4 -284l-2 -7h-82l-273 396q-15 21 -48 74l-18 29h-3q1 -39 1 -147v-78v-40q0 -122 5 -227l-3 -7h-66zM277 663
q39 64 69 121h69l1 -7q-44 -65 -78 -121h-60z" />
    <glyph glyph-name="ncaron.sc" horiz-adv-x="677" 
d="M93 7q4 78 4 214v70q0 220 -4 284l2 7h85l273 -398q29 -43 64 -103h3q-1 33 -1 125q-1 31 -1 101q-2 213 -4 268l2 7h66l2 -7q-2 -46 -4 -212v-72q0 -220 4 -284l-2 -7h-82l-273 396q-15 21 -48 74l-18 29h-3q1 -39 1 -147v-78v-40q0 -122 5 -227l-3 -7h-66zM307 656
q-52 57 -117 121l1 7h67l83 -87l83 87h67l2 -7q-75 -73 -117 -121h-69z" />
    <glyph glyph-name="ncommaaccent.sc" horiz-adv-x="677" 
d="M93 7q4 78 4 214v70q0 220 -4 284l2 7h85l273 -398q29 -43 64 -103h3q-1 33 -1 125q-1 31 -1 101q-2 213 -4 268l2 7h66l2 -7q-2 -46 -4 -212v-72q0 -220 4 -284l-2 -7h-82l-273 396q-15 21 -48 74l-18 29h-3q1 -39 1 -147v-78v-40q0 -122 5 -227l-3 -7h-66zM306 -247
q26 44 29 89q-17 2 -27 12t-10 29q0 17 11 30t31 13q21 0 32.5 -13t11.5 -36q0 -36 -9 -66.5t-28 -61.5h-37z" />
    <glyph glyph-name="eng.sc" horiz-adv-x="677" 
d="M491 -152q26 54 29 152h-20l-273 396q-15 21 -48 74l-18 29h-3q1 -39 1 -147v-78v-40q0 -122 5 -227l-3 -7h-66l-2 7q4 78 4 214v70q0 220 -4 284l2 7h85l273 -398q29 -43 64 -103h3q-1 33 -1 125q-1 31 -1 101q-2 213 -4 268l2 7h66l2 -7q-4 -64 -4 -284l1 -285
q0 -49 -7.5 -93.5t-22.5 -71.5h-58z" />
    <glyph glyph-name="ntilde.sc" horiz-adv-x="677" 
d="M93 7q4 78 4 214v70q0 220 -4 284l2 7h85l273 -398q29 -43 64 -103h3q-1 33 -1 125q-1 31 -1 101q-2 213 -4 268l2 7h66l2 -7q-2 -46 -4 -212v-72q0 -220 4 -284l-2 -7h-82l-273 396q-15 21 -48 74l-18 29h-3q1 -39 1 -147v-78v-40q0 -122 5 -227l-3 -7h-66zM193 702
q0 35 18.5 54.5t54.5 19.5q25 0 42.5 -9t40.5 -27q17 -14 29.5 -21t26.5 -7q17 0 25.5 10.5t8.5 27.5q0 19 -8 32l3 7h47q11 -30 11 -53q0 -34 -19 -54t-54 -20q-25 0 -43.5 9.5t-40.5 27.5q-17 14 -29.5 20.5t-25.5 6.5q-17 0 -26 -10.5t-9 -27.5q0 -19 8 -32l-3 -7h-47
q-10 27 -10 53z" />
    <glyph glyph-name="o.sc" horiz-adv-x="671" 
d="M135 65.5q-72 81.5 -72 225.5t72 225.5t200 81.5q129 0 201 -81.5t72 -225.5t-72 -225.5t-201 -81.5q-128 0 -200 81.5zM490 105.5q54 65.5 54 185.5t-54 185.5t-155 65.5q-100 0 -154 -65.5t-54 -185.5t54 -185.5t154 -65.5q101 0 155 65.5z" />
    <glyph glyph-name="oacute.sc" horiz-adv-x="671" 
d="M135 65.5q-72 81.5 -72 225.5t72 225.5t200 81.5q129 0 201 -81.5t72 -225.5t-72 -225.5t-201 -81.5q-128 0 -200 81.5zM490 105.5q54 65.5 54 185.5t-54 185.5t-155 65.5q-100 0 -154 -65.5t-54 -185.5t54 -185.5t154 -65.5q101 0 155 65.5zM271 679q39 64 69 121h69
l1 -7q-44 -65 -78 -121h-60z" />
    <glyph glyph-name="obreve.sc" horiz-adv-x="671" 
d="M135 65.5q-72 81.5 -72 225.5t72 225.5t200 81.5q129 0 201 -81.5t72 -225.5t-72 -225.5t-201 -81.5q-128 0 -200 81.5zM490 105.5q54 65.5 54 185.5t-54 185.5t-155 65.5q-100 0 -154 -65.5t-54 -185.5t54 -185.5t154 -65.5q101 0 155 65.5zM228 704.5
q-38 32.5 -38 88.5l2 7h52l3 -7q-1 -34 23.5 -55t64.5 -21t64.5 21t23.5 55l3 7h52l2 -7q0 -56 -38 -88.5t-107 -32.5t-107 32.5z" />
    <glyph glyph-name="ocircumflex.sc" horiz-adv-x="671" 
d="M135 65.5q-72 81.5 -72 225.5t72 225.5t200 81.5q129 0 201 -81.5t72 -225.5t-72 -225.5t-201 -81.5q-128 0 -200 81.5zM490 105.5q54 65.5 54 185.5t-54 185.5t-155 65.5q-100 0 -154 -65.5t-54 -185.5t54 -185.5t154 -65.5q101 0 155 65.5zM487 679l-2 -7h-67l-83 87
l-83 -87h-67l-1 7q65 64 117 121h69q42 -48 117 -121z" />
    <glyph glyph-name="odieresis.sc" horiz-adv-x="671" 
d="M135 65.5q-72 81.5 -72 225.5t72 225.5t200 81.5q129 0 201 -81.5t72 -225.5t-72 -225.5t-201 -81.5q-128 0 -200 81.5zM490 105.5q54 65.5 54 185.5t-54 185.5t-155 65.5q-100 0 -154 -65.5t-54 -185.5t54 -185.5t154 -65.5q101 0 155 65.5zM208.5 697.5
q-12.5 12.5 -12.5 35.5q0 22 12.5 34.5t31.5 12.5t31.5 -12.5t12.5 -34.5q0 -23 -12.5 -35.5t-31.5 -12.5t-31.5 12.5zM400 697.5q-13 12.5 -13 35.5q0 22 13 34.5t31 12.5q19 0 31.5 -12.5t12.5 -34.5q0 -23 -12.5 -35.5t-31.5 -12.5q-18 0 -31 12.5z" />
    <glyph glyph-name="ograve.sc" horiz-adv-x="671" 
d="M135 65.5q-72 81.5 -72 225.5t72 225.5t200 81.5q129 0 201 -81.5t72 -225.5t-72 -225.5t-201 -81.5q-128 0 -200 81.5zM490 105.5q54 65.5 54 185.5t-54 185.5t-155 65.5q-100 0 -154 -65.5t-54 -185.5t54 -185.5t154 -65.5q101 0 155 65.5zM326 672q-31 52 -77 121l1 7
h69q21 -41 69 -121l-1 -7h-61z" />
    <glyph glyph-name="ohungarumlaut.sc" horiz-adv-x="671" 
d="M135 65.5q-72 81.5 -72 225.5t72 225.5t200 81.5q129 0 201 -81.5t72 -225.5t-72 -225.5t-201 -81.5q-128 0 -200 81.5zM490 105.5q54 65.5 54 185.5t-54 185.5t-155 65.5q-100 0 -154 -65.5t-54 -185.5t54 -185.5t154 -65.5q101 0 155 65.5zM191 679q22 47 53 121h67
l1 -7q-35 -64 -63 -121h-57zM369 679q22 47 53 121h67l1 -7q-38 -68 -62 -121h-58z" />
    <glyph glyph-name="omacron.sc" horiz-adv-x="671" 
d="M135 65.5q-72 81.5 -72 225.5t72 225.5t200 81.5q129 0 201 -81.5t72 -225.5t-72 -225.5t-201 -81.5q-128 0 -200 81.5zM490 105.5q54 65.5 54 185.5t-54 185.5t-155 65.5q-100 0 -154 -65.5t-54 -185.5t54 -185.5t154 -65.5q101 0 155 65.5zM198 700v41h270l3 -6v-42
h-271z" />
    <glyph glyph-name="oslash.sc" horiz-adv-x="671" 
d="M135 65.5q-72 81.5 -72 225.5t72 225.5t200 81.5q129 0 201 -81.5t72 -225.5t-72 -225.5t-201 -81.5q-128 0 -200 81.5zM490 105.5q54 65.5 54 185.5t-54 185.5t-155 65.5q-100 0 -154 -65.5t-54 -185.5t54 -185.5t154 -65.5q101 0 155 65.5zM61 5l516 597l32 -29
l-516 -595z" />
    <glyph glyph-name="oslashacute.sc" horiz-adv-x="671" 
d="M135 65.5q-72 81.5 -72 225.5t72 225.5t200 81.5q129 0 201 -81.5t72 -225.5t-72 -225.5t-201 -81.5q-128 0 -200 81.5zM490 105.5q54 65.5 54 185.5t-54 185.5t-155 65.5q-100 0 -154 -65.5t-54 -185.5t54 -185.5t154 -65.5q101 0 155 65.5zM61 5l516 597l32 -29
l-516 -595zM271 679q39 64 69 121h69l1 -7q-44 -65 -78 -121h-60z" />
    <glyph glyph-name="otilde.sc" horiz-adv-x="671" 
d="M135 65.5q-72 81.5 -72 225.5t72 225.5t200 81.5q129 0 201 -81.5t72 -225.5t-72 -225.5t-201 -81.5q-128 0 -200 81.5zM490 105.5q54 65.5 54 185.5t-54 185.5t-155 65.5q-100 0 -154 -65.5t-54 -185.5t54 -185.5t154 -65.5q101 0 155 65.5zM187 718q0 35 18.5 54.5
t54.5 19.5q25 0 42.5 -9t40.5 -27q17 -14 29.5 -21t26.5 -7q17 0 25.5 10.5t8.5 27.5q0 19 -8 32l3 7h47q11 -30 11 -53q0 -34 -19 -54t-54 -20q-25 0 -43.5 9.5t-40.5 27.5q-17 14 -29.5 20.5t-25.5 6.5q-17 0 -26 -10.5t-9 -27.5q0 -19 8 -32l-3 -7h-47q-10 27 -10 53z
" />
    <glyph glyph-name="oe.sc" horiz-adv-x="885" 
d="M136.5 66q-73.5 82 -73.5 225q0 142 73.5 224.5t205.5 82.5q49 0 137 -16h349l7 -50l-3 -5h-294l-2 -206h268v-52h-268q0 -166 2 -214h302l3 -6l-7 -49h-357q-82 -16 -136 -16q-133 0 -206.5 82zM473 53q1 59 1 238t-1 237q-70 14 -128 14q-106 0 -162 -65.5t-56 -185.5
t56 -185.5t162 -65.5q63 0 128 13z" />
    <glyph glyph-name="p.sc" horiz-adv-x="538" 
d="M439 536q51 -46 51 -138q0 -93 -53 -140t-155 -47h-123q1 -136 5 -204l-3 -7h-66l-2 7q4 78 4 214v70q0 220 -4 284l2 7h189q104 0 155 -46zM388.5 295.5q37.5 31.5 37.5 101.5q0 69 -36 99.5t-112 30.5h-116q-2 -78 -2 -157q-1 -25 -1 -79v-27h119q73 0 110.5 31.5z" />
    <glyph glyph-name="thorn.sc" horiz-adv-x="538" 
d="M439.5 439.5q50.5 -45.5 50.5 -138.5t-52.5 -140t-153.5 -47h-124q0 -22 4 -107l-3 -7h-66l-2 7q4 78 4 214v70q0 219 -4 284l2 7h66l3 -7l-3 -90h124q104 0 154.5 -45.5zM388.5 199.5q37.5 31.5 37.5 101.5q0 68 -36 98.5t-111 30.5h-119l-1 -139q0 -87 1 -123h120
q71 0 108.5 31.5z" />
    <glyph glyph-name="q.sc" horiz-adv-x="670" 
d="M501.5 -28.5q-56.5 12.5 -166.5 12.5q-130 0 -201 81.5t-71 225.5q0 143 71 225t201 82q131 0 202 -82t71 -225q0 -105 -40 -177.5t-116 -95.5l1 -1q109 1 186 -38l2 -7l-23 -50q-60 37 -116.5 49.5zM490 106q54 66 54 185q0 120 -53.5 185.5t-155.5 65.5
q-101 0 -154.5 -65.5t-53.5 -185.5t53 -185.5t155 -65.5q101 0 155 66z" />
    <glyph glyph-name="r.sc" horiz-adv-x="560" 
d="M93 7q4 78 4 214v70q0 220 -4 284l2 7h198q211 0 211 -170q0 -67 -37 -109.5t-108 -56.5l1 -2l38 -52l132 -185l-3 -7h-71l-164 238h-133q0 -161 5 -231l-3 -7h-66zM282 291q158 0 158 121q0 61 -37.5 88t-115.5 27h-125l-3 -236h123z" />
    <glyph glyph-name="racute.sc" horiz-adv-x="560" 
d="M93 7q4 78 4 214v70q0 220 -4 284l2 7h198q211 0 211 -170q0 -67 -37 -109.5t-108 -56.5l1 -2l38 -52l132 -185l-3 -7h-71l-164 238h-133q0 -161 5 -231l-3 -7h-66zM282 291q158 0 158 121q0 61 -37.5 88t-115.5 27h-125l-3 -236h123zM194 663q39 64 69 121h69l1 -7
q-44 -65 -78 -121h-60z" />
    <glyph glyph-name="rcaron.sc" horiz-adv-x="560" 
d="M93 7q4 78 4 214v70q0 220 -4 284l2 7h198q211 0 211 -170q0 -67 -37 -109.5t-108 -56.5l1 -2l38 -52l132 -185l-3 -7h-71l-164 238h-133q0 -161 5 -231l-3 -7h-66zM282 291q158 0 158 121q0 61 -37.5 88t-115.5 27h-125l-3 -236h123zM224 656q-52 57 -117 121l1 7h67
l83 -87l83 87h67l2 -7q-75 -73 -117 -121h-69z" />
    <glyph glyph-name="rcommaaccent.sc" horiz-adv-x="560" 
d="M93 7q4 78 4 214v70q0 220 -4 284l2 7h198q211 0 211 -170q0 -67 -37 -109.5t-108 -56.5l1 -2l38 -52l132 -185l-3 -7h-71l-164 238h-133q0 -161 5 -231l-3 -7h-66zM282 291q158 0 158 121q0 61 -37.5 88t-115.5 27h-125l-3 -236h123zM264 -247q26 44 29 89q-17 2 -27 12
t-10 29q0 17 11 30t31 13q21 0 32.5 -13t11.5 -36q0 -36 -9 -66.5t-28 -61.5h-37z" />
    <glyph glyph-name="s.sc" horiz-adv-x="496" 
d="M153.5 -9.5q-39.5 6.5 -88.5 20.5l-7 53l3 6q87 -30 171 -30q76 0 113 25t37 77q0 46 -32.5 73t-111.5 51q-101 29 -144 70t-43 107q0 76 52.5 115.5t154.5 39.5q79 0 160 -23l7 -53l-4 -7q-79 27 -159 27q-147 0 -147 -98q0 -45 35.5 -73t120.5 -54q93 -29 134 -69
t41 -104q0 -79 -54 -119.5t-158 -40.5q-41 0 -80.5 6.5z" />
    <glyph glyph-name="sacute.sc" horiz-adv-x="496" 
d="M153.5 -9.5q-39.5 6.5 -88.5 20.5l-7 53l3 6q87 -30 171 -30q76 0 113 25t37 77q0 46 -32.5 73t-111.5 51q-101 29 -144 70t-43 107q0 76 52.5 115.5t154.5 39.5q79 0 160 -23l7 -53l-4 -7q-79 27 -159 27q-147 0 -147 -98q0 -45 35.5 -73t120.5 -54q93 -29 134 -69
t41 -104q0 -79 -54 -119.5t-158 -40.5q-41 0 -80.5 6.5zM183 679q39 64 69 121h69l1 -7q-44 -65 -78 -121h-60z" />
    <glyph glyph-name="scaron.sc" horiz-adv-x="496" 
d="M153.5 -9.5q-39.5 6.5 -88.5 20.5l-7 53l3 6q87 -30 171 -30q76 0 113 25t37 77q0 46 -32.5 73t-111.5 51q-101 29 -144 70t-43 107q0 76 52.5 115.5t154.5 39.5q79 0 160 -23l7 -53l-4 -7q-79 27 -159 27q-147 0 -147 -98q0 -45 35.5 -73t120.5 -54q93 -29 134 -69
t41 -104q0 -79 -54 -119.5t-158 -40.5q-41 0 -80.5 6.5zM213 672q-52 57 -117 121l1 7h67l83 -87l83 87h67l2 -7q-75 -73 -117 -121h-69z" />
    <glyph glyph-name="scedilla.sc" horiz-adv-x="496" 
d="M153.5 -9.5q-39.5 6.5 -88.5 20.5l-7 53l3 6q87 -30 171 -30q76 0 113 25t37 77q0 46 -32.5 73t-111.5 51q-101 29 -144 70t-43 107q0 76 52.5 115.5t154.5 39.5q79 0 160 -23l7 -53l-4 -7q-79 27 -159 27q-147 0 -147 -98q0 -45 35.5 -73t120.5 -54q93 -29 134 -69
t41 -104q0 -79 -54 -119.5t-158 -40.5q-41 0 -80.5 6.5zM197 -215q-27 5 -43 11l-5 43l3 4q17 -8 41 -13t46 -5q30 0 46 9.5t16 28.5q0 23 -26 32t-89 8l-3 4l55 91h39l-39 -65q119 -1 119 -76q0 -36 -29 -56.5t-80 -20.5q-24 0 -51 5z" />
    <glyph glyph-name="scommaaccent.sc" horiz-adv-x="496" 
d="M153.5 -9.5q-39.5 6.5 -88.5 20.5l-7 53l3 6q87 -30 171 -30q76 0 113 25t37 77q0 46 -32.5 73t-111.5 51q-101 29 -144 70t-43 107q0 76 52.5 115.5t154.5 39.5q79 0 160 -23l7 -53l-4 -7q-79 27 -159 27q-147 0 -147 -98q0 -45 35.5 -73t120.5 -54q93 -29 134 -69
t41 -104q0 -79 -54 -119.5t-158 -40.5q-41 0 -80.5 6.5zM215 -262q26 44 29 89q-17 2 -27 12t-10 29q0 17 11 30t31 13q21 0 32.5 -13t11.5 -36q0 -36 -9 -66.5t-28 -61.5h-37z" />
    <glyph glyph-name="germandbls.sc" horiz-adv-x="650" 
d="M549.5 290q50.5 -44 50.5 -121q0 -86 -51.5 -135.5t-140.5 -49.5q-42 0 -78.5 6t-79.5 18l-7 52l3 6q47 -14 79.5 -20t70.5 -6q66 0 103 33.5t37 96.5q0 61 -38 89t-121 28h-73l-3 5v32l158 204h-297q-2 -80 -2 -158q-1 -25 -1 -79q0 -202 5 -284l-3 -7h-66l-2 7
q4 78 4 214v70q0 219 -4 284l2 7h445v-41l-164 -207h29q94 0 144.5 -44z" />
    <glyph glyph-name="t.sc" horiz-adv-x="504" 
d="M484 533l-3 -5h-196q-2 -59 -2 -237v-55q0 -147 4 -229l-2 -7h-66l-3 7q5 83 5 284q0 119 -2 237h-196l-3 5v49h464v-49z" />
    <glyph glyph-name="tbar.sc" horiz-adv-x="504" 
d="M484 582v-49l-3 -5h-196q-2 -48 -2 -181h145l2 -5v-41h-147v-10v-55q0 -147 4 -229l-2 -7h-66l-3 7q5 83 5 284v10h-145l-2 5v41h147q0 85 -2 181h-196l-3 5v49h464z" />
    <glyph glyph-name="tcaron.sc" horiz-adv-x="504" 
d="M484 533l-3 -5h-196q-2 -59 -2 -237v-55q0 -147 4 -229l-2 -7h-66l-3 7q5 83 5 284q0 119 -2 237h-196l-3 5v49h464v-49zM217 656q-52 57 -117 121l1 7h67l83 -87l83 87h67l2 -7q-75 -73 -117 -121h-69z" />
    <glyph glyph-name="uni0163.sc" horiz-adv-x="504" 
d="M484 582v-49l-3 -5h-196q-2 -59 -2 -237v-55q0 -147 4 -229l-2 -7h-5l-41 -68q60 -1 89.5 -19.5t29.5 -55.5t-29 -57t-80 -20q-25 0 -52 4.5t-42 11.5l-5 43l3 3q17 -8 41 -12.5t46 -4.5q30 0 46 9.5t16 27.5q0 23 -26 32t-89 8l-3 5l57 93h-22l-3 7q5 83 5 284
q0 119 -2 237h-196l-3 5v49h464z" />
    <glyph glyph-name="uni021B.sc" horiz-adv-x="504" 
d="M484 533l-3 -5h-196q-2 -59 -2 -237v-55q0 -147 4 -229l-2 -7h-66l-3 7q5 83 5 284q0 119 -2 237h-196l-3 5v49h464v-49zM219 -247q26 44 29 89q-17 2 -27 12t-10 29q0 17 11 30t31 13q21 0 32.5 -13t11.5 -36q0 -36 -9 -66.5t-28 -61.5h-37z" />
    <glyph glyph-name="u.sc" horiz-adv-x="668" 
d="M148 54.5q-56 70.5 -56 218.5q0 238 -4 302l2 7h66l3 -7q-3 -54 -5 -300q0 -120 40.5 -177.5t139.5 -57.5t139.5 57.5t40.5 177.5q-2 246 -5 300l3 7h66l2 -7q-4 -64 -4 -302q0 -148 -56 -218.5t-186 -70.5t-186 70.5z" />
    <glyph glyph-name="uacute.sc" horiz-adv-x="668" 
d="M148 54.5q-56 70.5 -56 218.5q0 238 -4 302l2 7h66l3 -7q-3 -54 -5 -300q0 -120 40.5 -177.5t139.5 -57.5t139.5 57.5t40.5 177.5q-2 246 -5 300l3 7h66l2 -7q-4 -64 -4 -302q0 -148 -56 -218.5t-186 -70.5t-186 70.5zM271 663q39 64 69 121h69l1 -7q-44 -65 -78 -121
h-60z" />
    <glyph glyph-name="ubreve.sc" horiz-adv-x="668" 
d="M148 54.5q-56 70.5 -56 218.5q0 238 -4 302l2 7h66l3 -7q-3 -54 -5 -300q0 -120 40.5 -177.5t139.5 -57.5t139.5 57.5t40.5 177.5q-2 246 -5 300l3 7h66l2 -7q-4 -64 -4 -302q0 -148 -56 -218.5t-186 -70.5t-186 70.5zM228 688.5q-38 32.5 -38 88.5l2 7h52l3 -7
q-1 -34 23.5 -55t64.5 -21t64.5 21t23.5 55l3 7h52l2 -7q0 -56 -38 -88.5t-107 -32.5t-107 32.5z" />
    <glyph glyph-name="ucircumflex.sc" horiz-adv-x="668" 
d="M148 54.5q-56 70.5 -56 218.5q0 238 -4 302l2 7h66l3 -7q-3 -54 -5 -300q0 -120 40.5 -177.5t139.5 -57.5t139.5 57.5t40.5 177.5q-2 246 -5 300l3 7h66l2 -7q-4 -64 -4 -302q0 -148 -56 -218.5t-186 -70.5t-186 70.5zM487 663l-2 -7h-67l-83 87l-83 -87h-67l-1 7
q65 64 117 121h69q42 -48 117 -121z" />
    <glyph glyph-name="udieresis.sc" horiz-adv-x="668" 
d="M148 54.5q-56 70.5 -56 218.5q0 238 -4 302l2 7h66l3 -7q-3 -54 -5 -300q0 -120 40.5 -177.5t139.5 -57.5t139.5 57.5t40.5 177.5q-2 246 -5 300l3 7h66l2 -7q-4 -64 -4 -302q0 -148 -56 -218.5t-186 -70.5t-186 70.5zM208.5 681.5q-12.5 12.5 -12.5 35.5q0 22 12.5 34.5
t31.5 12.5t31.5 -12.5t12.5 -34.5q0 -23 -12.5 -35.5t-31.5 -12.5t-31.5 12.5zM400 681.5q-13 12.5 -13 35.5q0 22 13 34.5t31 12.5q19 0 31.5 -12.5t12.5 -34.5q0 -23 -12.5 -35.5t-31.5 -12.5q-18 0 -31 12.5z" />
    <glyph glyph-name="ugrave.sc" horiz-adv-x="668" 
d="M148 54.5q-56 70.5 -56 218.5q0 238 -4 302l2 7h66l3 -7q-3 -54 -5 -300q0 -120 40.5 -177.5t139.5 -57.5t139.5 57.5t40.5 177.5q-2 246 -5 300l3 7h66l2 -7q-4 -64 -4 -302q0 -148 -56 -218.5t-186 -70.5t-186 70.5zM326 656q-31 52 -77 121l1 7h69q21 -41 69 -121
l-1 -7h-61z" />
    <glyph glyph-name="uhungarumlaut.sc" horiz-adv-x="668" 
d="M148 54.5q-56 70.5 -56 218.5q0 238 -4 302l2 7h66l3 -7q-3 -54 -5 -300q0 -120 40.5 -177.5t139.5 -57.5t139.5 57.5t40.5 177.5q-2 246 -5 300l3 7h66l2 -7q-4 -64 -4 -302q0 -148 -56 -218.5t-186 -70.5t-186 70.5zM191 663q22 47 53 121h67l1 -7q-35 -64 -63 -121
h-57zM369 663q22 47 53 121h67l1 -7q-38 -68 -62 -121h-58z" />
    <glyph glyph-name="umacron.sc" horiz-adv-x="668" 
d="M148 54.5q-56 70.5 -56 218.5q0 238 -4 302l2 7h66l3 -7q-3 -54 -5 -300q0 -120 40.5 -177.5t139.5 -57.5t139.5 57.5t40.5 177.5q-2 246 -5 300l3 7h66l2 -7q-4 -64 -4 -302q0 -148 -56 -218.5t-186 -70.5t-186 70.5zM198 684v41h270l3 -6v-42h-271z" />
    <glyph glyph-name="uogonek.sc" horiz-adv-x="668" 
d="M416.5 -58q-26.5 -38 -26.5 -75q0 -38 47 -38q18 0 39 5t36 12l3 -3l-6 -45q-20 -8 -45 -13t-46 -5q-43 0 -65.5 18.5t-22.5 52.5q0 36 17.5 69.5t51.5 68.5q-33 -5 -65 -5q-130 0 -186 70.5t-56 218.5q0 238 -4 302l2 7h66l3 -7q-3 -54 -5 -300q0 -120 40.5 -177.5
t139.5 -57.5t139.5 57.5t40.5 177.5q-2 246 -5 300l3 7h66l2 -7q-4 -64 -4 -302q0 -90 -20 -150t-63 -94q-50 -49 -76.5 -87z" />
    <glyph glyph-name="uring.sc" horiz-adv-x="668" 
d="M148 54.5q-56 70.5 -56 218.5q0 238 -4 302l2 7h66l3 -7q-3 -54 -5 -300q0 -120 40.5 -177.5t139.5 -57.5t139.5 57.5t40.5 177.5q-2 246 -5 300l3 7h66l2 -7q-4 -64 -4 -302q0 -148 -56 -218.5t-186 -70.5t-186 70.5zM233 669q-36 22 -36 58t37 59t101 23q65 0 101 -22
t36 -58t-37.5 -59t-100.5 -23q-65 0 -101 22zM396 695.5q23 11.5 23 32.5t-23.5 32.5t-61.5 11.5t-61.5 -11.5t-23.5 -32.5t23.5 -32.5t61.5 -11.5q39 0 62 11.5z" />
    <glyph glyph-name="utilde.sc" horiz-adv-x="668" 
d="M148 54.5q-56 70.5 -56 218.5q0 238 -4 302l2 7h66l3 -7q-3 -54 -5 -300q0 -120 40.5 -177.5t139.5 -57.5t139.5 57.5t40.5 177.5q-2 246 -5 300l3 7h66l2 -7q-4 -64 -4 -302q0 -148 -56 -218.5t-186 -70.5t-186 70.5zM187 702q0 35 18.5 54.5t54.5 19.5q25 0 42.5 -9
t40.5 -27q17 -14 29.5 -21t26.5 -7q17 0 25.5 10.5t8.5 27.5q0 19 -8 32l3 7h47q11 -30 11 -53q0 -34 -19 -54t-54 -20q-25 0 -43.5 9.5t-40.5 27.5q-17 14 -29.5 20.5t-25.5 6.5q-17 0 -26 -10.5t-9 -27.5q0 -19 8 -32l-3 -7h-47q-10 27 -10 53z" />
    <glyph glyph-name="v.sc" horiz-adv-x="568" 
d="M248 6l-235 569l3 7h65l157 -394l45 -120h2l45 118l156 396h67l2 -7l-54 -129l-182 -440l-5 -6h-61z" />
    <glyph glyph-name="w.sc" horiz-adv-x="851" 
d="M195 6l-176 569l3 7h65l108 -372l37 -129h2l42 129l123 372h55l120 -367l24 -74q14 -40 20 -60h2l31 109l4 13.5t3 11.5l106 367h65l3 -7l-177 -569l-5 -6h-64l-126 379q-16 46 -34 104h-2l-38 -114l-123 -369h-63z" />
    <glyph glyph-name="wacute.sc" horiz-adv-x="851" 
d="M195 6l-176 569l3 7h65l108 -372l37 -129h2l42 129l123 372h55l120 -367l24 -74q14 -40 20 -60h2l31 109l4 13.5t3 11.5l106 367h65l3 -7l-177 -569l-5 -6h-64l-126 379q-16 46 -34 104h-2l-38 -114l-123 -369h-63zM362 663q39 64 69 121h69l1 -7q-44 -65 -78 -121h-60z
" />
    <glyph glyph-name="wcircumflex.sc" horiz-adv-x="851" 
d="M195 6l-176 569l3 7h65l108 -372l37 -129h2l42 129l123 372h55l120 -367l24 -74q14 -40 20 -60h2l31 109l4 13.5t3 11.5l106 367h65l3 -7l-177 -569l-5 -6h-64l-126 379q-16 46 -34 104h-2l-38 -114l-123 -369h-63zM578 663l-2 -7h-67l-83 87l-83 -87h-67l-1 7
q65 64 117 121h69q42 -48 117 -121z" />
    <glyph glyph-name="wdieresis.sc" horiz-adv-x="851" 
d="M195 6l-176 569l3 7h65l108 -372l37 -129h2l42 129l123 372h55l120 -367l24 -74q14 -40 20 -60h2l31 109l4 13.5t3 11.5l106 367h65l3 -7l-177 -569l-5 -6h-64l-126 379q-16 46 -34 104h-2l-38 -114l-123 -369h-63zM299.5 681.5q-12.5 12.5 -12.5 35.5q0 22 12.5 34.5
t31.5 12.5t31.5 -12.5t12.5 -34.5q0 -23 -12.5 -35.5t-31.5 -12.5t-31.5 12.5zM491 681.5q-13 12.5 -13 35.5q0 22 13 34.5t31 12.5q19 0 31.5 -12.5t12.5 -34.5q0 -23 -12.5 -35.5t-31.5 -12.5q-18 0 -31 12.5z" />
    <glyph glyph-name="wgrave.sc" horiz-adv-x="851" 
d="M195 6l-176 569l3 7h65l108 -372l37 -129h2l42 129l123 372h55l120 -367l24 -74q14 -40 20 -60h2l31 109l4 13.5t3 11.5l106 367h65l3 -7l-177 -569l-5 -6h-64l-126 379q-16 46 -34 104h-2l-38 -114l-123 -369h-63zM417 656q-31 52 -77 121l1 7h69q21 -41 69 -121l-1 -7
h-61z" />
    <glyph glyph-name="x.sc" horiz-adv-x="588" 
d="M573 7l-2 -7h-70l-207 255h-2l-206 -255h-69l-2 7l240 294l-222 274l2 7h68l190 -240h2l189 240h69l2 -7l-223 -278z" />
    <glyph glyph-name="y.sc" horiz-adv-x="544" 
d="M236 7q5 68 5 226l-228 342l3 7h65l124 -191l66 -103h2l67 104l124 190h64l3 -7l-228 -342v-43q0 -113 4 -183l-2 -7h-66z" />
    <glyph glyph-name="yacute.sc" horiz-adv-x="544" 
d="M236 7q5 68 5 226l-228 342l3 7h65l124 -191l66 -103h2l67 104l124 190h64l3 -7l-228 -342v-43q0 -113 4 -183l-2 -7h-66zM208 663q39 64 69 121h69l1 -7q-44 -65 -78 -121h-60z" />
    <glyph glyph-name="ycircumflex.sc" horiz-adv-x="544" 
d="M236 7q5 68 5 226l-228 342l3 7h65l124 -191l66 -103h2l67 104l124 190h64l3 -7l-228 -342v-43q0 -113 4 -183l-2 -7h-66zM424 663l-2 -7h-67l-83 87l-83 -87h-67l-1 7q65 64 117 121h69q42 -48 117 -121z" />
    <glyph glyph-name="ydieresis.sc" horiz-adv-x="544" 
d="M236 7q5 68 5 226l-228 342l3 7h65l124 -191l66 -103h2l67 104l124 190h64l3 -7l-228 -342v-43q0 -113 4 -183l-2 -7h-66zM145.5 681.5q-12.5 12.5 -12.5 35.5q0 22 12.5 34.5t31.5 12.5t31.5 -12.5t12.5 -34.5q0 -23 -12.5 -35.5t-31.5 -12.5t-31.5 12.5zM337 681.5
q-13 12.5 -13 35.5q0 22 13 34.5t31 12.5q19 0 31.5 -12.5t12.5 -34.5q0 -23 -12.5 -35.5t-31.5 -12.5q-18 0 -31 12.5z" />
    <glyph glyph-name="ygrave.sc" horiz-adv-x="544" 
d="M236 7q5 68 5 226l-228 342l3 7h65l124 -191l66 -103h2l67 104l124 190h64l3 -7l-228 -342v-43q0 -113 4 -183l-2 -7h-66zM263 656q-31 52 -77 121l1 7h69q21 -41 69 -121l-1 -7h-61z" />
    <glyph glyph-name="z.sc" horiz-adv-x="553" 
d="M44 5v36l303 385l81 101v1h-148h-214l-3 5l6 49h442v-42l-305 -387q-29 -40 -78 -98l1 -2q55 1 166 1h213l3 -5l-6 -49h-458z" />
    <glyph glyph-name="zacute.sc" horiz-adv-x="553" 
d="M44 5v36l303 385l81 101v1h-148h-214l-3 5l6 49h442v-42l-305 -387q-29 -40 -78 -98l1 -2q55 1 166 1h213l3 -5l-6 -49h-458zM216 663q39 64 69 121h69l1 -7q-44 -65 -78 -121h-60z" />
    <glyph glyph-name="zcaron.sc" horiz-adv-x="553" 
d="M44 5v36l303 385l81 101v1h-148h-214l-3 5l6 49h442v-42l-305 -387q-29 -40 -78 -98l1 -2q55 1 166 1h213l3 -5l-6 -49h-458zM246 656q-52 57 -117 121l1 7h67l83 -87l83 87h67l2 -7q-75 -73 -117 -121h-69z" />
    <glyph glyph-name="zdotaccent.sc" horiz-adv-x="553" 
d="M44 5v36l303 385l81 101v1h-148h-214l-3 5l6 49h442v-42l-305 -387q-29 -40 -78 -98l1 -2q55 1 166 1h213l3 -5l-6 -49h-458zM248.5 679.5q-12.5 12.5 -12.5 35.5q0 22 12.5 34.5t31.5 12.5t31.5 -12.5t12.5 -34.5q0 -23 -12.5 -35.5t-31.5 -12.5t-31.5 12.5z" />
    <glyph glyph-name="ordfeminine" unicode="&#xaa;" horiz-adv-x="573" 
d="M134 273.5q-36 36.5 -36 101.5q0 164 194 164q39 0 116 -11v50q0 66 -27 93.5t-93 27.5q-68 0 -144 -24l-2 6l8 49q80 20 150 20q86 0 125 -38.5t39 -123.5v-89q0 -191 5 -241l-3 -7h-54l-3 6q1 21 1 76l-3 1q-27 -46 -71.5 -71.5t-101.5 -25.5q-64 0 -100 36.5z
M190 463.5q-33 -27.5 -33 -85.5q0 -43 23.5 -66t68.5 -23t82 19.5t57 52t20 71.5v50q-56 11 -115 11q-70 -2 -103 -29.5zM482 134v-45h-387l-3 6v45h387z" />
    <glyph glyph-name="ordmasculine" unicode="&#xba;" horiz-adv-x="599" 
d="M145 305q-53 68 -53 188q0 121 53 189t154 68q102 0 155 -68t53 -189q0 -120 -53 -188t-155 -68q-101 0 -154 68zM410 340.5q38 52.5 38 148.5q0 102 -37 156t-112 54q-73 0 -110.5 -53.5t-38.5 -152.5q0 -98 38 -151.5t111 -53.5t111 52.5zM101 95v45h393l3 -6v-45h-393
z" />
    <glyph glyph-name="uni0410" unicode="&#x410;" horiz-adv-x="666" 
d="M650 7l-2 -7h-65l-69 182h-362l-69 -182h-65l-2 7l283 722l5 5h62l5 -5zM491 240l-116 305q-19 51 -32 89l-8 23h-2q-9 -28 -42 -112l-116 -305h316z" />
    <glyph glyph-name="uni0411" unicode="&#x411;" horiz-adv-x="635" 
d="M525.5 384.5q65.5 -57.5 65.5 -165.5q0 -107 -63.5 -163t-187.5 -56h-234l-2 7q2 53 4 267v93v88q0 178 -4 272l2 7h424l7 -52l-3 -7h-359q-2 -80 -2 -158v-75h167q120 0 185.5 -57.5zM478 98.5q48 39.5 48 121.5q0 84 -48.5 123.5t-142.5 39.5h-162v-16q0 -240 2 -308
h161q94 0 142 39.5z" />
    <glyph glyph-name="uni0412" unicode="&#x412;" horiz-adv-x="651" 
d="M104 7q4 98 4 275v85v93q-2 214 -4 267l2 7h245q109 0 165.5 -44.5t56.5 -133.5q0 -68 -35 -112.5t-93 -57.5v-2q72 -12 115 -57.5t43 -117.5q0 -101 -63.5 -155t-181.5 -54h-252zM330 407q90 0 133.5 36t43.5 109q0 63 -40 93t-119 30h-174q-1 -74 -1 -268h157zM354 59
q184 0 184 149q0 71 -47.5 107t-140.5 36h-178v-92q0 -94 2 -200h180z" />
    <glyph glyph-name="uni0413" unicode="&#x413;" horiz-adv-x="544" 
d="M175 675q-3 -66 -3 -177q0 -84 1 -131q0 -89 1 -128q0 -190 3 -232l-2 -7h-69l-2 7q2 53 4 267v93v88q0 178 -4 272l2 7h397l8 -52l-4 -7h-332z" />
    <glyph glyph-name="uni0403" unicode="&#x403;" horiz-adv-x="544" 
d="M175 675q-3 -66 -3 -177q0 -84 1 -131q0 -89 1 -128q0 -190 3 -232l-2 -7h-69l-2 7q2 53 4 267v93v88q0 178 -4 272l2 7h397l8 -52l-4 -7h-332zM246 815q39 64 69 121h69l1 -7q-44 -65 -78 -121h-60z" />
    <glyph glyph-name="uni0490" unicode="&#x490;" horiz-adv-x="545" 
d="M510 785q0 -73 1 -103l-4 -7h-332q-3 -66 -3 -177q0 -84 1 -131q0 -89 1 -128q0 -190 3 -232l-2 -7h-69l-2 7q2 53 4 267v93v88q0 178 -4 272l2 7h341v45q0 75 -2 115l3 6h61l2 -6q-1 -17 -1 -109z" />
    <glyph glyph-name="uni0414" unicode="&#x414;" horiz-adv-x="798" 
d="M763 -51q0 -92 1 -109l-2 -6h-61l-3 6q2 40 2 115v45h-602v-45q0 -75 2 -115l-3 -6h-61l-2 6q1 17 1 109q0 73 -1 103l4 7h81q18 19 27.5 62t15.5 121l41 485l4 7h460l2 -7q-2 -53 -4 -267v-93v-109q0 -148 1 -199h94l4 -7q-1 -30 -1 -103zM214.5 132q-7.5 -44 -22.5 -73
h407q1 51 1 199v109q0 234 -2 308h-332l-37 -424q-7 -75 -14.5 -119z" />
    <glyph glyph-name="uni0415" unicode="&#x415;" horiz-adv-x="591" 
d="M544 52l-8 -52h-430l-2 7q4 94 4 272v88v93q-2 214 -4 267l2 7h419l7 -52l-3 -7h-354q-1 -38 -1 -147q-1 -38 -1 -126h320v-59h-320l-1 -124q0 -98 3 -160h365z" />
    <glyph glyph-name="uni0401" unicode="&#x401;" horiz-adv-x="591" 
d="M544 52l-8 -52h-430l-2 7q4 94 4 272v88v93q-2 214 -4 267l2 7h419l7 -52l-3 -7h-354q-1 -38 -1 -147q-1 -38 -1 -126h320v-59h-320l-1 -124q0 -98 3 -160h365zM176.5 829.5q-12.5 12.5 -12.5 35.5q0 22 12.5 34.5t31.5 12.5t31.5 -12.5t12.5 -34.5q0 -23 -12.5 -35.5
t-31.5 -12.5t-31.5 12.5zM386.5 829.5q-12.5 12.5 -12.5 35.5q0 22 12.5 34.5t31.5 12.5t31.5 -12.5t12.5 -34.5q0 -23 -12.5 -35.5t-31.5 -12.5t-31.5 12.5z" />
    <glyph glyph-name="uni0416" unicode="&#x416;" horiz-adv-x="1001" 
d="M982 7l-2 -7h-77l-248 347h-123v-88q0 -184 5 -252l-3 -7h-68l-2 7q5 60 5 208q0 82 -1 132h-122l-248 -347h-77l-2 7l271 376l-256 344l3 7h73l238 -329h120q0 79 -1 114q0 169 -3 208l2 7h68l3 -7q-2 -28 -3 -92.5t-1 -88.5q0 -89 -1 -141h121l238 329h73l2 -7
l-256 -344z" />
    <glyph glyph-name="uni0417" unicode="&#x417;" horiz-adv-x="590" 
d="M49 26q-6 36 -8 54l4 8q51 -21 112 -32.5t121 -11.5q200 0 200 151q0 76 -48.5 110t-160.5 34h-152v56h152q91 0 141.5 43.5t50.5 123.5q0 67 -43 97.5t-131 30.5q-118 0 -229 -47l-5 8l9 55q124 44 230 44q117 0 176 -46.5t59 -137.5q0 -67 -39.5 -118.5t-100.5 -71.5
v-4q76 -14 116 -58.5t40 -117.5q0 -100 -70.5 -156t-193.5 -56q-120 0 -230 42z" />
    <glyph glyph-name="uni0418" unicode="&#x418;" horiz-adv-x="785" 
d="M104 7q4 94 4 271v89v93q-2 213 -4 267l2 7h69l2 -7q-3 -42 -3 -232q-1 -39 -1 -128l-1 -99q0 -92 -2 -192h3l81 134l332 524h93l2 -7q-2 -52 -4 -267v-93v-89q0 -177 4 -271l-2 -7h-69l-2 7q5 70 5 229q0 84 -1 131l1 291h-2q-44 -75 -77 -126l-339 -532h-89z" />
    <glyph glyph-name="uni0419" unicode="&#x419;" horiz-adv-x="785" 
d="M104 7q4 94 4 271v89v93q-2 213 -4 267l2 7h69l2 -7q-3 -42 -3 -232q-1 -39 -1 -128l-1 -99q0 -92 -2 -192h3l81 134l332 524h93l2 -7q-2 -52 -4 -267v-93v-89q0 -177 4 -271l-2 -7h-69l-2 7q5 70 5 229q0 84 -1 131l1 291h-2q-44 -75 -77 -126l-339 -532h-89zM286 843
q-38 35 -38 98l2 7h52l3 -7q-1 -40 23 -64t65 -24t65 24t23 64l3 7h52l2 -7q0 -63 -38 -98t-107 -35t-107 35z" />
    <glyph glyph-name="uni040D" unicode="&#x40d;" horiz-adv-x="785" 
d="M104 7q4 94 4 271v89v93q-2 213 -4 267l2 7h69l2 -7q-3 -42 -3 -232q-1 -39 -1 -128l-1 -99q0 -92 -2 -192h3l81 134l332 524h93l2 -7q-2 -52 -4 -267v-93v-89q0 -177 4 -271l-2 -7h-69l-2 7q5 70 5 229q0 84 -1 131l1 291h-2q-44 -75 -77 -126l-339 -532h-89zM384 808
q-31 52 -77 121l1 7h69q21 -41 69 -121l-1 -7h-61z" />
    <glyph glyph-name="uni041A" unicode="&#x41a;" horiz-adv-x="668" 
d="M104 7q4 94 4 272v88v93q-2 214 -4 267l2 7h69l2 -7q-3 -39 -3 -208q-1 -35 -1 -114h117l261 329h76l3 -7l-279 -344l294 -376l-2 -7h-78l-274 347h-118q-1 -50 -1 -133q0 -147 5 -207l-2 -7h-69z" />
    <glyph glyph-name="uni040C" unicode="&#x40c;" horiz-adv-x="668" 
d="M104 7q4 94 4 272v88v93q-2 214 -4 267l2 7h69l2 -7q-3 -39 -3 -208q-1 -35 -1 -114h117l261 329h76l3 -7l-279 -344l294 -376l-2 -7h-78l-274 347h-118q-1 -50 -1 -133q0 -147 5 -207l-2 -7h-69zM261 815q39 64 69 121h69l1 -7q-44 -65 -78 -121h-60z" />
    <glyph glyph-name="uni041B" unicode="&#x41b;" horiz-adv-x="772" 
d="M664 281q0 -196 5 -274l-3 -7h-68l-3 7q5 78 5 274v86q-1 63 -1 171l-2 137h-328l-36 -424q-9 -103 -23 -158.5t-39.5 -80.5t-70.5 -25q-34 0 -66 10l-9 50l5 7q25 -7 55 -7q28 0 43.5 20.5t23.5 61t15 113.5l42 485l4 7h453l3 -7q-2 -31 -3 -103.5t-1 -98.5
q0 -100 -1 -158v-86z" />
    <glyph glyph-name="uni041C" unicode="&#x41c;" horiz-adv-x="906" 
d="M104 7q4 94 4 272v88v93q-2 214 -4 267l2 7h98l184 -336q11 -19 24 -44.5l19 -37.5q8 -14 22 -42h2l24 47l19 36.5l22 41.5l182 335h98l3 -7q-2 -31 -3 -103.5t-1 -98.5q0 -100 -1 -158v-86q0 -196 5 -274l-3 -7h-68l-3 7q5 78 5 275v85v50l1 149q1 34 1 91h-2
q-14 -28 -46 -84q-7 -14 -23 -42l-187 -339h-48l-191 342l-44 82l-22 41h-3q0 -27 1 -42q2 -132 2 -248q-1 -47 -1 -130q0 -160 5 -230l-2 -7h-69z" />
    <glyph glyph-name="uni041D" unicode="&#x41d;" horiz-adv-x="778" 
d="M670 281q0 -196 5 -274l-3 -7h-68l-3 7q5 75 5 256v79h-433q-1 -43 -1 -121q0 -147 5 -214l-2 -7h-69l-2 7q4 94 4 272v88v93q-2 214 -4 267l2 7h69l2 -7q-3 -39 -3 -211q-1 -36 -1 -116h433q-1 53 -1 143q0 24 -1 90t-3 94l3 7h68l3 -7q-2 -31 -3 -103.5t-1 -98.5
q0 -100 -1 -158v-86z" />
    <glyph glyph-name="uni041E" unicode="&#x41e;" horiz-adv-x="777" 
d="M216.5 31q-71.5 47 -109.5 133.5t-38 202.5t38 202.5t109.5 133.5t171.5 47t171.5 -47t109.5 -133.5t38 -202.5q0 -115 -39 -201.5t-111 -134t-169 -47.5q-100 0 -171.5 47zM574.5 129q65.5 85 65.5 238t-65.5 238t-186.5 85t-186.5 -85t-65.5 -238t65.5 -238t186.5 -85
t186.5 85z" />
    <glyph glyph-name="uni041F" unicode="&#x41f;" horiz-adv-x="776" 
d="M667 237q0 -160 5 -230l-2 -7h-69l-2 7q4 94 4 272v88l-1 155q0 114 -1 153h-426q-1 -42 -1 -165q-1 -43 -1 -143q-1 -47 -1 -130q0 -160 5 -230l-2 -7h-69l-2 7q4 94 4 272v88v93q-2 214 -4 267l2 7h564l2 -7q-3 -42 -3 -232q-1 -39 -1 -128q-1 -47 -1 -130z" />
    <glyph glyph-name="uni0420" unicode="&#x420;" horiz-adv-x="630" 
d="M584 503q0 -115 -65.5 -175t-185.5 -60h-161q0 -184 5 -261l-2 -7h-69l-2 7q4 94 4 271v89v93q-2 214 -4 267l2 7h227q251 0 251 -231zM470.5 369q48.5 42 48.5 133q0 90 -47.5 131.5t-142.5 41.5h-154q-1 -42 -1 -165q-1 -43 -1 -143v-40h155q94 0 142.5 42z" />
    <glyph glyph-name="uni0421" unicode="&#x421;" horiz-adv-x="644" 
d="M156 85.5q-87 101.5 -87 282.5q0 119 39.5 205t114 131.5t176.5 45.5q95 0 175 -24q6 -36 8 -54l-4 -7q-78 26 -178 26q-128 0 -196.5 -83.5t-68.5 -240.5t69 -240.5t201 -83.5q104 0 183 26l4 -7q-7 -43 -8 -54q-80 -24 -182 -24q-159 0 -246 101.5z" />
    <glyph glyph-name="uni0422" unicode="&#x422;" horiz-adv-x="611" 
d="M587 682l-3 -7h-244q-2 -74 -2 -308q-1 -47 -1 -130q0 -160 5 -230l-2 -7h-69l-2 7q4 94 4 272v88l-1 154q0 112 -1 154h-244l-4 7v52h564v-52z" />
    <glyph glyph-name="uni0423" unicode="&#x423;" horiz-adv-x="643" 
d="M161 8l129 235l-275 484l2 7h70l156 -281l61 -115l20 -37l1 1q20 44 53 100l26 49l156 283h66l2 -7l-399 -727h-66z" />
    <glyph glyph-name="uni040E" unicode="&#x40e;" horiz-adv-x="643" 
d="M161 8l129 235l-275 484l2 7h70l156 -281l61 -115l20 -37l1 1q20 44 53 100l26 49l156 283h66l2 -7l-399 -727h-66zM214 843q-38 35 -38 98l2 7h52l3 -7q-1 -40 23 -64t65 -24t65 24t23 64l3 7h52l2 -7q0 -63 -38 -98t-107 -35t-107 35z" />
    <glyph glyph-name="uni0424" unicode="&#x424;" horiz-adv-x="936" 
d="M769.5 99.5q-96.5 -95.5 -270.5 -99.5v-79l-3 -6h-58l-3 6v79q-173 4 -269.5 99.5t-96.5 267.5t96.5 267.5t269.5 99.5v79l3 6h58l3 -6v-79q174 -4 270.5 -99.5t96.5 -267.5t-96.5 -267.5zM721 139.5q78 78.5 78 227.5t-78 227.5t-223 81.5v-618q145 3 223 81.5z
M214 140.5q78 -78.5 222 -82.5v618q-144 -4 -222 -82.5t-78 -226.5t78 -226.5z" />
    <glyph glyph-name="uni0425" unicode="&#x425;" horiz-adv-x="699" 
d="M20 8l287 370l-263 349l2 7h73l230 -311h2l230 311h71l3 -7l-264 -349l288 -371l-2 -7h-73l-255 333h-1l-253 -333h-73z" />
    <glyph glyph-name="uni0427" unicode="&#x427;" horiz-adv-x="749" 
d="M641 271q0 -182 4 -264l-2 -7h-69l-2 7q5 57 5 199q0 78 -1 124q-52 -41 -120.5 -69.5t-141.5 -28.5q-83 0 -129.5 25.5t-66 80.5t-19.5 149q0 184 -4 240l2 7h69l2 -7q-4 -67 -4 -251q1 -69 15 -109t47 -58.5t92 -18.5q76 0 141 26t117 71v126q0 27 -1 105.5t-3 108.5
l2 7h69l2 -7q-2 -35 -3 -136t-1 -136v-88v-96z" />
    <glyph glyph-name="uni0426" unicode="&#x426;" horiz-adv-x="795" 
d="M760 -51q0 -92 1 -109l-2 -6h-61l-3 6q2 40 2 115v45h-591l-2 7q2 53 4 267v93v88q0 178 -4 272l2 7h69l2 -7q-5 -70 -5 -230q0 -83 1 -130q0 -100 1 -143q0 -123 1 -165h419q2 68 2 308v116q0 185 -4 244l2 7h69l2 -7q-4 -94 -4 -272v-88l1 -155q0 -114 1 -153h94l4 -7
q-1 -30 -1 -103z" />
    <glyph glyph-name="uni0428" unicode="&#x428;" horiz-adv-x="1144" 
d="M1036 455v-88v-93q2 -214 4 -267l-2 -7h-932l-2 7q2 53 4 267v93v88q0 178 -4 272l2 7h69l2 -7q-5 -70 -5 -230q0 -83 1 -130q0 -100 1 -143q0 -123 1 -165h362l2 137q0 108 1 171v86q0 196 -5 274l3 7h68l3 -7q-5 -78 -5 -274v-86q1 -63 1 -171l2 -137h362q1 42 1 165
q1 43 1 143q1 47 1 130q0 160 -5 230l2 7h69l2 -7q-4 -94 -4 -272z" />
    <glyph glyph-name="uni0429" unicode="&#x429;" horiz-adv-x="1169" 
d="M1134 -51q0 -92 1 -109l-2 -6h-61l-3 6q2 40 2 115v45h-965l-2 7q2 53 4 267v93v88q0 178 -4 272l2 7h69l2 -7q-5 -70 -5 -230q0 -83 1 -130q0 -100 1 -143q0 -123 1 -165h362l2 137q0 108 1 171v86q0 196 -5 274l3 7h68l3 -7q-5 -78 -5 -274v-86q1 -63 1 -171l2 -137
h362q1 42 1 165q1 43 1 143q1 47 1 130q0 160 -5 230l2 7h69l2 -7q-4 -94 -4 -272v-88l1 -155q0 -114 1 -153h93l4 -7q-1 -30 -1 -103z" />
    <glyph glyph-name="uni040F" unicode="&#x40f;" horiz-adv-x="769" 
d="M661 455v-88v-93q2 -214 4 -267l-2 -7h-246v-62q0 -65 1 -98l-2 -6h-62l-2 6q1 33 1 98v62h-247l-2 7q2 53 4 267v93v88q0 178 -4 272l2 7h69l2 -7q-5 -70 -5 -230q0 -83 1 -130q0 -234 2 -308h419q2 74 2 308q1 47 1 130q0 160 -5 230l2 7h69l2 -7q-4 -94 -4 -272z" />
    <glyph glyph-name="uni042C" unicode="&#x42c;" horiz-adv-x="635" 
d="M527 393.5q64 -57.5 64 -169.5q0 -110 -63.5 -167t-187.5 -57h-234l-2 7q2 53 4 267v93v88q0 178 -4 272l2 7h69l2 -7q-5 -78 -5 -276h169q122 0 186 -57.5zM478.5 99q47.5 40 47.5 126q0 89 -46.5 128.5t-141.5 39.5h-165v-26q0 -100 1 -143q0 -123 1 -165h161
q95 0 142.5 40z" />
    <glyph glyph-name="uni042A" unicode="&#x42a;" horiz-adv-x="721" 
d="M613 393.5q64 -57.5 64 -169.5q0 -110 -63.5 -167t-187.5 -57h-234l-2 7q2 53 4 267v93v101q0 107 -2 207h-165l-4 7v52h238l2 -7q-5 -78 -5 -276h169q122 0 186 -57.5zM564.5 99q47.5 40 47.5 126q0 89 -46.5 128.5t-141.5 39.5h-165v-26q0 -100 1 -143q0 -123 1 -165
h161q95 0 142.5 40z" />
    <glyph glyph-name="uni042B" unicode="&#x42b;" horiz-adv-x="916" 
d="M527 393.5q64 -57.5 64 -169.5q0 -110 -63.5 -167t-187.5 -57h-234l-2 7q2 53 4 267v93v88q0 178 -4 272l2 7h69l2 -7q-5 -78 -5 -276h169q122 0 186 -57.5zM478.5 99q47.5 40 47.5 126q0 89 -46.5 128.5t-141.5 39.5h-165v-26q0 -100 1 -143q0 -123 1 -165h161
q95 0 142.5 40zM739 7q4 94 4 272v88v93q-2 214 -4 267l2 7h69l2 -7q-3 -42 -3 -232q-1 -39 -1 -128q-1 -47 -1 -130q0 -160 5 -230l-2 -7h-69z" />
    <glyph glyph-name="uni0409" unicode="&#x409;" horiz-adv-x="1126" 
d="M1018.5 372q64.5 -56 64.5 -160q0 -102 -64.5 -157t-187.5 -55h-233l-3 7q5 78 5 274v86q-1 63 -1 171l-2 137h-328l-36 -424q-9 -103 -23 -158.5t-39.5 -80.5t-70.5 -25q-34 0 -66 10l-9 50l5 7q25 -7 55 -7q28 0 43.5 20.5t23.5 61t15 113.5l42 485l4 7h453l3 -7
q-3 -37 -3 -193q-1 -33 -1 -106h168q121 0 185.5 -56zM1017 213q0 81 -46 118.5t-141 37.5h-166v-2v-95q0 -136 3 -213h160q190 0 190 154z" />
    <glyph glyph-name="uni040A" unicode="&#x40a;" horiz-adv-x="1132" 
d="M1024.5 372q64.5 -56 64.5 -160q0 -102 -64.5 -157t-187.5 -55h-233l-3 7q2 31 3 103.5t1 98.5q0 100 1 158v2h-433v-2q-1 -47 -1 -130q0 -160 5 -230l-2 -7h-69l-2 7q4 94 4 272v88v93q-2 214 -4 267l2 7h69l2 -7q-3 -37 -3 -193q-1 -33 -1 -106h433q0 237 -5 299l3 7
h68l3 -7q-5 -62 -5 -299h169q121 0 185.5 -56zM1023 213q0 81 -46 118.5t-141 37.5h-166v-2q1 -63 1 -171l2 -137h160q190 0 190 154z" />
    <glyph glyph-name="uni0405" unicode="&#x405;" horiz-adv-x="610" 
d="M88 18l-4.5 23t-4.5 30l4 9q108 -37 207 -37q92 0 137.5 32t45.5 98q0 63 -39.5 99t-136.5 67q-118 37 -170 87.5t-52 128.5q0 96 62.5 145.5t183.5 49.5q46 0 88 -6.5t96 -21.5q2 -21 8 -53l-4 -9q-92 31 -187 31q-91 0 -135.5 -31t-44.5 -94q0 -61 43.5 -101t142.5 -70
q113 -35 163.5 -86t50.5 -131q0 -94 -64.5 -144t-185.5 -50q-99 0 -204 34z" />
    <glyph glyph-name="uni0404" unicode="&#x404;" horiz-adv-x="644" 
d="M592 62q-7 -43 -8 -54q-80 -24 -182 -24q-159 0 -246 101.5t-87 282.5q0 119 39.5 205t114 131.5t176.5 45.5q95 0 175 -24q6 -38 8 -54l-4 -7q-78 26 -178 26q-120 0 -188.5 -74.5t-75.5 -214.5h393v-59h-394q5 -145 74 -222.5t196 -77.5q104 0 183 26z" />
    <glyph glyph-name="uni042D" unicode="&#x42d;" horiz-adv-x="644" 
d="M52 62q7 -43 8 -54q80 -24 182 -24q159 0 246 101.5t87 282.5q0 119 -39.5 205t-114 131.5t-176.5 45.5q-95 0 -175 -24q-6 -38 -8 -54l4 -7q78 26 178 26q120 0 188.5 -74.5t75.5 -214.5h-393v-59h394q-5 -145 -74 -222.5t-196 -77.5q-104 0 -183 26z" />
    <glyph glyph-name="uni0406" unicode="&#x406;" horiz-adv-x="281" 
d="M104 7q4 94 4 272v88v93q-2 214 -4 267l2 7h69l2 -7q-3 -42 -3 -232q-1 -39 -1 -128q-1 -47 -1 -130q0 -160 5 -230l-2 -7h-69z" />
    <glyph glyph-name="uni0407" unicode="&#x407;" horiz-adv-x="281" 
d="M104 7q4 94 4 272v88v93q-2 214 -4 267l2 7h69l2 -7q-3 -42 -3 -232q-1 -39 -1 -128q-1 -47 -1 -130q0 -160 5 -230l-2 -7h-69zM4.5 829.5q-12.5 12.5 -12.5 35.5q0 22 12.5 34.5t31.5 12.5t31.5 -12.5t12.5 -34.5q0 -23 -12.5 -35.5t-31.5 -12.5t-31.5 12.5z
M214.5 829.5q-12.5 12.5 -12.5 35.5q0 22 12.5 34.5t31.5 12.5t31.5 -12.5t12.5 -34.5q0 -23 -12.5 -35.5t-31.5 -12.5t-31.5 12.5z" />
    <glyph glyph-name="uni0408" unicode="&#x408;" horiz-adv-x="281" 
d="M66 -103q22 34 32 83t10 124v263q0 284 -4 360l2 7h69l2 -7q-4 -57 -4 -360v-265q0 -73 -8 -124t-28 -87h-69z" />
    <glyph glyph-name="uni040B" unicode="&#x40b;" horiz-adv-x="853" 
d="M750 7l-3 -7h-68l-3 7q5 78 5 234v60q0 78 -37.5 116.5t-113.5 38.5q-55 0 -99 -25t-69 -73t-25 -112q0 -164 5 -239l-2 -7h-69l-2 7q4 76 4 360q0 160 -2 308h-244l-4 7v52h584v-52l-3 -7h-264v-165q0 -76 -2 -121l2 -1q32 58 86.5 91.5t121.5 33.5q97 0 147 -49.5
t50 -149.5v-73q0 -156 5 -234z" />
    <glyph glyph-name="uni042E" unicode="&#x42e;" horiz-adv-x="1069" 
d="M853.5 703q70.5 -47 108 -133.5t37.5 -202.5q0 -115 -38.5 -201.5t-109.5 -134t-166 -47.5q-94 0 -163.5 44t-108.5 124.5t-43 189.5h-197q-1 -43 -1 -121q0 -147 5 -214l-2 -7h-69l-2 7q4 94 4 272v88v93q-2 214 -4 267l2 7h69l2 -7q-3 -39 -3 -211q-1 -36 -1 -116h198
q5 106 44 185t108 122t162 43q98 0 168.5 -47zM868 129q65 85 65 238t-65 238t-183 85q-119 0 -183.5 -85t-64.5 -238t64.5 -238t183.5 -85q118 0 183 85z" />
    <glyph glyph-name="uni042F" unicode="&#x42f;" horiz-adv-x="644" 
d="M469 0l-2 7q5 85 5 300h-164l-208 -307h-76l-2 7l171 248l18 26l21 31v3q-87 12 -133 64t-46 144q0 104 61 157.5t182 53.5h242l2 -7q-3 -42 -3 -232q-1 -39 -1 -128q-1 -47 -1 -131q0 -159 5 -229l-2 -7h-69zM470 516q0 117 -1 159h-170q-92 0 -136.5 -37t-44.5 -116
q0 -157 187 -157h166z" />
    <glyph glyph-name="uni0402" unicode="&#x402;" horiz-adv-x="849" 
d="M546 -3l-8 50l4 7q28 -7 52 -7q47 0 67 38t20 131v85q0 78 -37.5 116.5t-113.5 38.5q-55 0 -99 -25t-69 -73t-25 -112q0 -164 5 -239l-2 -7h-69l-2 7q4 76 4 360q0 160 -2 308h-244l-4 7v52h584v-52l-3 -7h-266v-157v-129l2 -1q32 58 86.5 91.5t121.5 33.5
q97 0 147 -49.5t50 -149.5v-91q0 -127 -31.5 -181.5t-100.5 -54.5q-33 0 -67 10z" />
    <glyph glyph-name="uni04C0" unicode="&#x4c0;" horiz-adv-x="281" 
d="M104 7q4 94 4 272v88v93q-2 214 -4 267l2 7h69l2 -7q-3 -42 -3 -232q-1 -39 -1 -128q-1 -47 -1 -130q0 -160 5 -230l-2 -7h-69z" />
    <glyph glyph-name="uni04E2" unicode="&#x4e2;" horiz-adv-x="785" 
d="M104 7q4 94 4 271v89v93q-2 213 -4 267l2 7h69l2 -7q-3 -42 -3 -232q-1 -39 -1 -128l-1 -99q0 -92 -2 -192h3l81 134l332 524h93l2 -7q-2 -52 -4 -267v-93v-89q0 -177 4 -271l-2 -7h-69l-2 7q5 70 5 229q0 84 -1 131l1 291h-2q-44 -75 -77 -126l-339 -532h-89zM256 836
v41h270l3 -6v-42h-271z" />
    <glyph glyph-name="uni04EE" unicode="&#x4ee;" horiz-adv-x="643" 
d="M161 8l129 235l-275 484l2 7h70l156 -281l61 -115l20 -37l1 1q20 44 53 100l26 49l156 283h66l2 -7l-399 -727h-66zM184 836v41h270l3 -6v-42h-271z" />
    <glyph glyph-name="uni0414.loclBGR" horiz-adv-x="788" 
d="M753 -51q0 -92 1 -109l-2 -6h-61l-3 6q2 40 2 115v45h-592v-45q0 -75 2 -115l-3 -6h-61l-2 6q1 17 1 109q0 73 -1 103l4 7h74l247 670l6 5h61l6 -5q15 -40 26 -73l218 -597h74l4 -7q-1 -30 -1 -103zM343 513l-162 -454h427l-162 455l-27 79l-23 64h-2z" />
    <glyph glyph-name="uni041B.loclBGR" horiz-adv-x="657" 
d="M16 7l126 323.5l90 236.5l62 162l6 5h61l6 -5l23 -62l252 -660l-3 -7h-63l-204 545l-8 21q-16 40 -33 91h-2l-42 -112l-204 -545h-65z" />
    <glyph glyph-name="uni0409.loclBGR" horiz-adv-x="1017" 
d="M909 372q64 -56 64 -160q0 -102 -64 -157t-187 -55h-146l-204 545l-8 21q-16 40 -33 91h-2l-42 -112l-204 -545h-65l-2 7l126 323.5l90 236.5l62 162l6 5h61l6 -5l113 -302v1h243q122 0 186 -56zM908 213q0 81 -46.5 118.5t-140.5 37.5h-219l119 -310h97q190 0 190 154z
" />
    <glyph glyph-name="uni0430" unicode="&#x430;" horiz-adv-x="554" 
d="M464 7l-2 -7h-60l-3 6l1 83l-3 1q-30 -50 -80 -78t-113 -28q-71 0 -110 39.5t-39 112.5q0 177 214 177q44 0 130 -11v55q0 72 -31 102.5t-104 30.5q-72 0 -158 -26l-3 6l10 53q96 22 164 22q94 0 138.5 -42.5t44.5 -134.5v-96q0 -221 4 -265zM311 61q41 22 64.5 58
t23.5 77v56q-66 13 -130 13q-76 -2 -113.5 -32t-37.5 -93q0 -50 26 -75.5t77 -25.5q49 0 90 22z" />
    <glyph glyph-name="uni0431" unicode="&#x431;" horiz-adv-x="608" 
d="M118 59.5q-60 75.5 -60 240.5q0 131 23 210t81 118q34 23 69.5 35.5t90.5 26.5q54 14 89.5 27t67.5 36l5 -2q1 -19 7 -57q-33 -23 -69.5 -35.5t-89.5 -24.5q-42 -9 -70.5 -18t-52.5 -24q-47 -29 -67 -88t-20 -152l1 -1q23 57 79.5 96t133.5 39q102 0 158.5 -65t56.5 -176
q0 -77 -29 -136t-84.5 -92t-132.5 -33q-127 0 -187 75.5zM440.5 94q47.5 55 47.5 150q0 88 -43.5 138t-124.5 50q-53 0 -98 -25.5t-71.5 -71t-26.5 -103.5q0 -110 61 -159q43 -34 119 -34q89 0 136.5 55z" />
    <glyph glyph-name="uni0432" unicode="&#x432;" horiz-adv-x="554" 
d="M90 6q4 82 4 257q0 207 -4 260l2 6h215q96 0 138.5 -31t42.5 -99q0 -48 -26.5 -80t-71.5 -42v-2q58 -8 90.5 -40t32.5 -85q0 -150 -199 -150h-222zM295 296q69 0 100 23t31 73q0 45 -29 64t-94 19h-147l-1 -83l1 -96h139zM313 54q73 0 105.5 23t32.5 74q0 49 -33.5 72
t-111.5 23h-150l-1 -108l1 -84h157z" />
    <glyph glyph-name="uni0433" unicode="&#x433;" horiz-adv-x="472" 
d="M157 475q-2 -106 -2 -211q0 -190 4 -257l-2 -7h-65l-2 7q4 100 4 257q0 158 -4 258l2 7h332l7 -47l-3 -7h-271z" />
    <glyph glyph-name="uni0453" unicode="&#x453;" horiz-adv-x="472" 
d="M157 475q-2 -106 -2 -211q0 -190 4 -257l-2 -7h-65l-2 7q4 100 4 257q0 158 -4 258l2 7h332l7 -47l-3 -7h-271zM196 610q42 71 75 133h68l1 -7q-35 -51 -84 -133h-59z" />
    <glyph glyph-name="uni0491" unicode="&#x491;" horiz-adv-x="474" 
d="M430 575q0 -64 1 -93l-3 -7h-271q-2 -106 -2 -211q0 -190 4 -257l-2 -7h-65l-2 7q4 100 4 257q0 158 -4 258l2 7h281v41q0 61 -2 101l3 7h55l2 -7q-1 -17 -1 -96z" />
    <glyph glyph-name="uni0434" unicode="&#x434;" horiz-adv-x="656" 
d="M619 -46q0 -79 1 -96l-2 -7h-55l-3 7q2 40 2 101v41h-467v-41q0 -61 2 -101l-3 -7h-55l-2 7q1 17 1 96q0 64 -1 93l4 6h61q14 14 22 43t12 77l33 351l3 5h366l2 -7q-4 -67 -4 -258q0 -105 2 -211h78l4 -6q-1 -29 -1 -93zM170 53h302q3 80 3 211q0 150 -2 211h-246
l-31 -310q-8 -77 -26 -112z" />
    <glyph glyph-name="uni0435" unicode="&#x435;" horiz-adv-x="599" 
d="M485 467.5q60 -77.5 55 -221.5l-3 -7l-416 -7q15 -193 207 -193q88 0 167 31l4 -6q-2 -9 -4.5 -22.5t-4.5 -30.5q-41 -13 -86 -20t-84 -7q-128 0 -195 71.5t-67 206.5q0 132 67 207.5t183 75.5q117 0 177 -77.5zM478 292q0 96 -44.5 147t-127.5 51q-84 0 -132.5 -54.5
t-53.5 -152.5z" />
    <glyph glyph-name="uni0451" unicode="&#x451;" horiz-adv-x="599" 
d="M485 467.5q60 -77.5 55 -221.5l-3 -7l-416 -7q15 -193 207 -193q88 0 167 31l4 -6q-2 -9 -4.5 -22.5t-4.5 -30.5q-41 -13 -86 -20t-84 -7q-128 0 -195 71.5t-67 206.5q0 132 67 207.5t183 75.5q117 0 177 -77.5zM478 292q0 96 -44.5 147t-127.5 51q-84 0 -132.5 -54.5
t-53.5 -152.5zM158.5 640.5q-12.5 12.5 -12.5 35.5q0 22 12.5 34.5t31.5 12.5t31.5 -12.5t12.5 -34.5q0 -23 -12.5 -35.5t-31.5 -12.5t-31.5 12.5zM368.5 640.5q-12.5 12.5 -12.5 35.5q0 22 12.5 34.5t31.5 12.5t31.5 -12.5t12.5 -34.5q0 -23 -12.5 -35.5t-31.5 -12.5
t-31.5 12.5z" />
    <glyph glyph-name="uni0436" unicode="&#x436;" horiz-adv-x="833" 
d="M803 7l-2 -7h-70l-182 248h-102q0 -145 4 -241l-2 -7h-65l-2 7q4 64 4 241h-102l-181 -248h-70l-3 7l199 268l-157 247l2 7h67l142 -227h103q0 160 -4 220l2 7h65l2 -7q-2 -49 -4 -220h103l142 227h67l2 -7l-157 -247z" />
    <glyph glyph-name="uni0437" unicode="&#x437;" horiz-adv-x="488" 
d="M48 14q-2 9 -4.5 21.5t-4.5 29.5l3 6q40 -15 89 -23.5t95 -8.5q79 0 118 26t39 81q0 52 -36 74t-124 22h-123v51h123q71 0 110 28.5t39 80.5q0 46 -34.5 67t-108.5 21q-83 0 -176 -34l-4 7l9 51q95 31 182 31q101 0 147.5 -34t46.5 -102q0 -47 -28 -82t-76 -53v-2
q58 -11 87 -43.5t29 -84.5q0 -77 -55 -118.5t-158 -41.5q-96 0 -185 30z" />
    <glyph glyph-name="uni0438" unicode="&#x438;" horiz-adv-x="640" 
d="M90 7q4 70 4 210v46v67q-2 154 -4 192l2 7h65l2 -7q-2 -44 -4 -245q0 -35 -1 -52q0 -92 -3 -148h3l48 70l29 43l238 339h79l2 -6q-4 -53 -4 -260q0 -178 4 -256l-2 -7h-65l-2 7q4 62 4 191v49q0 102 2 200h-3l-77 -112l-239 -335h-76z" />
    <glyph glyph-name="uni0439" unicode="&#x439;" horiz-adv-x="640" 
d="M90 7q4 70 4 210v46v67q-2 154 -4 192l2 7h65l2 -7q-2 -44 -4 -245q0 -35 -1 -52q0 -92 -3 -148h3l48 70l29 43l238 339h79l2 -6q-4 -53 -4 -260q0 -178 4 -256l-2 -7h-65l-2 7q4 62 4 191v49q0 102 2 200h-3l-77 -112l-239 -335h-76zM211 638q-38 35 -38 98l2 7h52l3 -7
q-1 -40 23 -64t65 -24t65 24t23 64l3 7h52l2 -7q0 -63 -38 -98t-107 -35t-107 35z" />
    <glyph glyph-name="uni045D" unicode="&#x45d;" horiz-adv-x="640" 
d="M90 7q4 70 4 210v46v67q-2 154 -4 192l2 7h65l2 -7q-2 -44 -4 -245q0 -35 -1 -52q0 -92 -3 -148h3l48 70l29 43l238 339h79l2 -6q-4 -53 -4 -260q0 -178 4 -256l-2 -7h-65l-2 7q4 62 4 191v49q0 102 2 200h-3l-77 -112l-239 -335h-76zM227 736l1 7h68q23 -45 75 -133
l-1 -7h-59q-37 62 -84 133z" />
    <glyph glyph-name="uni043A" unicode="&#x43a;" horiz-adv-x="569" 
d="M538 7l-2 -7h-72l-208 248h-101q0 -177 4 -241l-2 -7h-65l-2 7q4 100 4 257q0 158 -4 258l2 7h65l2 -7q-4 -59 -4 -220h102l169 227h68l2 -7l-185 -247z" />
    <glyph glyph-name="uni045C" unicode="&#x45c;" horiz-adv-x="569" 
d="M538 7l-2 -7h-72l-208 248h-101q0 -177 4 -241l-2 -7h-65l-2 7q4 100 4 257q0 158 -4 258l2 7h65l2 -7q-4 -59 -4 -220h102l169 227h68l2 -7l-185 -247zM217 610q42 71 75 133h68l1 -7q-35 -51 -84 -133h-59z" />
    <glyph glyph-name="uni043B" unicode="&#x43b;" horiz-adv-x="621" 
d="M30 -4l-9 47l4 6q23 -7 43 -7q31 0 45 31t20 100l34 351l3 5h359l3 -7q-5 -83 -5 -258q0 -174 5 -257l-3 -7h-64l-3 7q5 83 5 257q0 120 -3 211h-240l-31 -310q-9 -94 -32.5 -136t-79.5 -42q-26 0 -51 9z" />
    <glyph glyph-name="uni043C" unicode="&#x43c;" horiz-adv-x="739" 
d="M90 6q4 72 4 195v64v66q-2 150 -4 191l2 7h84l139 -229l18 -30q28 -46 36 -62h1q21 38 55 93l138 228h84l2 -7q-2 -41 -4 -191v-66v-64q0 -123 4 -195l-2 -6h-65l-2 6q4 84 4 241l1 197h-1l-51 -83l-142 -229h-43l-144 231l-49 81h-1l1 -197q0 -157 4 -241l-2 -6h-65z
" />
    <glyph glyph-name="uni043D" unicode="&#x43d;" horiz-adv-x="635" 
d="M541 264q0 -190 4 -257l-2 -7h-65l-2 7q4 94 4 236h-325q0 -173 4 -236l-2 -7h-65l-2 7q4 100 4 257q0 158 -4 258l2 7h65l2 -7q-4 -60 -4 -226h325q0 136 -4 226l2 7h65l2 -7q-4 -67 -4 -258z" />
    <glyph glyph-name="uni043E" unicode="&#x43e;" horiz-adv-x="615" 
d="M174.5 19q-56.5 35 -86.5 98t-30 147t30 147.5t86.5 98.5t133.5 35t133.5 -35t86.5 -98.5t30 -147.5t-30 -147t-86.5 -98t-133.5 -35t-133.5 35zM446 98q49 59 49 166t-49 166.5t-138 59.5q-90 0 -139 -59.5t-49 -166.5t49 -166t139 -59q89 0 138 59z" />
    <glyph glyph-name="uni043F" unicode="&#x43f;" horiz-adv-x="635" 
d="M541 264q0 -190 4 -257l-2 -7h-65l-2 7q4 100 4 257q0 105 -2 211h-321q-2 -106 -2 -211q0 -190 4 -257l-2 -7h-65l-2 7q4 100 4 257q0 158 -4 258l2 7h451l2 -7q-4 -67 -4 -258z" />
    <glyph glyph-name="uni0440" unicode="&#x440;" horiz-adv-x="614" 
d="M90 -193q3 42 3 230q1 38 1 127v88q0 176 -4 270l2 7h61l3 -6q-1 -22 -1 -104l3 -1q29 61 80.5 94t119.5 33q199 0 199 -269q0 -139 -64 -215.5t-185 -76.5q-70 0 -153 27q0 -94 4 -204l-2 -7h-65zM447 100q47 61 47 184q0 104 -38 154.5t-115 50.5q-55 0 -97 -26.5
t-65.5 -74.5t-23.5 -110v-213q35 -12 75.5 -19t72.5 -7q97 0 144 61z" />
    <glyph glyph-name="uni0441" unicode="&#x441;" horiz-adv-x="507" 
d="M123.5 57q-65.5 73 -65.5 205q0 133 68.5 208t189.5 75q60 0 134 -20l9 -52l-4 -7q-75 24 -141 24q-95 0 -144.5 -57.5t-49.5 -167.5t51 -168t145 -58q66 0 144 24l3 -6q-2 -17 -4.5 -30.5t-4.5 -22.5q-73 -20 -145 -20q-120 0 -185.5 73z" />
    <glyph glyph-name="uni0442" unicode="&#x442;" horiz-adv-x="518" 
d="M477 481l-3 -6h-182q-3 -79 -3 -211q0 -174 5 -257l-3 -7h-64l-3 7q5 83 5 257q0 132 -3 211h-182l-3 6v48h436v-48z" />
    <glyph glyph-name="uni0443" unicode="&#x443;" horiz-adv-x="539" 
d="M151 -193l98 227l-225 488l2 7h66l125 -276l63 -141h2l15 37l41 102l113 278h65l2 -7l-303 -722h-62z" />
    <glyph glyph-name="uni045E" unicode="&#x45e;" horiz-adv-x="539" 
d="M151 -193l98 227l-225 488l2 7h66l125 -276l63 -141h2l15 37l41 102l113 278h65l2 -7l-303 -722h-62zM168 638q-38 35 -38 98l2 7h52l3 -7q-1 -40 23 -64t65 -24t65 24t23 64l3 7h52l2 -7q0 -63 -38 -98t-107 -35t-107 35z" />
    <glyph glyph-name="uni0444" unicode="&#x444;" horiz-adv-x="757" 
d="M624 59.5q-76 -71.5 -214 -75.5q0 -32 1 -47q0 -96 3 -130l-3 -7h-65l-2 7q3 43 3 177q-138 4 -213.5 76t-75.5 204q0 133 75 205t215 76q-2 154 -4 192l2 7h65l3 -7q-3 -36 -5 -192q139 -4 215 -76t76 -205t-76 -204.5zM349 39v451q-229 -5 -229 -226q0 -220 229 -225z
M579 97q58 55 58 167q0 221 -229 226l1 -451q112 3 170 58z" />
    <glyph glyph-name="uni0445" unicode="&#x445;" horiz-adv-x="542" 
d="M22 7l208 267l-194 248l2 7h71l160 -212h3l161 212h71l3 -7l-196 -248l209 -267l-3 -7h-68l-177 232h-2l-177 -232h-68z" />
    <glyph glyph-name="uni0447" unicode="&#x447;" horiz-adv-x="618" 
d="M459 7q4 69 4 234l-3 1q-89 -91 -209 -91q-80 0 -120 46.5t-40 142.5q0 114 -4 182l2 7h65l2 -7q-4 -66 -4 -176q0 -77 27 -108.5t88 -31.5q57 0 108.5 25t87.5 68q0 159 -4 223l2 7h65l2 -7q-4 -100 -4 -258q0 -157 4 -257l-2 -7h-65z" />
    <glyph glyph-name="uni0446" unicode="&#x446;" horiz-adv-x="658" 
d="M621 -46q0 -79 1 -96l-2 -7h-55l-3 7q2 40 2 101v41h-472l-2 7q4 100 4 258q0 157 -4 257l2 7h65l2 -7q-4 -67 -4 -257q0 -106 2 -212h316q3 80 3 212q0 174 -5 257l3 7h64l3 -7q-5 -83 -5 -257q0 -132 3 -212h79l4 -6q-1 -29 -1 -93z" />
    <glyph glyph-name="uni0448" unicode="&#x448;" horiz-adv-x="944" 
d="M850 265q0 -158 4 -258l-2 -7h-760l-2 7q4 100 4 258q0 157 -4 257l2 7h65l2 -7q-4 -67 -4 -257q0 -106 2 -212h282q3 80 3 212q0 174 -5 257l3 7h64l3 -7q-5 -83 -5 -257q0 -132 3 -212h282q2 106 2 212q0 190 -4 257l2 7h65l2 -7q-4 -100 -4 -257z" />
    <glyph glyph-name="uni0449" unicode="&#x449;" horiz-adv-x="974" 
d="M937 -62q0 -66 1 -80l-2 -7h-56l-2 7q2 40 2 101v41h-788l-2 7q4 100 4 258q0 157 -4 257l2 7h65l2 -7q-4 -67 -4 -257q0 -106 2 -212h282q3 80 3 212q0 174 -5 257l3 7h64l3 -7q-5 -83 -5 -257q0 -132 3 -212h282q2 106 2 212q0 190 -4 257l2 7h65l2 -7q-4 -100 -4 -257
q0 -132 3 -212h81l4 -6q-1 -34 -1 -109z" />
    <glyph glyph-name="uni045F" unicode="&#x45f;" horiz-adv-x="630" 
d="M536 265q0 -175 5 -258l-3 -7h-194v-48q0 -62 2 -94l-3 -7h-55l-2 7q1 32 1 94v48h-195l-2 7q4 100 4 258q0 157 -4 257l2 7h65l2 -7q-4 -67 -4 -257q0 -150 2 -212h316q3 93 3 212q0 174 -5 257l3 7h64l3 -7q-5 -83 -5 -257z" />
    <glyph glyph-name="uni044C" unicode="&#x44c;" horiz-adv-x="557" 
d="M501 174q0 -85 -50.5 -129.5t-150.5 -44.5h-208l-2 7q4 100 4 257q0 158 -4 258l2 7h65l2 -7q-2 -41 -4 -176h146q200 0 200 -172zM438 176q0 63 -34 90t-104 27h-145v-29q0 -105 2 -211h141q140 0 140 123z" />
    <glyph glyph-name="uni044A" unicode="&#x44a;" horiz-adv-x="659" 
d="M603 174q0 -85 -50.5 -129.5t-150.5 -44.5h-208l-2 7q4 100 4 257q0 105 -2 211h-150l-3 6v48h218l2 -7q-2 -41 -4 -176h146q200 0 200 -172zM540 176q0 63 -34 90t-104 27h-145v-29q0 -105 2 -211h141q140 0 140 123z" />
    <glyph glyph-name="uni044B" unicode="&#x44b;" horiz-adv-x="806" 
d="M501 174q0 -85 -50.5 -129.5t-150.5 -44.5h-208l-2 7q4 100 4 257q0 158 -4 258l2 7h65l2 -7q-2 -41 -4 -176h146q200 0 200 -172zM438 176q0 63 -34 90t-104 27h-145v-29q0 -105 2 -211h141q140 0 140 123zM647 7q4 100 4 257q0 158 -4 258l2 7h65l2 -7q-4 -67 -4 -258
q0 -190 4 -257l-2 -7h-65z" />
    <glyph glyph-name="uni0459" unicode="&#x459;" horiz-adv-x="930" 
d="M823 276q50 -40 50 -116q0 -75 -51 -117.5t-149 -42.5h-208l-3 7q5 83 5 257q0 120 -3 211h-240l-31 -310q-9 -94 -32.5 -136t-79.5 -42q-26 0 -51 9l-9 47l4 6q23 -7 43 -7q31 0 45 31t20 100l34 351l3 5h359l3 -7q-3 -45 -5 -206h146q100 0 150 -40zM775 80.5
q36 27.5 36 80.5t-34.5 77.5t-103.5 24.5h-146q0 -130 3 -210h141q68 0 104 27.5z" />
    <glyph glyph-name="uni045A" unicode="&#x45a;" horiz-adv-x="943" 
d="M836.5 276q50.5 -40 50.5 -116q0 -75 -51 -117.5t-150 -42.5h-208l-2 7q4 100 4 256h-325q0 -189 4 -256l-2 -7h-65l-2 7q4 100 4 257q0 158 -4 258l2 7h65l2 -7q-4 -56 -4 -206h325q-2 160 -4 206l2 7h65l2 -7q-4 -56 -4 -206h146q99 0 149.5 -40zM788 80.5
q36 27.5 36 80.5t-34.5 77.5t-103.5 24.5h-145q0 -104 2 -210h141q68 0 104 27.5z" />
    <glyph glyph-name="uni0455" unicode="&#x455;" horiz-adv-x="477" 
d="M73 6q-8 48 -9 53l3 6q46 -14 80 -20t72 -6q142 0 142 92q0 42 -31 68t-105 47q-94 26 -131.5 63.5t-37.5 96.5q0 69 46.5 104t136.5 35q40 0 74 -5t76 -16q2 -17 4.5 -30.5t4.5 -22.5l-4 -6q-42 12 -77 18.5t-76 6.5q-63 0 -93 -20.5t-30 -64.5q0 -39 28 -61.5t97 -43.5
q68 -21 107 -43.5t56 -52.5t17 -74q0 -71 -51.5 -108.5t-150.5 -37.5q-68 0 -148 22z" />
    <glyph glyph-name="uni0454" unicode="&#x454;" horiz-adv-x="506" 
d="M463 57q-2 -17 -4.5 -30.5t-4.5 -22.5q-73 -20 -145 -20q-120 0 -185.5 73t-65.5 205q0 133 68.5 208t189.5 75q60 0 134 -20l9 -52l-4 -7q-75 24 -141 24q-89 0 -138 -50.5t-55 -146.5h289v-51h-289q5 -99 55.5 -151t139.5 -52q66 0 144 24z" />
    <glyph glyph-name="uni044D" unicode="&#x44d;" horiz-adv-x="506" 
d="M43 57q2 -17 4.5 -30.5t4.5 -22.5q73 -20 145 -20q120 0 185.5 73t65.5 205q0 133 -68.5 208t-189.5 75q-60 0 -134 -20l-9 -52l4 -7q75 24 141 24q89 0 138 -50.5t55 -146.5h-289v-51h289q-5 -99 -55.5 -151t-139.5 -52q-66 0 -144 24z" />
    <glyph glyph-name="uni0456" unicode="&#x456;" horiz-adv-x="249" 
d="M93.5 624.5q-12.5 12.5 -12.5 34.5t12.5 35t31.5 13q18 0 30.5 -13t12.5 -35t-12.5 -34.5t-30.5 -12.5q-19 0 -31.5 12.5zM90 7q4 100 4 257q0 158 -4 258l2 7h65l2 -7q-4 -67 -4 -258q0 -190 4 -257l-2 -7h-65z" />
    <glyph glyph-name="uni0457" unicode="&#x457;" horiz-adv-x="249" 
d="M90 7q4 100 4 257q0 158 -4 258l2 7h65l2 -7q-4 -67 -4 -258q0 -190 4 -257l-2 -7h-65zM-11.5 624.5q-12.5 12.5 -12.5 35.5q0 22 12.5 34.5t31.5 12.5t31.5 -12.5t12.5 -34.5q0 -23 -12.5 -35.5t-31.5 -12.5t-31.5 12.5zM198.5 624.5q-12.5 12.5 -12.5 35.5
q0 22 12.5 34.5t31.5 12.5t31.5 -12.5t12.5 -34.5q0 -23 -12.5 -35.5t-31.5 -12.5t-31.5 12.5z" />
    <glyph glyph-name="uni0458" unicode="&#x458;" horiz-adv-x="249" 
d="M93.5 624.5q-12.5 12.5 -12.5 34.5t12.5 35t31.5 13t31.5 -13t12.5 -35t-12.5 -34.5t-31.5 -12.5t-31.5 12.5zM63 -194q31 74 31 202v256q0 158 -4 258l2 7h65l2 -7q-4 -67 -4 -258v-257q0 -142 -32 -207h-58z" />
    <glyph glyph-name="uni045B" unicode="&#x45b;" horiz-adv-x="634" 
d="M544 7l-2 -7h-65l-2 7q4 67 4 254v73q0 76 -34.5 115.5t-103.5 39.5q-56 0 -98.5 -27t-65.5 -76t-23 -113q0 -199 4 -266l-2 -7h-65l-2 7q4 49 4 250v122q0 173 -1 246h-108v38l2 7h105q0 35 -2 67l2 7h65l2 -7q-1 -9 -1 -33l-1 -34h197v-38l-3 -7h-195v-99l-1 -109h2
q29 62 82 95t120 33q88 0 135 -50.5t47 -147.5v-86q0 -154 4 -254z" />
    <glyph glyph-name="uni044E" unicode="&#x44e;" horiz-adv-x="838" 
d="M665.5 510q54.5 -35 84.5 -98.5t30 -147.5q0 -83 -30 -146.5t-84.5 -98.5t-127.5 -35q-70 0 -123.5 32.5t-84.5 91.5t-34 137h-141q0 -175 4 -238l-2 -7h-65l-2 7q4 100 4 257q0 158 -4 258l2 7h65l2 -7q-4 -60 -4 -223h142q10 113 74.5 179.5t166.5 66.5q73 0 127.5 -35
zM669.5 98.5q47.5 59.5 47.5 165.5q0 107 -47.5 166.5t-131.5 59.5t-131.5 -59.5t-47.5 -166.5q0 -106 47.5 -165.5t131.5 -59.5t131.5 59.5z" />
    <glyph glyph-name="uni044F" unicode="&#x44f;" horiz-adv-x="541" 
d="M384 0l-2 7q4 78 4 208h-126l-155 -215h-70l-2 7l124 166q27 38 37 49v1q-69 14 -103 50t-34 98q0 77 50 117.5t153 40.5h189l2 -7q-4 -57 -4 -257q0 -172 4 -258l-2 -7h-65zM385 475h-121q-74 0 -109 -23.5t-35 -78.5q0 -107 148 -107h118q0 151 -1 209z" />
    <glyph glyph-name="uni0452" unicode="&#x452;" horiz-adv-x="629" 
d="M492 494.5q47 -50.5 47 -147.5v-340q0 -141 -31 -207h-58l-3 6q17 39 24 88.5t7 113.5v326q0 76 -34.5 115.5t-103.5 39.5q-56 0 -98.5 -27t-65.5 -76t-23 -113q0 -199 4 -266l-2 -7h-65l-2 7q4 49 4 250v122q0 174 -1 247l-105 6v38h104q0 35 -2 67l2 7h65l2 -7
q-1 -9 -1 -33l-1 -34h75l125 -6v-38l-201 -1v-99l-1 -109h2q29 62 82 95t120 33q88 0 135 -50.5z" />
    <glyph glyph-name="uni04CF" unicode="&#x4cf;" horiz-adv-x="247" 
d="M89 7q5 70 5 232q0 85 -1 133q0 91 -1 131q0 192 -3 234l2 7h65l2 -7q-3 -42 -3 -234q-1 -40 -1 -131v-119q0 -187 4 -246l-2 -7h-65z" />
    <glyph glyph-name="uni04E3" unicode="&#x4e3;" horiz-adv-x="640" 
d="M90 7q4 70 4 210v46v67q-2 154 -4 192l2 7h65l2 -7q-2 -44 -4 -245q0 -35 -1 -52q0 -92 -3 -148h3l48 70l29 43l238 339h79l2 -6q-4 -53 -4 -260q0 -178 4 -256l-2 -7h-65l-2 7q4 62 4 191v49q0 102 2 200h-3l-77 -112l-239 -335h-76zM181 635v41h270l3 -7v-41h-271z" />
    <glyph glyph-name="uni04EF" unicode="&#x4ef;" horiz-adv-x="539" 
d="M151 -193l98 227l-225 488l2 7h66l125 -276l63 -141h2l15 37l41 102l113 278h65l2 -7l-303 -722h-62zM138 635v41h270l3 -7v-41h-271z" />
    <glyph glyph-name="uni0432.loclBGR" horiz-adv-x="633" 
d="M532.5 349q43.5 -47 43.5 -134q0 -111 -64 -171t-192 -60q-121 0 -177 57t-56 193v234q0 155 57.5 223.5t178.5 68.5q106 0 159.5 -43.5t53.5 -128.5q0 -77 -36.5 -120t-106.5 -64v-3q96 -5 139.5 -52zM221 680.5q-38 -24.5 -55 -76.5t-18 -138v-73l156 21q80 10 125 52
t45 118q0 62 -37.5 91.5t-113.5 29.5q-64 0 -102 -24.5zM463 83q50 44 50 129q0 78 -38.5 114.5t-124.5 36.5q-57 0 -203 -20v-105q0 -106 39 -152.5t133 -46.5t144 44z" />
    <glyph glyph-name="uni0433.loclBGR" horiz-adv-x="484" 
d="M99.5 20q-46.5 36 -46.5 109q0 67 39 104t132 61q79 20 110.5 44.5t31.5 72.5q0 42 -27.5 60.5t-92.5 18.5q-75 0 -161 -27l-2 6l9 53q94 23 164 23q87 0 129.5 -32t42.5 -100q0 -70 -41 -108t-137 -62q-75 -19 -105 -44.5t-30 -72.5q0 -46 31 -66.5t102 -20.5
q92 0 167 30l4 -6q-9 -49 -9 -52q-49 -14 -88.5 -20.5t-80.5 -6.5q-95 0 -141.5 36z" />
    <glyph glyph-name="uni0453.loclBGR" horiz-adv-x="484" 
d="M99.5 20q-46.5 36 -46.5 109q0 67 39 104t132 61q79 20 110.5 44.5t31.5 72.5q0 42 -27.5 60.5t-92.5 18.5q-75 0 -161 -27l-2 6l9 53q94 23 164 23q87 0 129.5 -32t42.5 -100q0 -70 -41 -108t-137 -62q-75 -19 -105 -44.5t-30 -72.5q0 -46 31 -66.5t102 -20.5
q92 0 167 30l4 -6q-9 -49 -9 -52q-49 -14 -88.5 -20.5t-80.5 -6.5q-95 0 -141.5 36zM191 626q42 71 75 133h68l1 -7q-35 -51 -84 -133h-59z" />
    <glyph glyph-name="uni0434.loclBGR" horiz-adv-x="617" 
d="M203 -207q-47 9 -98 30l-9 52l4 7q56 -23 101 -33t98 -10q75 0 118 39t43 122q0 69 3 127h-2q-26 -61 -80 -95.5t-124 -34.5q-97 0 -148 65.5t-51 189.5q0 138 59 215.5t180 77.5q39 0 74.5 -5t94.5 -16q43 -9 59 -11l2 -7q-5 -77 -5 -302v-212q0 -108 -61 -158t-158 -50
q-53 0 -100 9zM370 79q43 26 66.5 71t23.5 101v218q-90 21 -155 21q-95 0 -140 -62t-45 -175q0 -101 37.5 -150.5t114.5 -49.5q55 0 98 26z" />
    <glyph glyph-name="uni0436.loclBGR" horiz-adv-x="832" 
d="M30 7l199 283l-157 232l2 7h67l141 -212h104v158q0 33 -0.5 130t-3.5 132l2 7h64l2 -7q-2 -36 -3 -132.5t-1 -129.5v-158h104l141 212h67l2 -7l-157 -232l199 -283l-3 -7h-70l-181 264h-103q0 -182 5 -257l-2 -7h-64l-2 7q5 75 5 257h-103l-181 -264h-70z" />
    <glyph glyph-name="uni0437.loclBGR" horiz-adv-x="499" 
d="M144 -206q-51 10 -96 29q-1 9 -5 32q-2 8 -4 20l4 6q44 -19 93.5 -30.5t96.5 -11.5q77 0 117 39.5t40 118.5q0 72 -41.5 106.5t-129.5 34.5h-122v54h119q70 0 112 45.5t42 122.5q0 130 -137 130q-91 0 -185 -46l-3 7q2 9 4.5 21.5t4.5 29.5q96 43 189 43q94 0 142 -46.5
t48 -134.5q0 -65 -31 -115t-81 -74v-4q64 -15 98 -58.5t34 -115.5q0 -101 -57 -157t-160 -56q-41 0 -92 10z" />
    <glyph glyph-name="uni0438.loclBGR" horiz-adv-x="629" 
d="M138 34q-44 50 -44 147v87q0 193 -4 254l2 7h65l2 -7q-4 -61 -4 -254v-75q0 -81 31.5 -117.5t98.5 -36.5q54 0 97 28t67.5 77.5t24.5 112.5q0 200 -4 265l2 7h65l2 -7q-4 -65 -4 -255q0 -196 5 -260l-3 -7h-61l-3 6q1 11 1 38q0 42 -1 65l-2 1q-31 -61 -84 -93.5
t-121 -32.5q-84 0 -128 50z" />
    <glyph glyph-name="uni0439.loclBGR" horiz-adv-x="629" 
d="M138 34q-44 50 -44 147v87q0 193 -4 254l2 7h65l2 -7q-4 -61 -4 -254v-75q0 -81 31.5 -117.5t98.5 -36.5q54 0 97 28t67.5 77.5t24.5 112.5q0 200 -4 265l2 7h65l2 -7q-4 -65 -4 -255q0 -196 5 -260l-3 -7h-61l-3 6q1 11 1 38q0 42 -1 65l-2 1q-31 -61 -84 -93.5
t-121 -32.5q-84 0 -128 50zM208 638q-38 35 -38 98l2 7h52l3 -7q-1 -40 23 -64t65 -24t65 24t23 64l3 7h52l2 -7q0 -63 -38 -98t-107 -35t-107 35z" />
    <glyph glyph-name="uni045D.loclBGR" horiz-adv-x="629" 
d="M138 34q-44 50 -44 147v87q0 193 -4 254l2 7h65l2 -7q-4 -61 -4 -254v-75q0 -81 31.5 -117.5t98.5 -36.5q54 0 97 28t67.5 77.5t24.5 112.5q0 200 -4 265l2 7h65l2 -7q-4 -65 -4 -255q0 -196 5 -260l-3 -7h-61l-3 6q1 11 1 38q0 42 -1 65l-2 1q-31 -61 -84 -93.5
t-121 -32.5q-84 0 -128 50zM224 736l1 7h68q23 -45 75 -133l-1 -7h-59q-37 62 -84 133z" />
    <glyph glyph-name="uni043A.loclBGR" horiz-adv-x="569" 
d="M538 7l-2 -7h-72l-208 264h-103q0 -182 5 -257l-2 -7h-65l-2 7q5 70 5 232q0 85 -1 133q0 91 -1 131q0 192 -3 234l2 7h65l2 -7q-2 -36 -3 -132.5t-1 -129.5v-158h103l169 212h68l2 -7l-185 -232z" />
    <glyph glyph-name="uni045C.loclBGR" horiz-adv-x="569" 
d="M538 7l-2 -7h-72l-208 264h-103q0 -182 5 -257l-2 -7h-65l-2 7q5 70 5 232q0 85 -1 133q0 91 -1 131q0 192 -3 234l2 7h65l2 -7q-2 -36 -3 -132.5t-1 -129.5v-158h103l169 212h68l2 -7l-185 -232zM249 610q42 71 75 133h68l1 -7q-35 -51 -84 -133h-59z" />
    <glyph glyph-name="uni043B.loclBGR" horiz-adv-x="535" 
d="M21 7l178 428l36 88l5 6h58l5 -6l211 -516l-2 -7h-67l-124 320l-17 44l-34 88h-3q-20 -56 -51 -132l-126 -320h-66z" />
    <glyph glyph-name="uni043F.loclBGR" horiz-adv-x="635" 
d="M90 7q4 100 4 254q0 161 -4 261l2 7h61l3 -6q-1 -26 -1 -104l3 -1q29 61 81 94t118 33q89 0 136.5 -49.5t47.5 -148.5v-86q0 -191 4 -254l-2 -7h-65l-2 7q4 94 4 254v73q0 155 -140 155q-54 0 -96 -27.5t-65.5 -77t-23.5 -113.5q0 -197 4 -264l-2 -7h-65z" />
    <glyph glyph-name="uni0442.loclBGR" horiz-adv-x="982" 
d="M90 7q4 100 4 255q0 148 -4 260l2 7h61l3 -6q-1 -25 -1 -104l3 -1q30 60 81 93.5t112 33.5q70 0 111 -36t48 -105l3 -1q28 66 83.5 104t121.5 38q83 0 126.5 -49.5t43.5 -148.5v-85q0 -155 4 -255l-2 -7h-65l-2 7q4 67 4 255v72q0 155 -127 155q-52 0 -92.5 -27.5
t-63.5 -77t-23 -113.5q0 -186 5 -264l-3 -7h-64l-3 7q5 78 5 245v84q0 153 -127 153q-52 0 -92.5 -27.5t-63.5 -77t-23 -113.5q0 -197 4 -264l-2 -7h-65z" />
    <glyph glyph-name="uni0446.loclBGR" horiz-adv-x="655" 
d="M618 -46q0 -79 1 -96l-2 -7h-55l-3 7q2 40 2 101v41h-80l-4 112l-2 1q-33 -61 -88 -95t-121 -34q-84 0 -128 50t-44 147v87q0 193 -4 254l2 7h65l2 -7q-4 -61 -4 -254v-75q0 -81 31.5 -117.5t98.5 -36.5q54 0 97 28t67.5 77.5t24.5 112.5q0 200 -4 265l2 7h65l2 -7
q-4 -65 -4 -255q0 -131 3 -214h77l4 -6q-1 -29 -1 -93z" />
    <glyph glyph-name="uni0448.loclBGR" horiz-adv-x="982" 
d="M892 522q-4 -100 -4 -255q0 -148 4 -260l-2 -7h-61l-3 6q1 25 1 103l-3 1q-30 -59 -81 -92.5t-112 -33.5q-74 0 -112.5 35t-46.5 106l-3 1q-28 -66 -83.5 -104t-121.5 -38q-88 0 -129 48t-41 149v86q0 155 -4 255l2 7h65l2 -7q-4 -67 -4 -255v-73q0 -81 27 -118t96 -37
q52 0 94 29t65.5 79.5t23.5 111.5q0 185 -5 263l3 7h64l3 -7q-5 -78 -5 -246v-83q0 -79 27.5 -116.5t95.5 -37.5q52 0 93.5 28.5t65.5 78.5t24 111q0 198 -4 265l2 7h65z" />
    <glyph glyph-name="uni0449.loclBGR" horiz-adv-x="1008" 
d="M971 -46q0 -79 1 -96l-2 -7h-55l-3 7q2 40 2 101v41h-80l-3 112l-3 1q-33 -60 -85 -94.5t-112 -34.5q-74 0 -112.5 35t-46.5 106l-3 1q-28 -66 -83.5 -104t-121.5 -38q-88 0 -129 48t-41 149v86q0 155 -4 255l2 7h65l2 -7q-4 -67 -4 -255v-73q0 -81 27 -118t96 -37
q52 0 94 29t65.5 79.5t23.5 111.5q0 185 -5 263l3 7h64l3 -7q-5 -78 -5 -246v-83q0 -79 27.5 -116.5t95.5 -37.5q52 0 93.5 28.5t65.5 78.5t24 111q0 198 -4 265l2 7h65l2 -7q-4 -100 -4 -255q0 -131 3 -214h77l4 -6q-1 -29 -1 -93z" />
    <glyph glyph-name="uni045F.loclBGR" horiz-adv-x="629" 
d="M540 7l-3 -7h-61l-3 6q1 11 1 38q0 42 -1 65l-2 1q-25 -49 -65 -80t-91 -41v-37q0 -62 1 -94l-2 -7h-55l-3 7q2 32 2 94v32q-80 2 -122 52.5t-42 144.5v87q0 193 -4 254l2 7h65l2 -7q-4 -61 -4 -254v-75q0 -81 31.5 -117.5t98.5 -36.5q54 0 97 28t67.5 77.5t24.5 112.5
q0 200 -4 265l2 7h65l2 -7q-4 -65 -4 -255q0 -196 5 -260z" />
    <glyph glyph-name="uni044C.loclBGR" horiz-adv-x="572" 
d="M142.5 43.5q-48.5 59.5 -48.5 162.5q0 205 -4 316l2 7h63l3 -7q-3 -71 -5 -227h3q22 38 68 63.5t105 25.5q87 0 136.5 -48.5t49.5 -141.5q0 -103 -53 -156.5t-158 -53.5q-113 0 -161.5 59.5zM415.5 77.5q37.5 38.5 37.5 111.5q0 70 -36.5 105.5t-105.5 35.5
q-66 0 -110 -38t-44 -102q0 -73 38.5 -112t108.5 -39q74 0 111.5 38.5z" />
    <glyph glyph-name="uni044A.loclBGR" horiz-adv-x="674" 
d="M567.5 335.5q49.5 -48.5 49.5 -141.5q0 -103 -53 -156.5t-158 -53.5q-113 0 -161.5 59.5t-48.5 162.5q0 146 -3 269h-149l-3 6v48h216l3 -7q-3 -71 -5 -227h3q22 38 68 63.5t105 25.5q87 0 136.5 -48.5zM517.5 77.5q37.5 38.5 37.5 111.5q0 70 -36.5 105.5t-105.5 35.5
q-66 0 -110 -38t-44 -102q0 -73 38.5 -112t108.5 -39q74 0 111.5 38.5z" />
    <glyph glyph-name="uni044B.loclBGR" horiz-adv-x="821" 
d="M142.5 43.5q-48.5 59.5 -48.5 162.5q0 205 -4 316l2 7h63l3 -7q-3 -71 -5 -227h3q22 38 68 63.5t105 25.5q87 0 136.5 -48.5t49.5 -141.5q0 -103 -53 -156.5t-158 -53.5q-113 0 -161.5 59.5zM415.5 77.5q37.5 38.5 37.5 111.5q0 70 -36.5 105.5t-105.5 35.5
q-66 0 -110 -38t-44 -102q0 -73 38.5 -112t108.5 -39q74 0 111.5 38.5zM662 7q4 100 4 257q0 158 -4 258l2 7h65l2 -7q-4 -67 -4 -258q0 -190 4 -257l-2 -7h-65z" />
    <glyph glyph-name="uni0459.loclBGR" horiz-adv-x="848" 
d="M452.5 18.5q-44.5 34.5 -70.5 106.5l-59 167q-12 35 -29 80l-30 80h-3l-61 -164l-110 -288h-66l-3 7l170 422l38 94l5 6h58l5 -6l110 -278q25 60 79 99.5t119 39.5q87 0 136.5 -48.5t49.5 -141.5q0 -102 -52 -156t-152 -54q-90 0 -134.5 34.5zM692.5 78q36.5 39 36.5 111
q0 69 -35.5 105t-98.5 36q-68 0 -111 -43.5t-49 -108.5q14 -75 49.5 -107t102.5 -32q69 0 105.5 39z" />
    <glyph glyph-name="uni045A.loclBGR" horiz-adv-x="960" 
d="M853.5 335.5q49.5 -48.5 49.5 -141.5q0 -103 -53 -156.5t-158 -53.5q-113 0 -161.5 59.5t-48.5 162.5v37h-327q0 -173 4 -236l-2 -7h-65l-2 7q4 100 4 257q0 158 -4 258l2 7h65l2 -7q-4 -60 -4 -226h327q-2 171 -4 226l2 7h63l3 -7q-3 -71 -5 -227h3q22 38 68 63.5
t105 25.5q87 0 136.5 -48.5zM803.5 77.5q37.5 38.5 37.5 111.5q0 70 -36.5 105.5t-105.5 35.5q-66 0 -110 -38t-44 -102q0 -73 38.5 -112t108.5 -39q74 0 111.5 38.5z" />
    <glyph glyph-name="uni044E.loclBGR" horiz-adv-x="838" 
d="M665.5 510q54.5 -35 84.5 -98.5t30 -147.5q0 -83 -30 -146.5t-84.5 -98.5t-127.5 -35q-70 0 -123.5 32.5t-84.5 91.5t-34 138h-142q0 -182 4 -239l-2 -7h-65l-2 7q5 70 5 232q0 85 -1 133q0 91 -1 131q0 192 -3 234l2 7h65l2 -7q-3 -42 -3 -234q-1 -40 -1 -131v-73h143
q10 113 74.5 179.5t166.5 66.5q73 0 127.5 -35zM669.5 98.5q47.5 59.5 47.5 165.5q0 107 -47.5 166.5t-131.5 59.5t-131.5 -59.5t-47.5 -166.5q0 -106 47.5 -165.5t131.5 -59.5t131.5 59.5z" />
    <glyph glyph-name="uni04E3.loclBGR" horiz-adv-x="629" 
d="M138 34q-44 50 -44 147v87q0 193 -4 254l2 7h65l2 -7q-4 -61 -4 -254v-75q0 -81 31.5 -117.5t98.5 -36.5q54 0 97 28t67.5 77.5t24.5 112.5q0 200 -4 265l2 7h65l2 -7q-4 -65 -4 -255q0 -196 5 -260l-3 -7h-61l-3 6q1 11 1 38q0 42 -1 65l-2 1q-31 -61 -84 -93.5
t-121 -32.5q-84 0 -128 50zM178 635v41h270l3 -7v-41h-271z" />
    <glyph glyph-name="uni0432.loclBGR.ss01" horiz-adv-x="635" 
d="M238 -10.5q-40 5.5 -98 17.5l-49 9l-2 6q5 93 5 455q0 149 58 216t175 67q103 0 158 -43.5t55 -128.5q0 -77 -36.5 -120.5t-107.5 -64.5l-1 -3q92 -4 137.5 -51.5t45.5 -133.5q0 -111 -62 -171t-186 -60q-52 0 -92 5.5zM299 412q179 24 179 172q0 121 -152 121
q-91 0 -131 -55.5t-40 -170.5v-86zM463.5 83.5q51.5 44.5 51.5 128.5q0 76 -42 113.5t-127 37.5q-51 0 -159 -16l-32 -4q-1 -47 -1 -142t1 -143q82 -19 166 -19q91 0 142.5 44.5z" />
    <glyph glyph-name="uni0430.sc" horiz-adv-x="568" 
d="M504 127l50 -120l-2 -7h-63l-56 140h-298l-56 -140h-63l-3 7l235 568l6 7h60l6 -7zM412 192l-91 227l-36 95h-1q-8 -24 -28 -72l-10 -24l-90 -226h256z" />
    <glyph glyph-name="uni0431.sc" horiz-adv-x="556" 
d="M465.5 307q51.5 -44 51.5 -132q0 -87 -51.5 -131t-151.5 -44h-219l-2 7q4 78 4 214v70q0 219 -4 284l2 7h368l7 -50l-3 -5h-305l-3 -176h156q99 0 150.5 -44zM416.5 83q36.5 28 36.5 92q0 66 -35.5 94t-109.5 28h-149v-6q0 -155 3 -236h144q74 0 110.5 28z" />
    <glyph glyph-name="uni0432.sc" horiz-adv-x="560" 
d="M93 5q4 82 4 217v69q0 220 -4 284l2 7h211q192 0 192 -140q0 -54 -30.5 -89t-81.5 -47v-2q64 -9 101 -45t37 -93q0 -81 -54.5 -123.5t-157.5 -42.5h-217zM287 325q74 0 110.5 27.5t36.5 83.5q0 49 -33.5 70t-102.5 21h-137q-2 -57 -2 -202h128zM304 55q78 0 116.5 26.5
t38.5 85.5q0 55 -40 81.5t-123 26.5h-137q0 -164 1 -220h144z" />
    <glyph glyph-name="uni0433.sc" horiz-adv-x="465" 
d="M162 527q-2 -80 -2 -157q-1 -25 -1 -79q0 -202 5 -284l-3 -7h-66l-2 7q4 78 4 214v70q0 219 -4 284l2 7h341l7 -50l-3 -5h-278z" />
    <glyph glyph-name="uni0453.sc" horiz-adv-x="465" 
d="M162 527q-2 -80 -2 -157q-1 -25 -1 -79q0 -202 5 -284l-3 -7h-66l-2 7q4 78 4 214v70q0 219 -4 284l2 7h341l7 -50l-3 -5h-278zM203 663q39 64 69 121h69l1 -7q-44 -65 -78 -121h-60z" />
    <glyph glyph-name="uni0491.sc" horiz-adv-x="468" 
d="M445 631q0 -67 1 -97l-4 -7h-280q-2 -80 -2 -157q-1 -25 -1 -79q0 -202 5 -284l-3 -7h-66l-2 7q4 78 4 214v70q0 219 -4 284l2 7h292v43q0 66 -2 106l2 7h57l2 -7q-1 -16 -1 -100z" />
    <glyph glyph-name="uni0434.sc" horiz-adv-x="698" 
d="M660 -49q0 -84 1 -100l-2 -7h-57l-2 7q2 40 2 106v43h-505v-43q0 -66 2 -106l-2 -7h-57l-2 7q1 16 1 100q0 67 -1 97l4 7h71q14 14 21.5 42t11.5 76l36 402l2 7h390l3 -7q-3 -57 -5 -284q0 -124 2 -236h83l4 -7q-1 -30 -1 -97zM184 55h324q2 82 2 160v76q0 179 -2 236
h-268l-34 -362q-8 -74 -22 -110z" />
    <glyph glyph-name="uni0435.sc" horiz-adv-x="508" 
d="M466 49l-7 -49h-364l-2 7q4 78 4 214v70q0 220 -4 284l2 7h356l7 -50l-3 -5h-293l-3 -206h268v-52h-268q0 -139 3 -214h301z" />
    <glyph glyph-name="uni0451.sc" horiz-adv-x="508" 
d="M466 49l-7 -49h-364l-2 7q4 78 4 214v70q0 220 -4 284l2 7h356l7 -50l-3 -5h-293l-3 -206h268v-52h-268q0 -139 3 -214h301zM142.5 681.5q-12.5 12.5 -12.5 35.5q0 22 12.5 34.5t31.5 12.5t31.5 -12.5t12.5 -34.5q0 -23 -12.5 -35.5t-31.5 -12.5t-31.5 12.5zM334 681.5
q-13 12.5 -13 35.5q0 22 13 34.5t31 12.5q19 0 31.5 -12.5t12.5 -34.5q0 -23 -12.5 -35.5t-31.5 -12.5q-18 0 -31 12.5z" />
    <glyph glyph-name="uni0436.sc" horiz-adv-x="852" 
d="M830 7l-2 -7h-70l-205 270h-96v-64q0 -123 4 -199l-2 -7h-66l-2 7q4 80 4 213v50h-96l-205 -270h-70l-2 7l222 295l-207 273l2 7h69l192 -257h95v63q-2 142 -4 187l2 7h66l2 -7q-2 -43 -4 -187v-63h95l192 257h69l2 -7l-207 -273z" />
    <glyph glyph-name="uni0437.sc" horiz-adv-x="486" 
d="M48 17q-2 12 -4 20q-4 23 -5 32l3 7q41 -17 90.5 -26.5t96.5 -9.5q78 0 117 29t39 91q0 58 -36.5 83t-122.5 25h-125v52h124q71 0 109.5 32t38.5 91q0 52 -34 75.5t-107 23.5q-87 0 -179 -36l-4 7l9 52q97 33 186 33q100 0 146.5 -37t46.5 -111q0 -53 -28.5 -92
t-77.5 -57v-3q118 -23 118 -141q0 -84 -55 -128.5t-158 -44.5q-98 0 -188 33z" />
    <glyph glyph-name="uni0438.sc" horiz-adv-x="677" 
d="M516 0l-2 7q0 19 1 30q3 135 3 196v41v54l1 171h-2q-42 -67 -67 -103l-272 -396h-83l-2 7q4 78 4 214v70v72q-2 166 -4 212l2 7h66l3 -7q-2 -39 -4 -160q0 -68 -1 -108q0 -171 -1 -226h2l19 31l45 72l273 398h85l2 -7q-2 -46 -4 -212v-72v-70q0 -136 4 -214l-2 -7h-66z
" />
    <glyph glyph-name="uni0439.sc" horiz-adv-x="677" 
d="M516 0l-2 7q0 19 1 30q3 135 3 196v41v54l1 171h-2q-42 -67 -67 -103l-272 -396h-83l-2 7q4 78 4 214v70v72q-2 166 -4 212l2 7h66l3 -7q-2 -39 -4 -160q0 -68 -1 -108q0 -171 -1 -226h2l19 31l45 72l273 398h85l2 -7q-2 -46 -4 -212v-72v-70q0 -136 4 -214l-2 -7h-66z
M227 691q-38 35 -38 98l2 7h52l3 -7q-1 -40 23 -64t65 -24t65 24t23 64l3 7h52l2 -7q0 -63 -38 -98t-107 -35t-107 35z" />
    <glyph glyph-name="uni045D.sc" horiz-adv-x="677" 
d="M516 0l-2 7q0 19 1 30q3 135 3 196v41v54l1 171h-2q-42 -67 -67 -103l-272 -396h-83l-2 7q4 78 4 214v70v72q-2 166 -4 212l2 7h66l3 -7q-2 -39 -4 -160q0 -68 -1 -108q0 -171 -1 -226h2l19 31l45 72l273 398h85l2 -7q-2 -46 -4 -212v-72v-70q0 -136 4 -214l-2 -7h-66z
M325 656q-31 52 -77 121l1 7h69q21 -41 69 -121l-1 -7h-61z" />
    <glyph glyph-name="uni043A.sc" horiz-adv-x="572" 
d="M93 7q4 78 4 214v70q0 220 -4 284l2 7h66l3 -7q-3 -50 -5 -250h96l212 257h68l3 -7l-228 -273l242 -295l-2 -7h-71l-224 270h-96q0 -196 5 -263l-3 -7h-66z" />
    <glyph glyph-name="uni045C.sc" horiz-adv-x="572" 
d="M93 7q4 78 4 214v70q0 220 -4 284l2 7h66l3 -7q-3 -50 -5 -250h96l212 257h68l3 -7l-228 -273l242 -295l-2 -7h-71l-224 270h-96q0 -196 5 -263l-3 -7h-66zM223 663q39 64 69 121h69l1 -7q-44 -65 -78 -121h-60z" />
    <glyph glyph-name="uni043B.sc" horiz-adv-x="654" 
d="M556 291q0 -202 5 -284l-3 -7h-66l-2 7q4 78 4 214v70q0 128 -2 236h-262l-35 -362q-9 -94 -32.5 -136t-79.5 -42q-28 0 -53 9l-9 49l4 7q21 -8 44 -8q31 0 45.5 30t20.5 99l35 402l3 7h385l3 -7q-3 -57 -5 -284z" />
    <glyph glyph-name="uni043C.sc" horiz-adv-x="779" 
d="M93 7q4 78 4 214v70q0 220 -4 284l2 7h85l153 -257q13 -21 37 -67l18 -34h2l18 33l16.5 31.5t19.5 34.5l153 259h86l3 -7q-3 -45 -5 -226v-58q0 -204 5 -284l-3 -7h-66l-2 7q4 94 4 270q0 168 1 223h-2q-31 -58 -54 -97l-152 -256h-45l-154 258q-23 38 -41 73
q-2 3 -13 22h-2l1 -223q0 -176 4 -270l-2 -7h-65z" />
    <glyph glyph-name="uni043D.sc" horiz-adv-x="671" 
d="M573 291q0 -202 5 -284l-3 -7h-66l-2 7q4 74 4 196v63h-352q0 -182 5 -259l-3 -7h-66l-2 7q4 78 4 214v70q0 219 -4 284l2 7h66l3 -7q-3 -52 -5 -254h352q0 194 -4 254l2 7h66l3 -7q-3 -57 -5 -284z" />
    <glyph glyph-name="uni043E.sc" horiz-adv-x="671" 
d="M135 65.5q-72 81.5 -72 225.5t72 225.5t200 81.5q129 0 201 -81.5t72 -225.5t-72 -225.5t-201 -81.5q-128 0 -200 81.5zM490 105.5q54 65.5 54 185.5t-54 185.5t-155 65.5q-100 0 -154 -65.5t-54 -185.5t54 -185.5t154 -65.5q101 0 155 65.5z" />
    <glyph glyph-name="uni043F.sc" horiz-adv-x="668" 
d="M570 291q0 -202 5 -284l-3 -7h-66l-2 7q4 78 4 214v70q0 128 -2 236h-344q-2 -80 -2 -157q-1 -25 -1 -79q0 -202 5 -284l-3 -7h-66l-2 7q4 78 4 214v70q0 219 -4 284l2 7h477l3 -7q-3 -57 -5 -284z" />
    <glyph glyph-name="uni0440.sc" horiz-adv-x="538" 
d="M439 536q51 -46 51 -138q0 -93 -53 -140t-155 -47h-123q1 -136 5 -204l-3 -7h-66l-2 7q4 78 4 214v70q0 220 -4 284l2 7h189q104 0 155 -46zM388.5 295.5q37.5 31.5 37.5 101.5q0 69 -36 99.5t-112 30.5h-116q-2 -78 -2 -157q-1 -25 -1 -79v-27h119q73 0 110.5 31.5z" />
    <glyph glyph-name="uni0441.sc" horiz-adv-x="547" 
d="M137.5 64.5q-74.5 80.5 -74.5 227.5q0 145 74 225.5t207 80.5q78 0 145 -19l7 -52l-3 -6q-71 21 -145 21q-107 0 -164 -64.5t-57 -186.5q0 -124 57.5 -187.5t168.5 -63.5q82 0 149 21l3 -7l-7 -52q-74 -18 -149 -18q-137 0 -211.5 80.5z" />
    <glyph glyph-name="uni0442.sc" horiz-adv-x="504" 
d="M484 533l-3 -5h-196q-2 -59 -2 -237v-55q0 -147 4 -229l-2 -7h-66l-3 7q5 83 5 284q0 119 -2 237h-196l-3 5v49h464v-49z" />
    <glyph glyph-name="uni0443.sc" horiz-adv-x="556" 
d="M544 575l-330 -575h-66l-2 7l110 191l-234 378l2 6h69l128 -210l68 -116h2q21 40 67 120l117 206h66z" />
    <glyph glyph-name="uni045E.sc" horiz-adv-x="556" 
d="M544 575l-330 -575h-66l-2 7l110 191l-234 378l2 6h69l128 -210l68 -116h2q21 40 67 120l117 206h66zM177 691q-38 35 -38 98l2 7h52l3 -7q-1 -40 23 -64t65 -24t65 24t23 64l3 7h52l2 -7q0 -63 -38 -98t-107 -35t-107 35z" />
    <glyph glyph-name="uni0444.sc" horiz-adv-x="799" 
d="M655 81q-81 -77 -226 -81v-64l-3 -7h-54l-3 7v64q-145 5 -225.5 81.5t-80.5 209.5t80.5 209.5t225.5 81.5v64l3 6h54l3 -6v-64q145 -4 226 -81t81 -210t-81 -210zM190.5 117q63.5 -61 181.5 -64v475q-119 -3 -182 -63.5t-63 -173.5t63.5 -174zM608.5 117
q63.5 61 63.5 174t-63.5 173.5t-181.5 63.5v-475q118 3 181.5 64z" />
    <glyph glyph-name="uni0445.sc" horiz-adv-x="588" 
d="M573 7l-2 -7h-70l-207 255h-2l-206 -255h-69l-2 7l240 294l-222 274l2 7h68l190 -240h2l189 240h69l2 -7l-223 -278z" />
    <glyph glyph-name="uni0447.sc" horiz-adv-x="657" 
d="M493 7q4 60 4 262l-2 1q-109 -87 -228 -87q-92 0 -131 48t-39 152q0 124 -4 192l2 7h66l3 -7q-4 -47 -4 -193q0 -77 28.5 -110t95.5 -33q117 0 213 83q0 193 -4 253l2 7h66l3 -7q-3 -57 -5 -284q0 -202 5 -284l-3 -7h-66z" />
    <glyph glyph-name="uni0446.sc" horiz-adv-x="690" 
d="M651 -49q0 -84 1 -100l-2 -7h-57l-2 7q2 40 2 106v43h-498l-2 7q4 64 4 283v70q0 137 -4 215l2 7h66l3 -7q-5 -82 -5 -285q0 -54 1 -79q0 -78 2 -156h337q2 78 2 156q1 25 1 79q0 205 -5 285l3 7h66l2 -7q-4 -84 -4 -230v-55q0 -127 2 -235h82l4 -7q-1 -30 -1 -97z" />
    <glyph glyph-name="uni0448.sc" horiz-adv-x="988" 
d="M891 345v-55q0 -216 4 -283l-2 -7h-798l-2 7q4 64 4 283v70q0 137 -4 215l2 7h66l3 -7q-5 -82 -5 -285q0 -54 1 -79q0 -78 2 -156h299q1 31 1 117l1 118v70q0 137 -4 215l2 7h66l2 -7q-4 -84 -4 -230v-55l1 -118q0 -86 1 -117h299q2 78 2 156q1 25 1 79q0 205 -5 285l3 7
h66l2 -7q-4 -84 -4 -230z" />
    <glyph glyph-name="uni0449.sc" horiz-adv-x="1019" 
d="M980 -49q0 -84 1 -100l-2 -7h-57l-2 7q2 40 2 106v43h-827l-2 7q4 64 4 283v70q0 137 -4 215l2 7h66l3 -7q-5 -82 -5 -285q0 -54 1 -79q0 -78 2 -156h299q1 31 1 117l1 118v70q0 137 -4 215l2 7h66l2 -7q-4 -84 -4 -230v-55l1 -118q0 -86 1 -117h299q2 78 2 156
q1 25 1 79q0 205 -5 285l3 7h66l2 -7q-4 -84 -4 -230v-55q0 -125 2 -235h84l4 -7q-1 -30 -1 -97z" />
    <glyph glyph-name="uni045F.sc" horiz-adv-x="661" 
d="M564 345v-55q0 -216 4 -283l-2 -7h-206v-54q0 -63 1 -95l-2 -7h-56l-2 7q1 32 1 95v54h-207l-2 7q4 64 4 283v70q0 137 -4 215l2 7h66l3 -7q-5 -82 -5 -285q0 -54 1 -78q0 -75 2 -157h337q2 82 2 157q1 24 1 78q0 205 -5 285l3 7h66l2 -7q-4 -84 -4 -230z" />
    <glyph glyph-name="uni044C.sc" horiz-adv-x="568" 
d="M465 314q53 -46 53 -136q0 -178 -206 -178h-217l-2 7q4 78 4 214v70q0 219 -4 284l2 7h66l3 -7q-4 -84 -4 -215h150q102 0 155 -46zM417.5 84.5q36.5 29.5 36.5 94.5q0 66 -38 96.5t-110 30.5h-147v-15q0 -155 3 -236h144q75 0 111.5 29.5z" />
    <glyph glyph-name="uni044A.sc" horiz-adv-x="648" 
d="M544 314q53 -46 53 -136q0 -178 -206 -178h-217l-2 7q4 78 4 214v70q0 129 -2 237h-150l-3 5v49h219l3 -7q-4 -84 -4 -215h150q102 0 155 -46zM496.5 84.5q36.5 29.5 36.5 94.5q0 66 -38 96.5t-110 30.5h-147v-15q0 -155 3 -236h144q75 0 111.5 29.5z" />
    <glyph glyph-name="uni044B.sc" horiz-adv-x="825" 
d="M465 314q53 -46 53 -136q0 -178 -206 -178h-217l-2 7q4 78 4 214v70q0 219 -4 284l2 7h66l3 -7q-4 -84 -4 -215h150q102 0 155 -46zM417.5 84.5q36.5 29.5 36.5 94.5q0 66 -38 96.5t-110 30.5h-147v-15q0 -155 3 -236h144q75 0 111.5 29.5zM661 7q4 78 4 214v70
q0 219 -4 284l2 7h66l3 -7q-3 -57 -5 -284q0 -202 5 -284l-3 -7h-66z" />
    </font>
</defs>
</svg>
